<?xml version="1.0" standalone="no"?>
<!DOCTYPE svg PUBLIC "-//W3C//DTD SVG 1.1//EN" "http://www.w3.org/Graphics/SVG/1.1/DTD/svg11.dtd" >
<svg xmlns="http://www.w3.org/2000/svg" xmlns:xlink="http://www.w3.org/1999/xlink" version="1.1">
<metadata>
Created by FontForge 20170731 at Wed Oct 12 03:55:10 2022
 By Aleksey,,,
Copyright (c) 2018 Bold Monday. All rights reserved. Bilo is a trademark of Bold Monday. Unauthorised copying or modification of any of its data is illegal.
</metadata>
<defs>
<font id="Bilo-Regular" horiz-adv-x="0" >
  <font-face 
    font-family="Bilo"
    font-weight="400"
    font-stretch="normal"
    units-per-em="2048"
    panose-1="2 11 5 3 4 0 0 2 0 3"
    ascent="1536"
    descent="-512"
    x-height="881"
    cap-height="1352"
    bbox="-551 -481 2553.51 2089"
    underline-thickness="110"
    underline-position="-485"
    unicode-range="U+000D-FB02"
  />
<missing-glyph horiz-adv-x="876" 
d="M811 0h-745v1536h745v-1536zM176 1425v-1314h524v1314h-524z" />
    <glyph glyph-name=".notdef" horiz-adv-x="876" 
d="M811 0h-745v1536h745v-1536zM176 1425v-1314h524v1314h-524z" />
    <glyph glyph-name=".null" 
 />
    <glyph glyph-name="uni000D" unicode="&#xd;" horiz-adv-x="438" 
 />
    <glyph glyph-name="NULL" 
 />
    <glyph glyph-name="NULL" 
 />
    <glyph glyph-name="space" unicode=" " horiz-adv-x="438" 
 />
    <glyph glyph-name="exclam" unicode="!" horiz-adv-x="536" 
d="M268 -16q-49 0 -81.5 32t-32.5 80t32.5 80.5t81.5 32.5t82 -32.5t33 -80.5q0 -47 -33 -79.5t-82 -32.5zM223 348l-57 1004h205l-58 -1004h-90z" />
    <glyph glyph-name="quotedbl" unicode="&#x22;" horiz-adv-x="780" 
d="M190 700l-57 652h174l-57 -652h-60zM530 700l-57 652h174l-57 -652h-60z" />
    <glyph glyph-name="numbersign" unicode="#" horiz-adv-x="1228" 
d="M797 0v377h-365v-377h-147v377h-234v131h234v336h-234v131h234v377h147v-377h365v377h147v-377h234v-131h-234v-336h234v-131h-234v-377h-147zM432 844v-336h365v336h-365z" />
    <glyph glyph-name="dollar" unicode="$" horiz-adv-x="1150" 
d="M496 -266v248q-138 11 -254 65.5t-174 142.5l114 121q58 -93 162 -138.5t221 -45.5q141 0 216 64t75 167q0 176 -221 226l-168 39q-163 38 -245.5 126t-82.5 218q0 147 97.5 254t259.5 141v256h147v-248q128 -8 234 -56.5t163 -129.5l-114 -121q-51 82 -139.5 122
t-188.5 40q-130 0 -203 -66.5t-73 -167.5q0 -172 215 -223l170 -37q157 -36 244 -125.5t87 -222.5q0 -152 -107.5 -262.5t-287.5 -134.5v-252h-147z" />
    <glyph glyph-name="percent" unicode="%" horiz-adv-x="1599" 
d="M424 696q-132 0 -231 99.5t-99 238.5t99 238.5t231 99.5t231 -99.5t99 -238.5t-99 -238.5t-231 -99.5zM424 821q78 0 127 60t49 153t-49 153t-127 60t-127 -60t-49 -153t49 -153t127 -60zM137 0l1149 1352h176l-1149 -1352h-176zM1176 104q78 0 127 60t49 153t-49 153
t-127 60t-127.5 -60t-49.5 -153t49.5 -153t127.5 -60zM1176 -20q-132 0 -231 99t-99 238t99 238.5t231 99.5t230.5 -99.5t98.5 -238.5t-98.5 -238t-230.5 -99z" />
    <glyph glyph-name="ampersand" unicode="&#x26;" horiz-adv-x="1538" 
d="M1274 -59l-262 252q-169 -213 -451 -213q-205 0 -334 108.5t-129 273.5q0 132 87.5 233t244.5 157q-139 139 -139 288q0 141 105.5 236.5t269.5 95.5q165 0 269.5 -98.5t104.5 -251.5q0 -247 -292 -369l243 -233q67 144 130.5 221.5t130.5 106t165 28.5q53 0 80 -6
l25 -156q-46 4 -70 4q-59 0 -103.5 -12t-89 -43.5t-85.5 -89.5t-84 -147l303 -289zM596 125q197 0 319 160l-403 387q-111 -44 -171 -120.5t-60 -168.5q0 -111 87.5 -184.5t227.5 -73.5zM465 1034q0 -69 31 -119t94 -110l76 -74q200 96 200 285q0 99 -55 159t-147 60
q-87 0 -143 -55t-56 -146z" />
    <glyph glyph-name="quotesingle" unicode="'" horiz-adv-x="440" 
d="M190 700l-57 652h174l-57 -652h-60z" />
    <glyph glyph-name="parenleft" unicode="(" horiz-adv-x="784" 
d="M807 -330l-10 -121q-294 0 -436 218t-142 694t142 693.5t436 217.5l10 -121q-153 0 -246.5 -76.5t-139.5 -250t-46 -463.5t46 -463.5t139.5 -250.5t246.5 -77z" />
    <glyph glyph-name="parenright" unicode=")" horiz-adv-x="784" 
d="M-12 -451l-11 121q153 0 246.5 77t140 250.5t46.5 463.5t-46.5 463.5t-140 250t-246.5 76.5l11 121q294 0 435.5 -217.5t141.5 -693.5t-141.5 -694t-435.5 -218z" />
    <glyph glyph-name="asterisk" unicode="*" horiz-adv-x="888" 
d="M385 557l31 348l-287 -198l-57 98l315 149l-315 150l57 98l287 -198l-31 348h119l-31 -348l287 198l57 -98l-315 -150l315 -149l-57 -98l-287 198l31 -348h-119z" />
    <glyph glyph-name="plus" unicode="+" horiz-adv-x="1228" 
d="M176 375v131h365v375h147v-375h365v-131h-365v-375h-147v375h-365z" />
    <glyph glyph-name="comma" unicode="," horiz-adv-x="528" 
d="M106 -350l-16 86q110 12 168.5 71t58.5 148q0 32 -6 47q-18 -18 -57 -18q-47 0 -79 32.5t-32 79.5q0 48 33 80.5t84 32.5q72 0 117 -64.5t45 -169.5q0 -140 -82.5 -224t-233.5 -101z" />
    <glyph glyph-name="hyphen" unicode="-" horiz-adv-x="831" 
d="M164 434v137h504v-137h-504z" />
    <glyph glyph-name="period" unicode="." horiz-adv-x="516" 
d="M258 -16q-49 0 -82 32.5t-33 79.5q0 48 33 80.5t82 32.5t82 -32.5t33 -80.5q0 -47 -33 -79.5t-82 -32.5z" />
    <glyph glyph-name="slash" unicode="/" horiz-adv-x="718" 
d="M-29 -430l633 1782h156l-633 -1782h-156z" />
    <glyph glyph-name="zero" unicode="0" horiz-adv-x="1216" 
d="M608 -20q-145 0 -257 91t-172 249t-60 356t60 356t172 249t257 91t257 -91t172.5 -249t60.5 -356t-60.5 -356t-172.5 -249t-257 -91zM608 127q138 0 222.5 149t84.5 400t-84.5 400t-222.5 149t-222.5 -149t-84.5 -400t84.5 -400t222.5 -149z" />
    <glyph glyph-name="one" unicode="1" horiz-adv-x="876" 
d="M512 0v1096q-116 -148 -365 -281l-51 135q143 78 254 175.5t205 226.5h133v-1352h-176z" />
    <glyph glyph-name="two" unicode="2" horiz-adv-x="1155" 
d="M113 0v125q360 240 536 441t176 388q0 124 -73.5 197.5t-196.5 73.5q-125 0 -214.5 -76.5t-119.5 -214.5l-147 70q40 166 173 267t312 101q196 0 322.5 -121t126.5 -303q0 -202 -166.5 -398.5t-505.5 -412.5h686v-137h-909z" />
    <glyph glyph-name="three" unicode="3" horiz-adv-x="1155" 
d="M573 -20q-183 0 -316 95t-179 257l149 71q35 -134 127 -205t224 -71q134 0 210 70t76 188q0 131 -97.5 208t-285.5 81l-47 71l373 469h-672v138h869v-125l-345 -436q172 -25 280 -137.5t108 -262.5q0 -169 -133 -290t-341 -121z" />
    <glyph glyph-name="four" unicode="4" horiz-adv-x="1189" 
d="M737 0v344h-686v105l697 903h165v-871h211v-137h-211v-344h-176zM248 481h489v635z" />
    <glyph glyph-name="five" unicode="5" horiz-adv-x="1179" 
d="M594 -20q-172 0 -303 84.5t-180 232.5l149 72q40 -121 129 -181.5t209 -60.5q133 0 213 72.5t80 203.5q0 133 -82 207t-215 74q-159 0 -275 -96l-118 61l67 703h748v-138h-602l-45 -452q128 69 264 69q187 0 313.5 -122t126.5 -301q0 -182 -133.5 -305t-345.5 -123z" />
    <glyph glyph-name="six" unicode="6" horiz-adv-x="1179" 
d="M629 -20q-146 0 -258 75.5t-178 216.5q-74 164 -74 381q0 331 160.5 525t431.5 194q100 0 187.5 -24.5t137.5 -65.5l-55 -147q-44 39 -117 64.5t-155 25.5q-196 0 -309 -145t-113 -406q0 -32 4 -94q41 116 139 180.5t232 64.5q184 0 307 -119t123 -296
q0 -184 -133.5 -307t-329.5 -123zM633 121q120 0 200 78t80 204q0 124 -79.5 202.5t-202.5 78.5t-207 -80t-84 -198q0 -121 84 -203t209 -82z" />
    <glyph glyph-name="seven" unicode="7" horiz-adv-x="1005" 
d="M219 0l518 1214h-708v138h880v-127l-503 -1225h-187z" />
    <glyph glyph-name="eight" unicode="8" horiz-adv-x="1193" 
d="M598 -20q-210 0 -348.5 102t-138.5 258q0 114 76 201.5t221 134.5q-265 114 -265 330q0 158 130 262t323 104t324 -103.5t131 -256.5q0 -109 -71.5 -192t-201.5 -128l21 -8q284 -114 284 -332q0 -163 -137.5 -267.5t-347.5 -104.5zM672 571l-140 56q-241 -97 -241 -275
q0 -106 85 -168.5t226 -62.5q140 0 221.5 59t81.5 162q0 75 -52.5 126.5t-180.5 102.5zM324 1012q0 -74 51.5 -128t177.5 -104l102 -41q105 43 161 111t56 154q0 104 -75 165.5t-199 61.5q-123 0 -198.5 -60.5t-75.5 -158.5z" />
    <glyph glyph-name="nine" unicode="9" horiz-adv-x="1179" 
d="M469 -20q-100 0 -188.5 24.5t-137.5 65.5l56 147q44 -39 117 -64.5t155 -25.5q196 0 309 145t113 406q0 30 -4 92q-41 -115 -140.5 -179.5t-230.5 -64.5q-184 0 -307 119.5t-123 296.5q0 184 133.5 307t329.5 123q146 0 258 -75.5t178 -217.5q74 -164 74 -381
q0 -331 -160.5 -524.5t-431.5 -193.5zM549 668q123 0 207 80t84 198q0 121 -84 203t-209 82q-120 0 -200.5 -78.5t-80.5 -204.5q0 -124 79.5 -202t203.5 -78z" />
    <glyph glyph-name="colon" unicode=":" horiz-adv-x="536" 
d="M268 -16q-49 0 -81.5 32t-32.5 80t32.5 80.5t81.5 32.5t82 -32.5t33 -80.5q0 -47 -33 -79.5t-82 -32.5zM268 672q-49 0 -81.5 32t-32.5 80t32.5 80.5t81.5 32.5t82 -32.5t33 -80.5q0 -47 -33 -79.5t-82 -32.5z" />
    <glyph glyph-name="semicolon" unicode=";" horiz-adv-x="548" 
d="M117 -350l-17 86q110 12 169 71t59 148q0 32 -6 47q-18 -18 -58 -18q-47 0 -78.5 32.5t-31.5 79.5q0 48 33 80.5t83 32.5q72 0 117 -64.5t45 -169.5q0 -140 -82.5 -224t-232.5 -101zM279 672q-49 0 -82 32.5t-33 79.5q0 48 33 80.5t82 32.5t81.5 -32.5t32.5 -80.5
t-32.5 -80t-81.5 -32z" />
    <glyph glyph-name="less" unicode="&#x3c;" horiz-adv-x="1228" 
d="M985 -20l-799 401v119l799 401l57 -113l-694 -348l694 -348z" />
    <glyph glyph-name="equal" unicode="=" horiz-adv-x="1228" 
d="M176 150v131h877v-131h-877zM176 600v131h877v-131h-877z" />
    <glyph glyph-name="greater" unicode="&#x3e;" horiz-adv-x="1228" 
d="M244 -20l-58 112l695 348l-695 348l58 113l798 -401v-119z" />
    <glyph glyph-name="question" unicode="?" horiz-adv-x="843" 
d="M299 348l-18 332q144 48 215 114.5t71 157.5q0 128 -129.5 193t-382.5 65l37 162q317 0 492.5 -102t175.5 -283q0 -128 -91 -225.5t-266 -159.5l-14 -254h-90zM344 -16q-49 0 -82 32.5t-33 79.5q0 48 33 80.5t82 32.5t82 -32.5t33 -80.5q0 -47 -33 -79.5t-82 -32.5z" />
    <glyph glyph-name="at" unicode="@" horiz-adv-x="1859" 
d="M963 -393q-178 0 -338.5 65t-276.5 176t-184 265.5t-68 326.5t68 327t184 266t276.5 176t338.5 65q164 0 312 -62t255 -167.5t170 -252t63 -309.5q0 -210 -99 -329t-257 -119q-105 0 -169.5 49.5t-70.5 148.5q-41 -103 -109.5 -150.5t-172.5 -47.5q-150 0 -257.5 119
t-107.5 286q0 165 108 285.5t257 120.5q206 0 282 -199v184h50q71 0 98 11v-555q0 -154 125 -154q95 0 157 93t62 255q0 152 -54 283t-147 221.5t-221.5 142.5t-273.5 52q-158 0 -299.5 -58t-242.5 -156.5t-160.5 -235.5t-59.5 -290q0 -154 59 -291t160 -235t242.5 -155.5
t300.5 -57.5q167 0 278.5 32t214.5 93l45 -80q-87 -62 -233.5 -100.5t-304.5 -38.5zM924 158q103 0 175 81.5t72 200.5t-72 201t-175 82q-106 0 -179 -81.5t-73 -201.5t73 -201t179 -81z" />
    <glyph glyph-name="A" unicode="A" horiz-adv-x="1228" 
d="M20 0l502 1352h185l501 -1352h-198l-113 315h-575l-111 -315h-191zM610 1143l-245 -688h489z" />
    <glyph glyph-name="B" unicode="B" horiz-adv-x="1226" 
d="M178 0v1352h361q253 0 382.5 -84.5t129.5 -249.5q0 -119 -69 -198t-202 -103v-4q165 -19 255.5 -106.5t90.5 -229.5q0 -181 -146 -279t-423 -98h-379zM362 143h197q196 0 289.5 63t93.5 189q0 246 -356 246h-224v-498zM362 1208v-434h222q139 0 210.5 56.5t71.5 162.5
q0 109 -81 162t-253 53h-170z" />
    <glyph glyph-name="C" unicode="C" horiz-adv-x="1333" 
d="M745 -20q-181 0 -328 95t-227.5 254t-80.5 347t80.5 347t227.5 254t328 95q174 0 307.5 -87t198.5 -249l-149 -88q-53 133 -148 199.5t-221 66.5q-195 0 -313.5 -149.5t-118.5 -388.5q0 -240 118.5 -389.5t313.5 -149.5q126 0 221 66.5t148 199.5l149 -88
q-65 -162 -198.5 -248.5t-307.5 -86.5z" />
    <glyph glyph-name="D" unicode="D" horiz-adv-x="1398" 
d="M178 0v1352h447q201 0 352.5 -86t232 -239t80.5 -351t-80.5 -351t-232 -239t-352.5 -86h-447zM616 1208h-254v-1065h254q232 0 357 141.5t125 391.5t-125 391t-357 141z" />
    <glyph glyph-name="E" unicode="E" horiz-adv-x="1097" 
d="M178 0v1352h807v-146h-623v-438h570v-145h-570v-478h623v-145h-807z" />
    <glyph glyph-name="F" unicode="F" horiz-adv-x="1032" 
d="M178 0v1352h807v-146h-623v-456h502v-146h-502v-604h-184z" />
    <glyph glyph-name="G" unicode="G" horiz-adv-x="1404" 
d="M772 -20q-152 0 -278.5 55t-210 149.5t-129 220.5t-45.5 269q0 196 82 356t227 251t323 91q176 0 312.5 -88t203.5 -250l-151 -88q-113 268 -371 268q-196 0 -315 -149t-119 -393q0 -155 50 -273.5t157 -190t260 -71.5q132 0 223 45q55 27 73.5 68t18.5 106v332h185v-524
q-77 -85 -212.5 -134.5t-283.5 -49.5z" />
    <glyph glyph-name="H" unicode="H" horiz-adv-x="1347" 
d="M985 0v612h-623v-612h-184v1352h184v-594h623v594h184v-1352h-184z" />
    <glyph glyph-name="I" unicode="I" horiz-adv-x="540" 
d="M178 0v1352h184v-1352h-184z" />
    <glyph glyph-name="J" unicode="J" horiz-adv-x="540" 
d="M12 -451q-103 0 -182 44t-113 128l144 89q51 -111 168 -111q76 0 112.5 48t36.5 153v1452h184v-1377q0 -203 -92 -314.5t-258 -111.5z" />
    <glyph glyph-name="K" unicode="K" horiz-adv-x="1241" 
d="M178 0v1352h184v-740l601 740h206l-479 -588l520 -764h-213l-430 643l-205 -227v-416h-184z" />
    <glyph glyph-name="L" unicode="L" horiz-adv-x="1001" 
d="M178 0v1352h184v-1207h605v-145h-789z" />
    <glyph glyph-name="M" unicode="M" horiz-adv-x="1695" 
d="M178 0v1352h160l514 -854l514 854h152v-1352h-170v1022l-451 -743h-98l-451 743v-1022h-170z" />
    <glyph glyph-name="N" unicode="N" horiz-adv-x="1368" 
d="M178 0v1352h172l670 -1051v1051h170v-1352h-172l-670 1051v-1051h-170z" />
    <glyph glyph-name="O" unicode="O" horiz-adv-x="1458" 
d="M729 -20q-129 0 -245 56t-197.5 150t-129.5 222t-48 268q0 139 48 266.5t129.5 222t197.5 151t245 56.5q172 0 315.5 -95.5t224.5 -255t81 -345.5q0 -188 -81 -347.5t-224.5 -254t-315.5 -94.5zM729 137q189 0 308.5 150.5t119.5 388.5t-119.5 388t-308.5 150
t-308.5 -150t-119.5 -388t119.5 -388.5t308.5 -150.5z" />
    <glyph glyph-name="P" unicode="P" horiz-adv-x="1146" 
d="M178 0v1352h330q262 0 409.5 -106.5t147.5 -295.5t-147 -295t-410 -106h-146v-549h-184zM516 1208h-154v-516h154q181 0 268.5 62.5t87.5 195.5t-87.5 195.5t-268.5 62.5z" />
    <glyph glyph-name="Q" unicode="Q" horiz-adv-x="1458" 
d="M965 -444q-143 0 -233.5 97.5t-90.5 268.5v64q-231 37 -381.5 232t-150.5 458q0 139 48 266.5t129.5 222t197.5 151t245 56.5q172 0 315.5 -95.5t224.5 -255t81 -345.5q0 -260 -152 -456.5t-383 -233.5v-113q0 -93 35.5 -136.5t110.5 -43.5q62 0 96.5 28t66.5 93l131 -78
q-80 -180 -290 -180zM729 137q189 0 308.5 150.5t119.5 388.5t-119.5 388t-308.5 150t-308.5 -150t-119.5 -388t119.5 -388.5t308.5 -150.5z" />
    <glyph glyph-name="R" unicode="R" horiz-adv-x="1234" 
d="M178 0v1352h375q268 0 408.5 -93t140.5 -272q0 -137 -90.5 -222.5t-257.5 -105.5v-4q159 -11 233 -81.5t74 -231.5v-117q0 -139 61 -225h-192q-56 69 -56 213v113q0 145 -60 203.5t-204 58.5h-248v-588h-184zM547 1208h-185v-483h185q362 0 362 242q0 241 -362 241z" />
    <glyph glyph-name="S" unicode="S" horiz-adv-x="1130" 
d="M543 -20q-151 0 -286 57t-200 153l123 121q57 -88 159.5 -132t217.5 -44q137 0 211 62t74 163q0 173 -217 222l-168 39q-163 38 -245.5 127t-82.5 219q0 172 132.5 288.5t334.5 116.5q132 0 255 -52t179 -136l-123 -121q-48 77 -134.5 115.5t-184.5 38.5
q-131 0 -202 -63.5t-71 -164.5q0 -169 211 -219l170 -37q157 -36 244.5 -126.5t87.5 -223.5q0 -171 -135 -287t-350 -116z" />
    <glyph glyph-name="T" unicode="T" horiz-adv-x="1105" 
d="M461 0v1206h-422v146h1028v-146h-422v-1206h-184z" />
    <glyph glyph-name="U" unicode="U" horiz-adv-x="1380" 
d="M690 -20q-243 0 -379.5 138t-136.5 390v844h184v-850q0 -176 86.5 -270.5t245.5 -94.5q157 0 244.5 94t87.5 271v850h184v-844q0 -252 -136.5 -390t-379.5 -138z" />
    <glyph glyph-name="V" unicode="V" horiz-adv-x="1224" 
d="M520 0l-500 1352h197l399 -1133l402 1133h186l-499 -1352h-185z" />
    <glyph glyph-name="W" unicode="W" horiz-adv-x="1886" 
d="M481 0l-461 1352h191l379 -1131l280 752l-129 379h189l383 -1125l368 1125h185l-463 -1352h-184l-269 764l-284 -764h-185z" />
    <glyph glyph-name="X" unicode="X" horiz-adv-x="1122" 
d="M41 0l418 692l-398 660h205l303 -514l295 514h197l-397 -658l417 -694h-204l-322 549l-317 -549h-197z" />
    <glyph glyph-name="Y" unicode="Y" horiz-adv-x="1105" 
d="M461 0v520l-455 832h199l350 -676l352 676h193l-455 -832v-520h-184z" />
    <glyph glyph-name="Z" unicode="Z" horiz-adv-x="1050" 
d="M84 0v117l655 1089h-641v146h854v-117l-655 -1090h670v-145h-883z" />
    <glyph glyph-name="bracketleft" unicode="[" horiz-adv-x="667" 
d="M229 -430v1782h402v-127h-254v-1528h254v-127h-402z" />
    <glyph glyph-name="backslash" unicode="\" horiz-adv-x="718" 
d="M592 -430l-633 1782h156l633 -1782h-156z" />
    <glyph glyph-name="bracketright" unicode="]" horiz-adv-x="667" 
d="M37 -430v127h254v1528h-254v127h401v-1782h-401z" />
    <glyph glyph-name="asciicircum" unicode="^" horiz-adv-x="1228" 
d="M291 526l-125 62l387 764h123l387 -764l-127 -64l-324 645z" />
    <glyph glyph-name="underscore" unicode="_" horiz-adv-x="1024" 
d="M164 0v131h696v-131h-696z" />
    <glyph glyph-name="grave" unicode="`" horiz-adv-x="1024" 
d="M614 995l-305 246l121 105l285 -351h-101z" />
    <glyph glyph-name="a" unicode="a" horiz-adv-x="993" 
d="M375 -20q-135 0 -210 61.5t-75 177.5q0 48 14.5 86.5t44 64.5t62 44.5t80.5 31t87 19.5t93 14q38 4 56.5 6.5t44.5 7.5t37.5 10t25.5 14t19.5 21t9.5 29t4 39q0 80 -45 119t-142 39q-175 0 -233 -123l-117 70q42 91 140.5 140.5t230.5 49.5q162 0 248 -81.5t86 -244.5
v-575h-164v152q-70 -172 -297 -172zM412 102q113 0 185.5 67t72.5 200v77q-21 -38 -56 -50.5t-122 -24.5q-118 -16 -155 -30q-82 -32 -83 -112q0 -127 158 -127z" />
    <glyph glyph-name="b" unicode="b" horiz-adv-x="1157" 
d="M647 -20q-112 0 -195.5 61t-123.5 160v-201h-168v1352h55q83 0 113 12v-684q40 99 123.5 160t195.5 61q108 0 204.5 -62.5t155 -169.5t58.5 -229q0 -123 -58.5 -229.5t-155 -168.5t-204.5 -62zM604 123q122 0 205.5 89.5t83.5 227.5t-83.5 228t-205.5 90
q-109 0 -195.5 -91.5t-86.5 -226.5t86.5 -226t195.5 -91z" />
    <glyph glyph-name="c" unicode="c" horiz-adv-x="1009" 
d="M561 -20q-195 0 -332 132.5t-137 321.5q0 121 61 228.5t170.5 173t239.5 65.5q126 0 221.5 -59t145.5 -174l-127 -74q-83 164 -248 164q-127 0 -209 -92t-82 -232q0 -137 81 -224t214 -87q93 0 158 41t94 119l125 -76q-46 -102 -145 -164.5t-230 -62.5z" />
    <glyph glyph-name="d" unicode="d" horiz-adv-x="1157" 
d="M510 -20q-108 0 -204.5 62t-155 168.5t-58.5 229.5q0 122 58.5 229t155 169.5t204.5 62.5q112 0 195.5 -61t123.5 -160v672h56q82 0 112 12v-1364h-168v201q-40 -99 -123.5 -160t-195.5 -61zM553 123q109 0 196 91.5t87 225.5q0 135 -87 226.5t-196 91.5
q-122 0 -205.5 -90t-83.5 -228t83.5 -227.5t205.5 -89.5z" />
    <glyph glyph-name="e" unicode="e" horiz-adv-x="1042" 
d="M565 -20q-203 0 -338 134t-135 322q0 123 59.5 230.5t160.5 171t218 63.5q177 0 298.5 -138.5t121.5 -352.5h-690q5 -127 86.5 -210t218.5 -83q181 0 250 157l125 -67q-51 -107 -147 -167t-228 -60zM524 774q-105 0 -177.5 -73.5t-84.5 -178.5h524q-12 105 -84.5 178.5
t-177.5 73.5z" />
    <glyph glyph-name="f" unicode="f" horiz-adv-x="628" 
d="M25 750v131h172v104q0 196 91 291.5t240 95.5q88 0 154.5 -34t103.5 -97l-114 -88q-66 80 -164 80q-72 0 -117 -48t-45 -147q0 -96 12 -157h273v-131h-266v-750h-168v750h-172z" />
    <glyph glyph-name="g" unicode="g" horiz-adv-x="1157" 
d="M526 -451q-122 0 -217 39.5t-147 122.5l112 96q44 -61 103.5 -91.5t154.5 -30.5q152 0 224.5 77t72.5 232v207q-40 -99 -123.5 -160t-195.5 -61q-108 0 -204.5 62t-155 168.5t-58.5 229.5q0 122 58.5 229t155 169.5t204.5 62.5q112 0 195.5 -61t123.5 -160v201h56
q82 0 112 12v-873q0 -224 -126.5 -347.5t-344.5 -123.5zM553 123q109 0 196 91.5t87 225.5q0 135 -87 226.5t-196 91.5q-122 0 -205.5 -90t-83.5 -228t83.5 -227.5t205.5 -89.5z" />
    <glyph glyph-name="h" unicode="h" horiz-adv-x="1114" 
d="M160 0v1352h55q83 0 113 12v-666q41 98 127 150.5t198 52.5q143 0 223 -83.5t80 -237.5v-580h-168v555q0 107 -44 153t-138 46q-127 0 -202.5 -75.5t-75.5 -209.5v-469h-168z" />
    <glyph glyph-name="i" unicode="i" horiz-adv-x="487" 
d="M160 0v881h55q83 0 113 12v-893h-168zM244 1067q-49 0 -82 32.5t-33 80.5q0 47 33 79.5t82 32.5t81.5 -32t32.5 -80t-32.5 -80.5t-81.5 -32.5z" />
    <glyph glyph-name="j" unicode="j" horiz-adv-x="487" 
d="M-6 -451q-166 0 -240 127l115 88q30 -44 61.5 -60.5t79.5 -16.5q71 0 110.5 42.5t39.5 157.5v994h55q83 0 113 12v-977q0 -174 -93.5 -270.5t-240.5 -96.5zM244 1067q-49 0 -82 32.5t-33 80.5q0 47 33 79.5t82 32.5t81.5 -32t32.5 -80t-32.5 -80.5t-81.5 -32.5z" />
    <glyph glyph-name="k" unicode="k" horiz-adv-x="997" 
d="M160 0v1352h55q83 0 113 12v-971l446 488h178l-336 -371l359 -510h-187l-282 408l-178 -177v-231h-168z" />
    <glyph glyph-name="l" unicode="l" horiz-adv-x="487" 
d="M160 0v1352h55q83 0 113 12v-1364h-168z" />
    <glyph glyph-name="m" unicode="m" horiz-adv-x="1714" 
d="M160 0v881h55q83 0 113 12v-191q37 94 119 146.5t198 52.5q111 0 183.5 -55t99.5 -156q37 100 123 155.5t209 55.5q140 0 218 -85.5t78 -235.5v-580h-167v555q0 105 -43 152t-136 47q-124 0 -196 -75t-72 -210v-469h-168v555q0 105 -42.5 152t-135.5 47q-124 0 -196 -75
t-72 -210v-469h-168z" />
    <glyph glyph-name="n" unicode="n" horiz-adv-x="1114" 
d="M160 0v881h55q83 0 113 12v-195q41 98 127 150.5t198 52.5q143 0 223 -83.5t80 -237.5v-580h-168v555q0 107 -44 153t-138 46q-127 0 -202.5 -75.5t-75.5 -209.5v-469h-168z" />
    <glyph glyph-name="o" unicode="o" horiz-adv-x="1097" 
d="M549 123q120 0 202.5 89.5t82.5 227.5t-82.5 228t-202.5 90q-121 0 -203 -90t-82 -228t82 -227.5t203 -89.5zM549 -20q-120 0 -225.5 63t-168.5 169.5t-63 227.5t63 227.5t168.5 170t225.5 63.5t225.5 -63.5t168.5 -170t63 -227.5t-63 -227.5t-168.5 -169.5t-225.5 -63z
" />
    <glyph glyph-name="p" unicode="p" horiz-adv-x="1157" 
d="M160 -430v1311h55q83 0 113 12v-213q40 99 123.5 160t195.5 61q108 0 204.5 -62.5t155 -169.5t58.5 -229q0 -123 -58.5 -229.5t-155 -168.5t-204.5 -62q-112 0 -195.5 61t-123.5 160v-631h-168zM604 123q122 0 205.5 89.5t83.5 227.5t-83.5 228t-205.5 90
q-109 0 -195.5 -91.5t-86.5 -226.5t86.5 -226t195.5 -91z" />
    <glyph glyph-name="q" unicode="q" horiz-adv-x="1157" 
d="M829 -430v631q-40 -99 -123.5 -160t-195.5 -61q-108 0 -204.5 62t-155 168.5t-58.5 229.5q0 122 58.5 229t155 169.5t204.5 62.5q112 0 195.5 -61t123.5 -160v201h56q82 0 112 12v-1323h-168zM553 123q109 0 196 91.5t87 225.5q0 135 -87 226.5t-196 91.5
q-122 0 -205.5 -90t-83.5 -228t83.5 -227.5t205.5 -89.5z" />
    <glyph glyph-name="r" unicode="r" horiz-adv-x="825" 
d="M160 0v881h55q83 0 113 12v-199q34 103 103.5 155t164.5 52q165 0 227 -164l-135 -90q-31 60 -62 85.5t-83 25.5q-95 0 -155 -75t-60 -208v-475h-168z" />
    <glyph glyph-name="s" unicode="s" horiz-adv-x="888" 
d="M416 -20q-116 0 -208.5 37t-133.5 100l96 106q95 -110 264 -110q98 0 153.5 32.5t55.5 94.5q0 46 -36.5 75.5t-123.5 46.5l-145 25q-112 19 -169.5 83.5t-57.5 150.5q0 121 105 200.5t255 79.5q103 0 187.5 -39t127.5 -106l-96 -107q-36 55 -98.5 87t-140.5 32
q-81 0 -130 -33.5t-49 -97.5q0 -53 36.5 -81.5t125.5 -45.5l129 -23q120 -23 181 -82.5t61 -146.5q0 -125 -111 -201.5t-278 -76.5z" />
    <glyph glyph-name="t" unicode="t" horiz-adv-x="763" 
d="M512 -20q-147 0 -232 96t-85 258v416h-172v114h22q104 0 142 45.5t38 139.5v110h25q82 0 112 12v-290h347v-131h-347v-439q0 -98 41.5 -145t108.5 -47q99 0 158 86l114 -78q-36 -71 -107.5 -109t-164.5 -38z" />
    <glyph glyph-name="u" unicode="u" horiz-adv-x="1107" 
d="M459 -20q-143 0 -222 83.5t-79 237.5v580h55q83 0 113 12v-567q0 -107 43 -153t137 -46q125 0 199.5 75.5t74.5 209.5v469h56q82 0 112 12v-893h-168v180q-41 -97 -125 -148.5t-196 -51.5z" />
    <glyph glyph-name="v" unicode="v" horiz-adv-x="958" 
d="M403 0l-368 881h172l278 -695l285 695h154l-369 -881h-152z" />
    <glyph glyph-name="w" unicode="w" horiz-adv-x="1513" 
d="M371 0l-336 881h170l250 -697l252 701h120l244 -705l256 701h152l-334 -881h-158l-229 655l-236 -655h-151z" />
    <glyph glyph-name="x" unicode="x" horiz-adv-x="1024" 
d="M39 0l381 449l-359 432h191l262 -322l264 322h185l-361 -426l383 -455h-190l-287 344l-283 -344h-186z" />
    <glyph glyph-name="y" unicode="y" horiz-adv-x="958" 
d="M209 -430l188 444l-362 867h172l278 -695l285 695h154l-547 -1311h-168z" />
    <glyph glyph-name="z" unicode="z" horiz-adv-x="960" 
d="M90 0v106l547 646h-524v129h737v-107l-547 -645h567v-129h-780z" />
    <glyph glyph-name="braceleft" unicode="{" horiz-adv-x="708" 
d="M684 -330l-10 -121q-408 0 -408 281q0 85 43 203q39 107 39 178q0 95 -67 146t-195 51v106q128 0 195 51t67 146q0 71 -39 178q-43 118 -43 203q0 280 408 280l10 -121q-137 0 -199.5 -42t-62.5 -130q0 -53 35 -164q41 -112 41 -196q0 -99 -57.5 -165.5t-172.5 -92.5
q115 -26 172.5 -92.5t57.5 -165.5q0 -85 -41 -197q-35 -111 -35 -164q0 -88 62.5 -130t199.5 -42z" />
    <glyph glyph-name="bar" unicode="|" horiz-adv-x="618" 
d="M236 -430v1782h147v-1782h-147z" />
    <glyph glyph-name="braceright" unicode="}" horiz-adv-x="708" 
d="M35 -451l-10 121q137 0 199.5 42t62.5 130q0 53 -35 164q-41 112 -41 197q0 99 56.5 165.5t170.5 92.5q-114 26 -170.5 92.5t-56.5 165.5q0 84 41 196q35 111 35 164q0 88 -62.5 130t-199.5 42l10 121q407 0 407 -280q0 -85 -43 -203q-39 -107 -39 -178
q0 -94 67.5 -145.5t195.5 -51.5v-106q-128 0 -195.5 -51.5t-67.5 -145.5q0 -71 39 -178q43 -118 43 -203q0 -281 -407 -281z" />
    <glyph glyph-name="asciitilde" unicode="~" horiz-adv-x="1228" 
d="M293 287h-135q18 121 87.5 194.5t176.5 73.5q88 0 186 -41q6 -2 34 -12.5t35.5 -13.5t29.5 -10t33 -9.5t27 -5t30 -2.5q110 0 139 133h135q-18 -121 -87.5 -194.5t-176.5 -73.5q-88 0 -186 41q-6 2 -34 12.5t-35.5 13.5t-29.5 10t-33 9.5t-27 5t-30 2.5q-110 0 -139 -133
z" />
    <glyph glyph-name="uni00A0" unicode="&#xa0;" horiz-adv-x="438" 
 />
    <glyph glyph-name="exclamdown" unicode="&#xa1;" horiz-adv-x="536" 
d="M166 -430l57 962h90l58 -962h-205zM268 672q-49 0 -81.5 32t-32.5 80t32.5 80.5t81.5 32.5t82 -32.5t33 -80.5q0 -47 -33 -79.5t-82 -32.5z" />
    <glyph glyph-name="cent" unicode="&#xa2;" horiz-adv-x="1056" 
d="M489 0v225q-160 33 -265 158t-105 289q0 163 103 290.5t267 163.5v226h148v-217q107 -11 190.5 -70t130.5 -162l-127 -88q-79 174 -245 174q-126 0 -205.5 -91t-79.5 -228q0 -133 79.5 -220.5t207.5 -87.5q177 0 252 170l125 -90q-43 -91 -129 -152t-199 -73v-217h-148z
" />
    <glyph glyph-name="sterling" unicode="&#xa3;" horiz-adv-x="1148" 
d="M104 598v137h197v150q0 219 126 353t329 134q130 0 227.5 -55.5t146.5 -159.5l-129 -108q-84 176 -251 176q-128 0 -200.5 -84t-72.5 -228v-178h447v-137h-447v-461h608v-137h-981v137h197v461h-197z" />
    <glyph glyph-name="currency" unicode="&#xa4;" horiz-adv-x="1228" 
d="M178 92l-112 94l188 207q-98 124 -98 283q0 158 98 282l-188 207l112 95l184 -203q116 76 252 76q134 0 250 -76l187 203l112 -95l-190 -207q100 -127 100 -282q0 -156 -100 -283l190 -207l-112 -94l-187 201q-113 -74 -250 -74q-139 0 -252 74zM614 367q117 0 197 90
t80 219t-80 219t-197 90t-196.5 -90t-79.5 -219t79.5 -219t196.5 -90z" />
    <glyph glyph-name="yen" unicode="&#xa5;" horiz-adv-x="1165" 
d="M170 487v129h279l-402 736h195l344 -676l346 676h188l-403 -736h280v-129h-325v-168h325v-129h-325v-190h-176v190h-326v129h326v168h-326z" />
    <glyph glyph-name="brokenbar" unicode="&#xa6;" horiz-adv-x="618" 
d="M236 -430v764h147v-764h-147zM236 588v764h147v-764h-147z" />
    <glyph glyph-name="section" unicode="&#xa7;" horiz-adv-x="1120" 
d="M428 -451q-122 0 -216 36t-142 100l98 116q85 -110 223 -110q110 0 172 64t62 175q0 55 -14.5 105t-47 101.5t-61 87.5t-80.5 95q-115 136 -160 206q-115 177 -115 356q0 219 151.5 355t393.5 136q122 0 216.5 -36t142.5 -99l-99 -117q-85 111 -223 111
q-109 0 -171 -64.5t-62 -175.5q0 -72 30.5 -143.5t66.5 -119t105 -126.5q115 -136 159 -203q116 -178 116 -358q0 -219 -151.5 -355.5t-393.5 -136.5zM657 -293l7 -6q84 38 133 122t49 202q0 58 -14.5 115t-33.5 100t-55.5 97t-62 86t-72.5 87q-6 7 -17 20q-48 56 -71.5 85
t-58 79t-50.5 88t-29 90t-13 107q0 154 94 235l-6 7q-84 -38 -133.5 -122t-49.5 -202q0 -72 18.5 -138.5t55 -128.5t73.5 -110t91 -108q112 -133 147 -185q93 -137 93 -284q0 -154 -95 -236z" />
    <glyph glyph-name="dieresis" unicode="&#xa8;" horiz-adv-x="1024" 
d="M315 1047q-41 0 -68.5 26.5t-27.5 67.5t27.5 67.5t68.5 26.5q42 0 69.5 -26.5t27.5 -67.5t-27.5 -67.5t-69.5 -26.5zM709 1047q-42 0 -69.5 26.5t-27.5 67.5t27.5 67.5t69.5 26.5q41 0 68.5 -26.5t27.5 -67.5t-27.5 -67.5t-68.5 -26.5z" />
    <glyph glyph-name="copyright" unicode="&#xa9;" horiz-adv-x="1970" 
d="M999 209q-198 0 -329 134.5t-131 332.5t131 332.5t329 134.5q129 0 224.5 -63.5t138.5 -174.5l-125 -67q-70 176 -246 176q-129 0 -209 -95t-80 -243t80 -243t209 -95q176 0 246 176l125 -68q-43 -111 -138.5 -174t-224.5 -63zM985 -63q211 0 386 97.5t275.5 267
t100.5 374.5q0 153 -59.5 290t-160.5 235.5t-242.5 156t-299.5 57.5t-299.5 -57.5t-242.5 -156t-160.5 -235.5t-59.5 -290q0 -205 100.5 -374.5t275.5 -267t386 -97.5zM985 -158q-178 0 -338.5 65t-276 176t-183.5 266t-68 327t68 326.5t183.5 265.5t276 176t338.5 65
t338.5 -65t276 -176t183.5 -265.5t68 -326.5t-68 -327t-183.5 -266t-276 -176t-338.5 -65z" />
    <glyph glyph-name="ordfeminine" unicode="&#xaa;" horiz-adv-x="802" 
d="M297 621q-108 0 -169.5 52.5t-61.5 143.5q0 36 11 65t27.5 49t45 36t52.5 25t62 17t62 11.5t63 7.5q39 5 54 7.5t39 7.5t31.5 10.5t18 15.5t13 23.5t2.5 33.5q0 129 -152 129q-140 0 -188 -98l-103 64q39 73 119 112t195 39q272 0 272 -252v-489h-141v135
q-32 -71 -97.5 -108t-154.5 -37zM82 371v131h608v-131h-608zM342 723q92 0 148.5 57.5t56.5 149.5v69q-17 -23 -40.5 -33.5t-96.5 -21.5q-40 -6 -62 -10t-51.5 -13t-44.5 -20.5t-26 -30.5t-11 -45q0 -49 33.5 -75.5t93.5 -26.5z" />
    <glyph glyph-name="guillemotleft" unicode="&#xab;" horiz-adv-x="866" 
d="M336 78l-254 377l254 376l108 -49l-202 -327l202 -328zM676 78l-254 377l254 376l108 -49l-202 -327l202 -328z" />
    <glyph glyph-name="logicalnot" unicode="&#xac;" horiz-adv-x="1228" 
d="M889 0v375h-725v131h872v-506h-147z" />
    <glyph glyph-name="uni00AD" unicode="&#xad;" horiz-adv-x="831" 
d="M164 434v137h504v-137h-504z" />
    <glyph glyph-name="registered" unicode="&#xae;" horiz-adv-x="1261" 
d="M631 506q-122 0 -229.5 42.5t-184 116t-120.5 177t-44 221.5t44 221.5t120.5 177t184 116t229.5 42.5q163 0 295 -72t207 -200t75 -285t-75 -285t-207 -200t-295 -72zM631 600q209 0 341 129.5t132 333.5t-132 333.5t-341 129.5t-341 -129.5t-132 -333.5t132 -333.5
t341 -129.5zM401 774v578h244q240 0 240 -156q0 -123 -144 -141v-4q74 -4 100.5 -37t26.5 -103v-41q0 -69 27 -96h-131q-23 26 -23 90v39q-2 63 -16.5 85t-58.5 22h-140v-236h-125zM641 1262h-115v-168h117q111 0 111 90q0 42 -26 60t-87 18z" />
    <glyph glyph-name="overscore" unicode="&#xaf;" horiz-adv-x="1024" 
d="M217 1071v115h590v-115h-590z" />
    <glyph glyph-name="degree" unicode="&#xb0;" horiz-adv-x="851" 
d="M426 705q-142 0 -243 96.5t-101 236.5t101 237t243 97t243 -97t101 -237t-101 -236.5t-243 -96.5zM426 817q93 0 156 63t63 158t-63 158.5t-156 63.5t-156 -63.5t-63 -158.5t63 -158t156 -63z" />
    <glyph glyph-name="plusminus" unicode="&#xb1;" horiz-adv-x="1228" 
d="M176 717v131h365v375h147v-375h365v-131h-365v-375h-147v375h-365zM176 0v131h877v-131h-877z" />
    <glyph glyph-name="twosuperior" unicode="&#xb2;" horiz-adv-x="798" 
d="M88 608v109q447 206 447 401q0 59 -39 90t-109 31q-76 0 -129.5 -36t-77.5 -99l-119 55q30 95 120.5 150t209.5 55q132 0 214.5 -68.5t82.5 -173.5q0 -220 -393 -395h399v-119h-606z" />
    <glyph glyph-name="threesuperior" unicode="&#xb3;" horiz-adv-x="798" 
d="M391 596q-121 0 -208 50.5t-117 133.5l114 68q55 -129 213 -129q75 0 120.5 30.5t45.5 81.5q0 60 -61.5 94.5t-171.5 35.5l-39 59l221 213h-406v119h578v-109l-207 -201q113 -18 176.5 -72t63.5 -139q0 -103 -90.5 -169t-231.5 -66z" />
    <glyph glyph-name="acute" unicode="&#xb4;" horiz-adv-x="1024" 
d="M309 995l285 351l121 -105l-305 -246h-101z" />
    <glyph glyph-name="mu" unicode="&#xb5;" horiz-adv-x="1228" 
d="M219 -430v1311h55q83 0 113 12v-567q0 -107 43 -153t137 -46q125 0 200 75.5t75 209.5v469h55q83 0 113 12v-893h-168v180q-40 -96 -125.5 -148t-192.5 -52q-91 0 -137 30v-440h-168z" />
    <glyph glyph-name="paragraph" unicode="&#xb6;" horiz-adv-x="1277" 
d="M954 -430v1647h-366v-738q-216 0 -355 120.5t-139 315.5t139 316t355 121h514v-1782h-148z" />
    <glyph glyph-name="middot" unicode="&#xb7;" horiz-adv-x="524" 
d="M262 383q-49 0 -82 32.5t-33 80.5q0 47 33 79.5t82 32.5t82 -32.5t33 -79.5q0 -48 -33 -80.5t-82 -32.5z" />
    <glyph glyph-name="cedilla" unicode="&#xb8;" horiz-adv-x="1024" 
d="M473 -451q-71 0 -132 28.5t-91 78.5l74 61q52 -73 137 -73q48 0 77 23t29 65q0 97 -149 121l59 147h86l-37 -96q78 -17 121 -62.5t43 -111.5q0 -80 -59.5 -130.5t-157.5 -50.5z" />
    <glyph glyph-name="onesuperior" unicode="&#xb9;" horiz-adv-x="798" 
d="M117 608v121h264v434q-49 -52 -104 -83.5t-150 -65.5l-41 121q110 40 187.5 91t148.5 126h106v-623h224v-121h-635z" />
    <glyph glyph-name="ordmasculine" unicode="&#xba;" horiz-adv-x="897" 
d="M82 371v131h733v-131h-733zM449 741q98 0 163.5 73.5t65.5 180.5q0 105 -66 178.5t-163 73.5q-98 0 -164 -73.5t-66 -178.5q0 -106 66 -180t164 -74zM449 616q-157 0 -269 112t-112 267q0 154 112.5 265.5t268.5 111.5t268 -111.5t112 -265.5q0 -155 -111.5 -267
t-268.5 -112z" />
    <glyph glyph-name="guillemotright" unicode="&#xbb;" horiz-adv-x="866" 
d="M190 78l-108 49l203 328l-203 327l108 49l254 -376zM530 78l-108 49l203 328l-203 327l108 49l254 -376z" />
    <glyph glyph-name="onequarter" unicode="&#xbc;" horiz-adv-x="1949" 
d="M117 608v121h264v434q-49 -52 -104 -83.5t-150 -65.5l-41 121q110 40 187.5 91t148.5 126h106v-623h224v-121h-635zM311 0l1149 1352h178l-1149 -1352h-178zM1622 0v166h-436v94l444 483h139v-460h136v-117h-136v-166h-147zM1346 283h276v301z" />
    <glyph glyph-name="onehalf" unicode="&#xbd;" horiz-adv-x="1949" 
d="M117 608v121h264v434q-49 -52 -104 -83.5t-150 -65.5l-41 121q110 40 187.5 91t148.5 126h106v-623h224v-121h-635zM311 0l1149 1352h178l-1149 -1352h-178zM1239 0v109q447 206 447 401q0 59 -39 90t-109 31q-76 0 -129.5 -36t-77.5 -99l-119 55q30 95 120.5 150
t209.5 55q132 0 214.5 -68.5t82.5 -173.5q0 -219 -393 -395h399v-119h-606z" />
    <glyph glyph-name="threequarters" unicode="&#xbe;" horiz-adv-x="1949" 
d="M391 596q-121 0 -208 50.5t-117 133.5l114 68q55 -129 213 -129q75 0 120.5 30.5t45.5 81.5q0 60 -61.5 94.5t-171.5 35.5l-39 59l221 213h-406v119h578v-109l-207 -201q113 -18 176.5 -72t63.5 -139q0 -103 -90.5 -169t-231.5 -66zM311 0l1149 1352h178l-1149 -1352
h-178zM1622 0v166h-436v94l444 483h139v-460h136v-117h-136v-166h-147zM1346 283h276v301z" />
    <glyph glyph-name="questiondown" unicode="&#xbf;" horiz-adv-x="843" 
d="M791 -289l-37 -162q-317 0 -492.5 97.5t-175.5 271.5q0 122 91 215.5t265 153.5l15 245h90l18 -323q-286 -89 -286 -256q0 -118 130 -180t382 -62zM502 672q-49 0 -82 32.5t-33 79.5q0 48 33 80.5t82 32.5t81.5 -32.5t32.5 -80.5t-32.5 -80t-81.5 -32z" />
    <glyph glyph-name="Agrave" unicode="&#xc0;" horiz-adv-x="1228" 
d="M20 0l502 1352h185l501 -1352h-198l-113 315h-575l-111 -315h-191zM610 1143l-245 -688h489zM563 1446l-305 246l121 104l285 -350h-101z" />
    <glyph glyph-name="Aacute" unicode="&#xc1;" horiz-adv-x="1228" 
d="M20 0l502 1352h185l501 -1352h-198l-113 315h-575l-111 -315h-191zM610 1143l-245 -688h489zM565 1446l285 350l121 -104l-305 -246h-101z" />
    <glyph glyph-name="Acircumflex" unicode="&#xc2;" horiz-adv-x="1228" 
d="M20 0l502 1352h185l501 -1352h-198l-113 315h-575l-111 -315h-191zM610 1143l-245 -688h489zM285 1446l264 336h131l264 -336h-100l-230 203l-229 -203h-100z" />
    <glyph glyph-name="Atilde" unicode="&#xc3;" horiz-adv-x="1228" 
d="M20 0l502 1352h185l501 -1352h-198l-113 315h-575l-111 -315h-191zM610 1143l-245 -688h489zM362 1446h-92q23 128 81 196t143 68q53 0 120 -33q79 -37 123 -37q54 0 84.5 35.5t44.5 106.5h92q-23 -129 -80.5 -196.5t-142.5 -67.5q-56 0 -121 32q-79 37 -122 37
q-54 0 -85 -35t-45 -106z" />
    <glyph glyph-name="Adieresis" unicode="&#xc4;" horiz-adv-x="1228" 
d="M20 0l502 1352h185l501 -1352h-198l-113 315h-575l-111 -315h-191zM610 1143l-245 -688h489zM418 1497q-41 0 -68.5 26.5t-27.5 67.5t27.5 68t68.5 27t68.5 -27t27.5 -68t-27.5 -67.5t-68.5 -26.5zM811 1497q-41 0 -68.5 26.5t-27.5 67.5t27.5 68t68.5 27t68.5 -27
t27.5 -68t-27.5 -67.5t-68.5 -26.5z" />
    <glyph glyph-name="Aring" unicode="&#xc5;" horiz-adv-x="1228" 
d="M20 0l502 1352h185l501 -1352h-198l-113 315h-575l-111 -315h-191zM610 1143l-245 -688h489zM614 1436q-92 0 -151.5 56t-59.5 142t59.5 142.5t151.5 56.5t151.5 -56.5t59.5 -142.5t-59.5 -142t-151.5 -56zM614 1526q47 0 78 30.5t31 77.5t-31 78t-78 31t-77.5 -31
t-30.5 -78t30.5 -77.5t77.5 -30.5z" />
    <glyph glyph-name="AE" unicode="&#xc6;" horiz-adv-x="1712" 
d="M793 0v315h-471l-111 -315h-191l502 1352h1077v-146h-622v-438h569v-145h-569v-478h622v-145h-806zM643 1206l-276 -751h426v751h-150z" />
    <glyph glyph-name="Ccedilla" unicode="&#xc7;" horiz-adv-x="1333" 
d="M647 -451q-71 0 -132 28.5t-91 78.5l74 61q52 -73 137 -73q48 0 77 23t29 65q0 97 -149 121l55 135q-156 24 -279 122.5t-191 246.5t-68 319q0 188 80.5 347t227.5 254t328 95q174 0 307.5 -87t198.5 -249l-149 -88q-53 133 -148 199.5t-221 66.5q-195 0 -313.5 -149.5
t-118.5 -388.5q0 -240 118.5 -389.5t313.5 -149.5q126 0 221 66.5t148 199.5l149 -88q-65 -162 -198.5 -248.5t-307.5 -86.5h-16l-29 -76q78 -17 121 -62.5t43 -111.5q0 -80 -59.5 -130.5t-157.5 -50.5z" />
    <glyph glyph-name="Egrave" unicode="&#xc8;" horiz-adv-x="1097" 
d="M178 0v1352h807v-146h-623v-438h570v-145h-570v-478h623v-145h-807zM522 1446l-305 246l121 104l285 -350h-101z" />
    <glyph glyph-name="Eacute" unicode="&#xc9;" horiz-adv-x="1097" 
d="M178 0v1352h807v-146h-623v-438h570v-145h-570v-478h623v-145h-807zM524 1446l285 350l121 -104l-305 -246h-101z" />
    <glyph glyph-name="Ecircumflex" unicode="&#xca;" horiz-adv-x="1097" 
d="M178 0v1352h807v-146h-623v-438h570v-145h-570v-478h623v-145h-807zM244 1446l264 336h131l264 -336h-100l-230 203l-229 -203h-100z" />
    <glyph glyph-name="Edieresis" unicode="&#xcb;" horiz-adv-x="1097" 
d="M178 0v1352h807v-146h-623v-438h570v-145h-570v-478h623v-145h-807zM377 1497q-41 0 -68.5 26.5t-27.5 67.5t27.5 68t68.5 27t68.5 -27t27.5 -68t-27.5 -67.5t-68.5 -26.5zM770 1497q-41 0 -68.5 26.5t-27.5 67.5t27.5 68t68.5 27t68.5 -27t27.5 -68t-27.5 -67.5
t-68.5 -26.5z" />
    <glyph glyph-name="Igrave" unicode="&#xcc;" horiz-adv-x="540" 
d="M178 0v1352h184v-1352h-184zM227 1446l-188 280l137 74l137 -354h-86z" />
    <glyph glyph-name="Iacute" unicode="&#xcd;" horiz-adv-x="540" 
d="M178 0v1352h184v-1352h-184zM227 1446l138 354l137 -74l-189 -280h-86z" />
    <glyph glyph-name="Icircumflex" unicode="&#xce;" horiz-adv-x="540" 
d="M178 0v1352h184v-1352h-184zM39 1446l160 336h143l160 -336h-92l-140 211l-139 -211h-92z" />
    <glyph glyph-name="Idieresis" unicode="&#xcf;" horiz-adv-x="540" 
d="M178 0v1352h184v-1352h-184zM133 1497q-41 0 -68.5 26.5t-27.5 67.5t27.5 68t68.5 27t68.5 -27t27.5 -68t-27.5 -67.5t-68.5 -26.5zM408 1497q-42 0 -69.5 26.5t-27.5 67.5t28 68t69 27t68.5 -27t27.5 -68t-27.5 -67.5t-68.5 -26.5z" />
    <glyph glyph-name="Eth" unicode="&#xd0;" horiz-adv-x="1409" 
d="M57 614v134h131v604h447q201 0 352.5 -86t232 -239t80.5 -351t-80.5 -351t-232 -239t-352.5 -86h-447v614h-131zM627 1208h-254v-460h309v-134h-309v-471h254q232 0 356.5 141t124.5 392q0 250 -124.5 391t-356.5 141z" />
    <glyph glyph-name="Ntilde" unicode="&#xd1;" horiz-adv-x="1368" 
d="M178 0v1352h172l670 -1051v1051h170v-1352h-172l-670 1051v-1051h-170zM426 1446h-92q23 129 80.5 196.5t142.5 67.5q54 0 121 -33q79 -37 123 -37q54 0 84.5 35.5t44.5 106.5h92q-23 -129 -80.5 -196.5t-142.5 -67.5q-56 0 -121 32q-79 37 -123 37q-54 0 -84.5 -35
t-44.5 -106z" />
    <glyph glyph-name="Ograve" unicode="&#xd2;" horiz-adv-x="1458" 
d="M729 -20q-129 0 -245 56t-197.5 150t-129.5 222t-48 268q0 139 48 266.5t129.5 222t197.5 151t245 56.5q172 0 315.5 -95.5t224.5 -255t81 -345.5q0 -188 -81 -347.5t-224.5 -254t-315.5 -94.5zM729 137q189 0 308.5 150.5t119.5 388.5t-119.5 388t-308.5 150
t-308.5 -150t-119.5 -388t119.5 -388.5t308.5 -150.5zM678 1446l-305 246l121 104l284 -350h-100z" />
    <glyph glyph-name="Oacute" unicode="&#xd3;" horiz-adv-x="1458" 
d="M729 -20q-129 0 -245 56t-197.5 150t-129.5 222t-48 268q0 139 48 266.5t129.5 222t197.5 151t245 56.5q172 0 315.5 -95.5t224.5 -255t81 -345.5q0 -188 -81 -347.5t-224.5 -254t-315.5 -94.5zM729 137q189 0 308.5 150.5t119.5 388.5t-119.5 388t-308.5 150
t-308.5 -150t-119.5 -388t119.5 -388.5t308.5 -150.5zM680 1446l285 350l120 -104l-305 -246h-100z" />
    <glyph glyph-name="Ocircumflex" unicode="&#xd4;" horiz-adv-x="1458" 
d="M729 -20q-129 0 -245 56t-197.5 150t-129.5 222t-48 268q0 139 48 266.5t129.5 222t197.5 151t245 56.5q172 0 315.5 -95.5t224.5 -255t81 -345.5q0 -188 -81 -347.5t-224.5 -254t-315.5 -94.5zM729 137q189 0 308.5 150.5t119.5 388.5t-119.5 388t-308.5 150
t-308.5 -150t-119.5 -388t119.5 -388.5t308.5 -150.5zM399 1446l265 336h131l264 -336h-101l-229 203l-229 -203h-101z" />
    <glyph glyph-name="Otilde" unicode="&#xd5;" horiz-adv-x="1458" 
d="M729 -20q-129 0 -245 56t-197.5 150t-129.5 222t-48 268q0 139 48 266.5t129.5 222t197.5 151t245 56.5q172 0 315.5 -95.5t224.5 -255t81 -345.5q0 -188 -81 -347.5t-224.5 -254t-315.5 -94.5zM729 137q189 0 308.5 150.5t119.5 388.5t-119.5 388t-308.5 150
t-308.5 -150t-119.5 -388t119.5 -388.5t308.5 -150.5zM477 1446h-92q23 129 80.5 196.5t142.5 67.5q54 0 121 -33q79 -37 123 -37q54 0 84.5 35.5t44.5 106.5h92q-23 -129 -80.5 -196.5t-142.5 -67.5q-56 0 -121 32q-79 37 -123 37q-54 0 -84.5 -35t-44.5 -106z" />
    <glyph glyph-name="Odieresis" unicode="&#xd6;" horiz-adv-x="1458" 
d="M729 -20q-129 0 -245 56t-197.5 150t-129.5 222t-48 268q0 139 48 266.5t129.5 222t197.5 151t245 56.5q172 0 315.5 -95.5t224.5 -255t81 -345.5q0 -188 -81 -347.5t-224.5 -254t-315.5 -94.5zM729 137q189 0 308.5 150.5t119.5 388.5t-119.5 388t-308.5 150
t-308.5 -150t-119.5 -388t119.5 -388.5t308.5 -150.5zM532 1497q-41 0 -68.5 26.5t-27.5 67.5t27.5 68t68.5 27t69 -27t28 -68t-27.5 -67.5t-69.5 -26.5zM926 1497q-42 0 -69.5 26.5t-27.5 67.5t28 68t69 27t68.5 -27t27.5 -68t-27.5 -67.5t-68.5 -26.5z" />
    <glyph glyph-name="multiply" unicode="&#xd7;" horiz-adv-x="1228" 
d="M246 -20l-92 92l368 368l-368 369l92 92l368 -369l369 369l92 -92l-368 -369l368 -368l-92 -92l-369 368z" />
    <glyph glyph-name="Oslash" unicode="&#xd8;" horiz-adv-x="1458" 
d="M211 -86l-117 92l168 209q-153 199 -153 461q0 139 48 266.5t129.5 222t197.5 151t245 56.5q204 0 361 -129l157 195l117 -92l-168 -211q73 -94 113.5 -212t40.5 -247q0 -188 -81 -347.5t-224.5 -254t-315.5 -94.5q-203 0 -360 126zM301 676q0 -193 78 -328l612 764
q-108 102 -262 102q-189 0 -308.5 -150t-119.5 -388zM729 137q189 0 308.5 150.5t119.5 388.5q0 185 -78 325l-614 -763q115 -101 264 -101z" />
    <glyph glyph-name="Ugrave" unicode="&#xd9;" horiz-adv-x="1380" 
d="M690 -20q-243 0 -379.5 138t-136.5 390v844h184v-850q0 -176 86.5 -270.5t245.5 -94.5q157 0 244.5 94t87.5 271v850h184v-844q0 -252 -136.5 -390t-379.5 -138zM639 1446l-305 246l121 104l284 -350h-100z" />
    <glyph glyph-name="Uacute" unicode="&#xda;" horiz-adv-x="1380" 
d="M690 -20q-243 0 -379.5 138t-136.5 390v844h184v-850q0 -176 86.5 -270.5t245.5 -94.5q157 0 244.5 94t87.5 271v850h184v-844q0 -252 -136.5 -390t-379.5 -138zM641 1446l285 350l121 -104l-306 -246h-100z" />
    <glyph glyph-name="Ucircumflex" unicode="&#xdb;" horiz-adv-x="1380" 
d="M690 -20q-243 0 -379.5 138t-136.5 390v844h184v-850q0 -176 86.5 -270.5t245.5 -94.5q157 0 244.5 94t87.5 271v850h184v-844q0 -252 -136.5 -390t-379.5 -138zM360 1446l265 336h131l264 -336h-100l-230 203l-229 -203h-101z" />
    <glyph glyph-name="Udieresis" unicode="&#xdc;" horiz-adv-x="1380" 
d="M690 -20q-243 0 -379.5 138t-136.5 390v844h184v-850q0 -176 86.5 -270.5t245.5 -94.5q157 0 244.5 94t87.5 271v850h184v-844q0 -252 -136.5 -390t-379.5 -138zM494 1497q-42 0 -69.5 26.5t-27.5 67.5t28 68t69 27t68.5 -27t27.5 -68t-27.5 -67.5t-68.5 -26.5zM887 1497
q-41 0 -68.5 26.5t-27.5 67.5t27.5 68t68.5 27t68.5 -27t27.5 -68t-27.5 -67.5t-68.5 -26.5z" />
    <glyph glyph-name="Yacute" unicode="&#xdd;" horiz-adv-x="1105" 
d="M461 0v520l-455 832h199l350 -676l352 676h193l-455 -832v-520h-184zM508 1446l285 350l120 -104l-305 -246h-100z" />
    <glyph glyph-name="Thorn" unicode="&#xde;" horiz-adv-x="1167" 
d="M178 0v1352h184v-238h146q263 0 410 -106t147 -295t-147.5 -295.5t-409.5 -106.5h-146v-311h-184zM516 971h-154v-516h154q181 0 268.5 62.5t87.5 195.5t-87.5 195.5t-268.5 62.5z" />
    <glyph glyph-name="germandbls" unicode="&#xdf;" horiz-adv-x="1196" 
d="M25 750v131h172v49q0 200 103.5 321t279.5 121q155 0 253.5 -94t98.5 -244q0 -105 -51.5 -208t-143.5 -181q198 -41 299 -129t101 -217q0 -133 -99 -226t-254 -93q-94 0 -178.5 35t-128.5 94l96 106q87 -102 213 -102q87 0 139 47t52 123q0 102 -97.5 168t-291.5 102v102
q86 74 135 170.5t49 194.5q0 100 -53 160.5t-148 60.5q-99 0 -152.5 -69t-53.5 -197v-975h-168v750h-172z" />
    <glyph glyph-name="agrave" unicode="&#xe0;" horiz-adv-x="993" 
d="M375 -20q-135 0 -210 61.5t-75 177.5q0 48 14.5 86.5t44 64.5t62 44.5t80.5 31t87 19.5t93 14q38 4 56.5 6.5t44.5 7.5t37.5 10t25.5 14t19.5 21t9.5 29t4 39q0 80 -45 119t-142 39q-175 0 -233 -123l-117 70q42 91 140.5 140.5t230.5 49.5q162 0 248 -81.5t86 -244.5
v-575h-164v152q-70 -172 -297 -172zM412 102q113 0 185.5 67t72.5 200v77q-21 -38 -56 -50.5t-122 -24.5q-118 -16 -155 -30q-82 -32 -83 -112q0 -127 158 -127zM451 995l-306 246l121 105l285 -351h-100z" />
    <glyph glyph-name="aacute" unicode="&#xe1;" horiz-adv-x="993" 
d="M375 -20q-135 0 -210 61.5t-75 177.5q0 48 14.5 86.5t44 64.5t62 44.5t80.5 31t87 19.5t93 14q38 4 56.5 6.5t44.5 7.5t37.5 10t25.5 14t19.5 21t9.5 29t4 39q0 80 -45 119t-142 39q-175 0 -233 -123l-117 70q42 91 140.5 140.5t230.5 49.5q162 0 248 -81.5t86 -244.5
v-575h-164v152q-70 -172 -297 -172zM412 102q113 0 185.5 67t72.5 200v77q-21 -38 -56 -50.5t-122 -24.5q-118 -16 -155 -30q-82 -32 -83 -112q0 -127 158 -127zM451 995l284 351l121 -105l-305 -246h-100z" />
    <glyph glyph-name="acircumflex" unicode="&#xe2;" horiz-adv-x="993" 
d="M375 -20q-135 0 -210 61.5t-75 177.5q0 48 14.5 86.5t44 64.5t62 44.5t80.5 31t87 19.5t93 14q38 4 56.5 6.5t44.5 7.5t37.5 10t25.5 14t19.5 21t9.5 29t4 39q0 80 -45 119t-142 39q-175 0 -233 -123l-117 70q42 91 140.5 140.5t230.5 49.5q162 0 248 -81.5t86 -244.5
v-575h-164v152q-70 -172 -297 -172zM412 102q113 0 185.5 67t72.5 200v77q-21 -38 -56 -50.5t-122 -24.5q-118 -16 -155 -30q-82 -32 -83 -112q0 -127 158 -127zM172 995l264 336h131l264 -336h-100l-229 203l-230 -203h-100z" />
    <glyph glyph-name="atilde" unicode="&#xe3;" horiz-adv-x="993" 
d="M375 -20q-135 0 -210 61.5t-75 177.5q0 48 14.5 86.5t44 64.5t62 44.5t80.5 31t87 19.5t93 14q38 4 56.5 6.5t44.5 7.5t37.5 10t25.5 14t19.5 21t9.5 29t4 39q0 80 -45 119t-142 39q-175 0 -233 -123l-117 70q42 91 140.5 140.5t230.5 49.5q162 0 248 -81.5t86 -244.5
v-575h-164v152q-70 -172 -297 -172zM412 102q113 0 185.5 67t72.5 200v77q-21 -38 -56 -50.5t-122 -24.5q-118 -16 -155 -30q-82 -32 -83 -112q0 -127 158 -127zM250 995h-92q23 129 80.5 197t142.5 68q54 0 121 -33q79 -37 123 -37q54 0 84.5 35t44.5 106h92
q-23 -129 -80.5 -196.5t-142.5 -67.5q-54 0 -121 33q-79 37 -123 37q-54 0 -84.5 -35.5t-44.5 -106.5z" />
    <glyph glyph-name="adieresis" unicode="&#xe4;" horiz-adv-x="993" 
d="M375 -20q-135 0 -210 61.5t-75 177.5q0 48 14.5 86.5t44 64.5t62 44.5t80.5 31t87 19.5t93 14q38 4 56.5 6.5t44.5 7.5t37.5 10t25.5 14t19.5 21t9.5 29t4 39q0 80 -45 119t-142 39q-175 0 -233 -123l-117 70q42 91 140.5 140.5t230.5 49.5q162 0 248 -81.5t86 -244.5
v-575h-164v152q-70 -172 -297 -172zM412 102q113 0 185.5 67t72.5 200v77q-21 -38 -56 -50.5t-122 -24.5q-118 -16 -155 -30q-82 -32 -83 -112q0 -127 158 -127zM305 1047q-41 0 -68.5 26.5t-27.5 67.5t27.5 67.5t68.5 26.5t68.5 -26.5t27.5 -67.5t-27.5 -67.5t-68.5 -26.5z
M698 1047q-41 0 -68.5 26.5t-27.5 67.5t27.5 67.5t68.5 26.5q42 0 69.5 -26.5t27.5 -67.5t-27.5 -67.5t-69.5 -26.5z" />
    <glyph glyph-name="aring" unicode="&#xe5;" horiz-adv-x="993" 
d="M375 -20q-135 0 -210 61.5t-75 177.5q0 48 14.5 86.5t44 64.5t62 44.5t80.5 31t87 19.5t93 14q38 4 56.5 6.5t44.5 7.5t37.5 10t25.5 14t19.5 21t9.5 29t4 39q0 80 -45 119t-142 39q-175 0 -233 -123l-117 70q42 91 140.5 140.5t230.5 49.5q162 0 248 -81.5t86 -244.5
v-575h-164v152q-70 -172 -297 -172zM412 102q113 0 185.5 67t72.5 200v77q-21 -38 -56 -50.5t-122 -24.5q-118 -16 -155 -30q-82 -32 -83 -112q0 -127 158 -127zM502 985q-92 0 -151.5 56.5t-59.5 142.5t59.5 142t151.5 56t151.5 -56t59.5 -142t-59.5 -142.5t-151.5 -56.5z
M502 1075q47 0 77.5 31t30.5 78t-30.5 77.5t-77.5 30.5t-78 -30.5t-31 -77.5t31 -78t78 -31z" />
    <glyph glyph-name="ae" unicode="&#xe6;" horiz-adv-x="1617" 
d="M379 -20q-136 0 -212.5 61.5t-76.5 175.5q0 57 21.5 100t54.5 70t86 46t102 28.5t117 17.5q38 4 56.5 6.5t44.5 7.5t37.5 10t25.5 14t19.5 21t9.5 29t4 39q0 80 -45 119t-142 39q-175 0 -233 -123l-117 70q42 88 138.5 139t230.5 51q232 0 297 -160q133 160 315 160
q172 0 293 -139t121 -352h-690q5 -127 86.5 -210t218.5 -83q181 0 250 157l125 -67q-51 -107 -147 -167t-228 -60q-127 0 -230.5 54t-167.5 148q-44 -97 -139.5 -149.5t-224.5 -52.5zM1100 774q-105 0 -177.5 -73.5t-84.5 -178.5h524q-12 105 -84.5 178.5t-177.5 73.5z
M412 102q113 0 185.5 67t72.5 200v77q-21 -38 -56 -50.5t-122 -24.5q-118 -16 -155 -30q-82 -32 -83 -112q0 -127 158 -127z" />
    <glyph glyph-name="ccedilla" unicode="&#xe7;" horiz-adv-x="1009" 
d="M477 -451q-71 0 -132 28.5t-91 78.5l74 61q52 -73 137 -73q48 0 77 23t29 65q0 97 -149 121l55 135q-166 30 -275.5 155t-109.5 291q0 121 61 228.5t170.5 173t239.5 65.5q126 0 221.5 -59t145.5 -174l-127 -74q-83 164 -248 164q-127 0 -209 -92t-82 -232
q0 -137 81 -224t214 -87q93 0 158 41t94 119l125 -76q-46 -102 -145 -164.5t-230 -62.5h-2l-29 -76q78 -17 121 -62.5t43 -111.5q0 -80 -59.5 -130.5t-157.5 -50.5z" />
    <glyph glyph-name="egrave" unicode="&#xe8;" horiz-adv-x="1042" 
d="M565 -20q-203 0 -338 134t-135 322q0 123 59.5 230.5t160.5 171t218 63.5q177 0 298.5 -138.5t121.5 -352.5h-690q5 -127 86.5 -210t218.5 -83q181 0 250 157l125 -67q-51 -107 -147 -167t-228 -60zM524 774q-105 0 -177.5 -73.5t-84.5 -178.5h524q-12 105 -84.5 178.5
t-177.5 73.5zM471 995l-305 246l121 105l284 -351h-100z" />
    <glyph glyph-name="eacute" unicode="&#xe9;" horiz-adv-x="1042" 
d="M565 -20q-203 0 -338 134t-135 322q0 123 59.5 230.5t160.5 171t218 63.5q177 0 298.5 -138.5t121.5 -352.5h-690q5 -127 86.5 -210t218.5 -83q181 0 250 157l125 -67q-51 -107 -147 -167t-228 -60zM524 774q-105 0 -177.5 -73.5t-84.5 -178.5h524q-12 105 -84.5 178.5
t-177.5 73.5zM471 995l285 351l121 -105l-306 -246h-100z" />
    <glyph glyph-name="ecircumflex" unicode="&#xea;" horiz-adv-x="1042" 
d="M565 -20q-203 0 -338 134t-135 322q0 123 59.5 230.5t160.5 171t218 63.5q177 0 298.5 -138.5t121.5 -352.5h-690q5 -127 86.5 -210t218.5 -83q181 0 250 157l125 -67q-51 -107 -147 -167t-228 -60zM524 774q-105 0 -177.5 -73.5t-84.5 -178.5h524q-12 105 -84.5 178.5
t-177.5 73.5zM190 995l265 336h131l264 -336h-100l-230 203l-229 -203h-101z" />
    <glyph glyph-name="edieresis" unicode="&#xeb;" horiz-adv-x="1042" 
d="M565 -20q-203 0 -338 134t-135 322q0 123 59.5 230.5t160.5 171t218 63.5q177 0 298.5 -138.5t121.5 -352.5h-690q5 -127 86.5 -210t218.5 -83q181 0 250 157l125 -67q-51 -107 -147 -167t-228 -60zM524 774q-105 0 -177.5 -73.5t-84.5 -178.5h524q-12 105 -84.5 178.5
t-177.5 73.5zM324 1047q-42 0 -69.5 26.5t-27.5 67.5t27.5 67.5t69.5 26.5q41 0 68.5 -26.5t27.5 -67.5t-27.5 -67.5t-68.5 -26.5zM717 1047q-41 0 -68.5 26.5t-27.5 67.5t27.5 67.5t68.5 26.5t68.5 -26.5t27.5 -67.5t-27.5 -67.5t-68.5 -26.5z" />
    <glyph glyph-name="igrave" unicode="&#xec;" horiz-adv-x="487" 
d="M160 0v881h55q83 0 113 12v-893h-168zM201 995l-189 281l138 74l137 -355h-86z" />
    <glyph glyph-name="iacute" unicode="&#xed;" horiz-adv-x="487" 
d="M160 0v881h55q83 0 113 12v-893h-168zM201 995l137 355l137 -74l-188 -281h-86z" />
    <glyph glyph-name="icircumflex" unicode="&#xee;" horiz-adv-x="487" 
d="M160 0v881h55q83 0 113 12v-893h-168zM12 995l160 336h143l160 -336h-92l-139 211l-140 -211h-92z" />
    <glyph glyph-name="idieresis" unicode="&#xef;" horiz-adv-x="487" 
d="M160 0v881h55q83 0 113 12v-893h-168zM106 1047q-41 0 -68.5 26.5t-27.5 67.5t27.5 67.5t68.5 26.5q42 0 69.5 -26.5t27.5 -67.5t-27.5 -67.5t-69.5 -26.5zM381 1047q-41 0 -68.5 26.5t-27.5 67.5t27.5 67.5t68.5 26.5t68.5 -26.5t27.5 -67.5t-27.5 -67.5t-68.5 -26.5z
" />
    <glyph glyph-name="eth" unicode="&#xf0;" horiz-adv-x="1157" 
d="M449 958v125l153 80q-130 66 -289 78l35 127q222 -20 393 -133l269 137v-125l-174 -88q221 -208 221 -551q0 -270 -142 -446q-140 -182 -358 -182q-94 0 -180.5 36t-148.5 95.5t-99 140t-37 166.5q0 116 64 219t166.5 163t212.5 60q130 0 226.5 -68t139.5 -190v8
q0 317 -192 482zM549 123q120 0 202.5 84t82.5 213t-82.5 213t-202.5 84q-121 0 -203 -84t-82 -213t82 -213t203 -84z" />
    <glyph glyph-name="ntilde" unicode="&#xf1;" horiz-adv-x="1114" 
d="M160 0v881h55q83 0 113 12v-195q41 98 127 150.5t198 52.5q143 0 223 -83.5t80 -237.5v-580h-168v555q0 107 -44 153t-138 46q-127 0 -202.5 -75.5t-75.5 -209.5v-469h-168zM307 995h-92q23 129 80.5 197t142.5 68q54 0 121 -33q79 -37 123 -37q54 0 84.5 35t44.5 106h92
q-23 -129 -80.5 -196.5t-142.5 -67.5q-54 0 -121 33q-79 37 -123 37q-54 0 -84.5 -35.5t-44.5 -106.5z" />
    <glyph glyph-name="ograve" unicode="&#xf2;" horiz-adv-x="1097" 
d="M549 123q120 0 202.5 89.5t82.5 227.5t-82.5 228t-202.5 90q-121 0 -203 -90t-82 -228t82 -227.5t203 -89.5zM549 -20q-120 0 -225.5 63t-168.5 169.5t-63 227.5t63 227.5t168.5 170t225.5 63.5t225.5 -63.5t168.5 -170t63 -227.5t-63 -227.5t-168.5 -169.5t-225.5 -63z
M500 995l-305 246l120 105l285 -351h-100z" />
    <glyph glyph-name="oacute" unicode="&#xf3;" horiz-adv-x="1097" 
d="M549 123q120 0 202.5 89.5t82.5 227.5t-82.5 228t-202.5 90q-121 0 -203 -90t-82 -228t82 -227.5t203 -89.5zM549 -20q-120 0 -225.5 63t-168.5 169.5t-63 227.5t63 227.5t168.5 170t225.5 63.5t225.5 -63.5t168.5 -170t63 -227.5t-63 -227.5t-168.5 -169.5t-225.5 -63z
M500 995l284 351l121 -105l-305 -246h-100z" />
    <glyph glyph-name="ocircumflex" unicode="&#xf4;" horiz-adv-x="1097" 
d="M549 123q120 0 202.5 89.5t82.5 227.5t-82.5 228t-202.5 90q-121 0 -203 -90t-82 -228t82 -227.5t203 -89.5zM549 -20q-120 0 -225.5 63t-168.5 169.5t-63 227.5t63 227.5t168.5 170t225.5 63.5t225.5 -63.5t168.5 -170t63 -227.5t-63 -227.5t-168.5 -169.5t-225.5 -63z
M219 995l264 336h131l265 -336h-101l-229 203l-230 -203h-100z" />
    <glyph glyph-name="otilde" unicode="&#xf5;" horiz-adv-x="1097" 
d="M549 123q120 0 202.5 89.5t82.5 227.5t-82.5 228t-202.5 90q-121 0 -203 -90t-82 -228t82 -227.5t203 -89.5zM549 -20q-120 0 -225.5 63t-168.5 169.5t-63 227.5t63 227.5t168.5 170t225.5 63.5t225.5 -63.5t168.5 -170t63 -227.5t-63 -227.5t-168.5 -169.5t-225.5 -63z
M297 995h-92q23 129 80.5 197t142.5 68q54 0 121 -33q79 -37 123 -37q54 0 84.5 35t44.5 106h92q-23 -129 -80.5 -196.5t-142.5 -67.5q-54 0 -121 33q-79 37 -123 37q-54 0 -84.5 -35.5t-44.5 -106.5z" />
    <glyph glyph-name="odieresis" unicode="&#xf6;" horiz-adv-x="1097" 
d="M549 123q120 0 202.5 89.5t82.5 227.5t-82.5 228t-202.5 90q-121 0 -203 -90t-82 -228t82 -227.5t203 -89.5zM549 -20q-120 0 -225.5 63t-168.5 169.5t-63 227.5t63 227.5t168.5 170t225.5 63.5t225.5 -63.5t168.5 -170t63 -227.5t-63 -227.5t-168.5 -169.5t-225.5 -63z
M352 1047q-41 0 -68.5 26.5t-27.5 67.5t27.5 67.5t68.5 26.5q42 0 69.5 -26.5t27.5 -67.5t-27.5 -67.5t-69.5 -26.5zM745 1047q-41 0 -68.5 26.5t-27.5 67.5t27.5 67.5t68.5 26.5q42 0 69.5 -26.5t27.5 -67.5t-27.5 -67.5t-69.5 -26.5z" />
    <glyph glyph-name="divide" unicode="&#xf7;" horiz-adv-x="1228" 
d="M614 -16q-49 0 -81.5 32t-32.5 80t32.5 80.5t81.5 32.5t82 -32.5t33 -80.5q0 -47 -33 -79.5t-82 -32.5zM176 375v131h877v-131h-877zM614 672q-49 0 -81.5 32t-32.5 80t32.5 80.5t81.5 32.5t82 -32.5t33 -80.5q0 -47 -33 -79.5t-82 -32.5z" />
    <glyph glyph-name="oslash" unicode="&#xf8;" horiz-adv-x="1097" 
d="M188 -104l-102 84l127 153q-121 137 -121 307q0 121 63 227.5t168.5 170t225.5 63.5t231 -70l129 154l103 -84l-129 -156q123 -133 123 -305q0 -121 -63 -227.5t-168.5 -169.5t-225.5 -63q-127 0 -234 67zM549 123q120 0 202.5 89.5t82.5 227.5q0 120 -56 197l-379 -471
q64 -43 150 -43zM264 440q0 -114 55 -196l379 471q-68 43 -149 43q-121 0 -203 -90t-82 -228z" />
    <glyph glyph-name="ugrave" unicode="&#xf9;" horiz-adv-x="1107" 
d="M459 -20q-143 0 -222 83.5t-79 237.5v580h55q83 0 113 12v-567q0 -107 43 -153t137 -46q125 0 199.5 75.5t74.5 209.5v469h56q82 0 112 12v-893h-168v180q-41 -97 -125 -148.5t-196 -51.5zM502 995l-305 246l120 105l285 -351h-100z" />
    <glyph glyph-name="uacute" unicode="&#xfa;" horiz-adv-x="1107" 
d="M459 -20q-143 0 -222 83.5t-79 237.5v580h55q83 0 113 12v-567q0 -107 43 -153t137 -46q125 0 199.5 75.5t74.5 209.5v469h56q82 0 112 12v-893h-168v180q-41 -97 -125 -148.5t-196 -51.5zM502 995l284 351l121 -105l-305 -246h-100z" />
    <glyph glyph-name="ucircumflex" unicode="&#xfb;" horiz-adv-x="1107" 
d="M459 -20q-143 0 -222 83.5t-79 237.5v580h55q83 0 113 12v-567q0 -107 43 -153t137 -46q125 0 199.5 75.5t74.5 209.5v469h56q82 0 112 12v-893h-168v180q-41 -97 -125 -148.5t-196 -51.5zM221 995l264 336h131l265 -336h-101l-229 203l-229 -203h-101z" />
    <glyph glyph-name="udieresis" unicode="&#xfc;" horiz-adv-x="1107" 
d="M459 -20q-143 0 -222 83.5t-79 237.5v580h55q83 0 113 12v-567q0 -107 43 -153t137 -46q125 0 199.5 75.5t74.5 209.5v469h56q82 0 112 12v-893h-168v180q-41 -97 -125 -148.5t-196 -51.5zM354 1047q-41 0 -68.5 26.5t-27.5 67.5t27.5 67.5t68.5 26.5q42 0 69.5 -26.5
t27.5 -67.5t-27.5 -67.5t-69.5 -26.5zM748 1047q-42 0 -69.5 26.5t-27.5 67.5t27.5 67.5t69.5 26.5q41 0 68.5 -26.5t27.5 -67.5t-27.5 -67.5t-68.5 -26.5z" />
    <glyph glyph-name="yacute" unicode="&#xfd;" horiz-adv-x="958" 
d="M209 -430l188 444l-362 867h172l278 -695l285 695h154l-547 -1311h-168zM440 995l285 351l121 -105l-305 -246h-101z" />
    <glyph glyph-name="thorn" unicode="&#xfe;" horiz-adv-x="1157" 
d="M160 -430v1782h55q83 0 113 12v-684q40 99 123.5 160t195.5 61q108 0 204.5 -62.5t155 -169.5t58.5 -229q0 -123 -58.5 -229.5t-155 -168.5t-204.5 -62q-112 0 -195.5 61t-123.5 160v-631h-168zM604 123q122 0 205.5 89.5t83.5 227.5t-83.5 228t-205.5 90
q-109 0 -195.5 -91.5t-86.5 -226.5t86.5 -226t195.5 -91z" />
    <glyph glyph-name="ydieresis" unicode="&#xff;" horiz-adv-x="958" 
d="M209 -430l188 444l-362 867h172l278 -695l285 695h154l-547 -1311h-168zM295 1047q-41 0 -68.5 26.5t-27.5 67.5t27.5 67.5t68.5 26.5t68.5 -26.5t27.5 -67.5t-27.5 -67.5t-68.5 -26.5zM688 1047q-41 0 -68.5 26.5t-27.5 67.5t27.5 67.5t68.5 26.5t68.5 -26.5t27.5 -67.5
t-27.5 -67.5t-68.5 -26.5z" />
    <glyph glyph-name="Amacron" unicode="&#x100;" horiz-adv-x="1228" 
d="M20 0l502 1352h185l501 -1352h-198l-113 315h-575l-111 -315h-191zM610 1143l-245 -688h489zM319 1522v114h590v-114h-590z" />
    <glyph glyph-name="amacron" unicode="&#x101;" horiz-adv-x="993" 
d="M375 -20q-135 0 -210 61.5t-75 177.5q0 48 14.5 86.5t44 64.5t62 44.5t80.5 31t87 19.5t93 14q38 4 56.5 6.5t44.5 7.5t37.5 10t25.5 14t19.5 21t9.5 29t4 39q0 80 -45 119t-142 39q-175 0 -233 -123l-117 70q42 91 140.5 140.5t230.5 49.5q162 0 248 -81.5t86 -244.5
v-575h-164v152q-70 -172 -297 -172zM412 102q113 0 185.5 67t72.5 200v77q-21 -38 -56 -50.5t-122 -24.5q-118 -16 -155 -30q-82 -32 -83 -112q0 -127 158 -127zM207 1071v115h590v-115h-590z" />
    <glyph glyph-name="Abreve" unicode="&#x102;" horiz-adv-x="1228" 
d="M20 0l502 1352h185l501 -1352h-198l-113 315h-575l-111 -315h-191zM610 1143l-245 -688h489zM614 1440q-84 0 -146.5 29.5t-98 80t-54 108t-22.5 124.5h92q8 -92 68.5 -160t160.5 -68t161 68t69 160h92q-4 -67 -22.5 -124.5t-54.5 -108t-98.5 -80t-146.5 -29.5z" />
    <glyph glyph-name="abreve" unicode="&#x103;" horiz-adv-x="993" 
d="M375 -20q-135 0 -210 61.5t-75 177.5q0 48 14.5 86.5t44 64.5t62 44.5t80.5 31t87 19.5t93 14q38 4 56.5 6.5t44.5 7.5t37.5 10t25.5 14t19.5 21t9.5 29t4 39q0 80 -45 119t-142 39q-175 0 -233 -123l-117 70q42 91 140.5 140.5t230.5 49.5q162 0 248 -81.5t86 -244.5
v-575h-164v152q-70 -172 -297 -172zM412 102q113 0 185.5 67t72.5 200v77q-21 -38 -56 -50.5t-122 -24.5q-118 -16 -155 -30q-82 -32 -83 -112q0 -127 158 -127zM502 989q-84 0 -146.5 29.5t-98.5 80t-54.5 108t-22.5 124.5h92q8 -92 69 -159.5t161 -67.5t160.5 67.5
t68.5 159.5h92q-4 -67 -22.5 -124.5t-54 -108t-98 -80t-146.5 -29.5z" />
    <glyph glyph-name="Aogonek" unicode="&#x104;" horiz-adv-x="1228" 
d="M1053 -451q-87 0 -140 45t-53 117q0 145 240 289h-90l-113 315h-575l-111 -315h-191l502 1352h185l501 -1352q-121 -86 -173 -149t-52 -123q0 -41 22.5 -62.5t61.5 -21.5q45 0 73 25t48 75l84 -33q-52 -162 -219 -162zM610 1143l-245 -688h489z" />
    <glyph glyph-name="aogonek" unicode="&#x105;" horiz-adv-x="993" 
d="M680 -451q-87 0 -140 45t-53 117q0 146 242 289h-57v152q-70 -172 -297 -172q-135 0 -210 61.5t-75 177.5q0 48 14.5 86.5t44 64.5t62 44.5t80.5 31t87 19.5t93 14q38 4 56.5 6.5t44.5 7.5t37.5 10t25.5 14t19.5 21t9.5 29t4 39q0 80 -45 119t-142 39q-175 0 -233 -123
l-117 70q42 91 140.5 140.5t230.5 49.5q162 0 248 -81.5t86 -244.5v-575q-122 -86 -174 -149t-52 -123q0 -41 22.5 -62.5t61.5 -21.5q45 0 73 25t48 75l84 -33q-52 -162 -219 -162zM412 102q113 0 185.5 67t72.5 200v77q-21 -38 -56 -50.5t-122 -24.5q-118 -16 -155 -30
q-82 -32 -83 -112q0 -127 158 -127z" />
    <glyph glyph-name="Cacute" unicode="&#x106;" horiz-adv-x="1333" 
d="M745 -20q-181 0 -328 95t-227.5 254t-80.5 347t80.5 347t227.5 254t328 95q174 0 307.5 -87t198.5 -249l-149 -88q-53 133 -148 199.5t-221 66.5q-195 0 -313.5 -149.5t-118.5 -388.5q0 -240 118.5 -389.5t313.5 -149.5q126 0 221 66.5t148 199.5l149 -88
q-65 -162 -198.5 -248.5t-307.5 -86.5zM657 1446l285 350l121 -104l-305 -246h-101z" />
    <glyph glyph-name="cacute" unicode="&#x107;" horiz-adv-x="1009" 
d="M561 -20q-195 0 -332 132.5t-137 321.5q0 121 61 228.5t170.5 173t239.5 65.5q126 0 221.5 -59t145.5 -174l-127 -74q-83 164 -248 164q-127 0 -209 -92t-82 -232q0 -137 81 -224t214 -87q93 0 158 41t94 119l125 -76q-46 -102 -145 -164.5t-230 -62.5zM485 995l285 351
l121 -105l-305 -246h-101z" />
    <glyph glyph-name="Ccircumflex" unicode="&#x108;" horiz-adv-x="1333" 
d="M745 -20q-181 0 -328 95t-227.5 254t-80.5 347t80.5 347t227.5 254t328 95q174 0 307.5 -87t198.5 -249l-149 -88q-53 133 -148 199.5t-221 66.5q-195 0 -313.5 -149.5t-118.5 -388.5q0 -240 118.5 -389.5t313.5 -149.5q126 0 221 66.5t148 199.5l149 -88
q-65 -162 -198.5 -248.5t-307.5 -86.5zM377 1446l264 336h131l264 -336h-100l-229 203l-230 -203h-100z" />
    <glyph glyph-name="ccircumflex" unicode="&#x109;" horiz-adv-x="1009" 
d="M561 -20q-195 0 -332 132.5t-137 321.5q0 121 61 228.5t170.5 173t239.5 65.5q126 0 221.5 -59t145.5 -174l-127 -74q-83 164 -248 164q-127 0 -209 -92t-82 -232q0 -137 81 -224t214 -87q93 0 158 41t94 119l125 -76q-46 -102 -145 -164.5t-230 -62.5zM205 995l264 336
h131l264 -336h-100l-229 203l-230 -203h-100z" />
    <glyph glyph-name="Cdotaccent" unicode="&#x10a;" horiz-adv-x="1333" 
d="M745 -20q-181 0 -328 95t-227.5 254t-80.5 347t80.5 347t227.5 254t328 95q174 0 307.5 -87t198.5 -249l-149 -88q-53 133 -148 199.5t-221 66.5q-195 0 -313.5 -149.5t-118.5 -388.5q0 -240 118.5 -389.5t313.5 -149.5q126 0 221 66.5t148 199.5l149 -88
q-65 -162 -198.5 -248.5t-307.5 -86.5zM707 1497q-42 0 -69.5 26.5t-27.5 67.5t28 68t69 27t68.5 -27t27.5 -68t-27.5 -67.5t-68.5 -26.5z" />
    <glyph glyph-name="cdotaccent" unicode="&#x10b;" horiz-adv-x="1009" 
d="M561 -20q-195 0 -332 132.5t-137 321.5q0 121 61 228.5t170.5 173t239.5 65.5q126 0 221.5 -59t145.5 -174l-127 -74q-83 164 -248 164q-127 0 -209 -92t-82 -232q0 -137 81 -224t214 -87q93 0 158 41t94 119l125 -76q-46 -102 -145 -164.5t-230 -62.5zM535 1047
q-42 0 -69.5 26.5t-27.5 67.5t27.5 67.5t69.5 26.5q41 0 68.5 -26.5t27.5 -67.5t-27.5 -67.5t-68.5 -26.5z" />
    <glyph glyph-name="Ccaron" unicode="&#x10c;" horiz-adv-x="1333" 
d="M745 -20q-181 0 -328 95t-227.5 254t-80.5 347t80.5 347t227.5 254t328 95q174 0 307.5 -87t198.5 -249l-149 -88q-53 133 -148 199.5t-221 66.5q-195 0 -313.5 -149.5t-118.5 -388.5q0 -240 118.5 -389.5t313.5 -149.5q126 0 221 66.5t148 199.5l149 -88
q-65 -162 -198.5 -248.5t-307.5 -86.5zM641 1446l-264 336h100l230 -203l229 203h100l-264 -336h-131z" />
    <glyph glyph-name="ccaron" unicode="&#x10d;" horiz-adv-x="1009" 
d="M561 -20q-195 0 -332 132.5t-137 321.5q0 121 61 228.5t170.5 173t239.5 65.5q126 0 221.5 -59t145.5 -174l-127 -74q-83 164 -248 164q-127 0 -209 -92t-82 -232q0 -137 81 -224t214 -87q93 0 158 41t94 119l125 -76q-46 -102 -145 -164.5t-230 -62.5zM469 995l-264 336
h100l230 -203l229 203h100l-264 -336h-131z" />
    <glyph glyph-name="Dcaron" unicode="&#x10e;" horiz-adv-x="1398" 
d="M178 0v1352h447q201 0 352.5 -86t232 -239t80.5 -351t-80.5 -351t-232 -239t-352.5 -86h-447zM616 1208h-254v-1065h254q232 0 357 141.5t125 391.5t-125 391t-357 141zM561 1446l-264 336h100l230 -203l229 203h100l-264 -336h-131z" />
    <glyph glyph-name="dcaron" unicode="&#x10f;" horiz-adv-x="1157" 
d="M510 -20q-108 0 -204.5 62t-155 168.5t-58.5 229.5q0 122 58.5 229t155 169.5t204.5 62.5q112 0 195.5 -61t123.5 -160v672h56q82 0 112 12v-1364h-168v201q-40 -99 -123.5 -160t-195.5 -61zM553 123q109 0 196 91.5t87 225.5q0 135 -87 226.5t-196 91.5
q-122 0 -205.5 -90t-83.5 -228t83.5 -227.5t205.5 -89.5zM1169 973l-75 14l84 459l161 -27z" />
    <glyph glyph-name="Dcroat" unicode="&#x110;" horiz-adv-x="1409" 
d="M57 614v134h131v604h447q201 0 352.5 -86t232 -239t80.5 -351t-80.5 -351t-232 -239t-352.5 -86h-447v614h-131zM627 1208h-254v-460h309v-134h-309v-471h254q232 0 356.5 141t124.5 392q0 250 -124.5 391t-356.5 141z" />
    <glyph glyph-name="dslash" unicode="&#x111;" horiz-adv-x="1157" 
d="M506 1079v123h323v150h56q82 0 112 12v-162h129v-123h-129v-1079h-168v201q-40 -99 -123.5 -160t-195.5 -61q-108 0 -204.5 62t-155 168.5t-58.5 229.5q0 122 58.5 229t155 169.5t204.5 62.5q112 0 195.5 -61t123.5 -160v399h-323zM553 123q109 0 196 91.5t87 225.5
q0 135 -87 226.5t-196 91.5q-122 0 -205.5 -90t-83.5 -228t83.5 -227.5t205.5 -89.5z" />
    <glyph glyph-name="Emacron" unicode="&#x112;" horiz-adv-x="1097" 
d="M178 0v1352h807v-146h-623v-438h570v-145h-570v-478h623v-145h-807zM279 1522v114h589v-114h-589z" />
    <glyph glyph-name="emacron" unicode="&#x113;" horiz-adv-x="1042" 
d="M565 -20q-203 0 -338 134t-135 322q0 123 59.5 230.5t160.5 171t218 63.5q177 0 298.5 -138.5t121.5 -352.5h-690q5 -127 86.5 -210t218.5 -83q181 0 250 157l125 -67q-51 -107 -147 -167t-228 -60zM524 774q-105 0 -177.5 -73.5t-84.5 -178.5h524q-12 105 -84.5 178.5
t-177.5 73.5zM225 1071v115h590v-115h-590z" />
    <glyph glyph-name="Ebreve" unicode="&#x114;" horiz-adv-x="1097" 
d="M178 0v1352h807v-146h-623v-438h570v-145h-570v-478h623v-145h-807zM573 1440q-84 0 -146.5 29.5t-98 80t-54 108t-22.5 124.5h92q8 -92 68.5 -160t160.5 -68t161 68t69 160h92q-4 -67 -22.5 -124.5t-54.5 -108t-98.5 -80t-146.5 -29.5z" />
    <glyph glyph-name="ebreve" unicode="&#x115;" horiz-adv-x="1042" 
d="M565 -20q-203 0 -338 134t-135 322q0 123 59.5 230.5t160.5 171t218 63.5q177 0 298.5 -138.5t121.5 -352.5h-690q5 -127 86.5 -210t218.5 -83q181 0 250 157l125 -67q-51 -107 -147 -167t-228 -60zM524 774q-105 0 -177.5 -73.5t-84.5 -178.5h524q-12 105 -84.5 178.5
t-177.5 73.5zM520 989q-84 0 -146.5 29.5t-98 80t-54 108t-22.5 124.5h92q8 -92 68.5 -159.5t160.5 -67.5t161 67.5t69 159.5h92q-4 -67 -22.5 -124.5t-54.5 -108t-98.5 -80t-146.5 -29.5z" />
    <glyph glyph-name="Edotaccent" unicode="&#x116;" horiz-adv-x="1097" 
d="M178 0v1352h807v-146h-623v-438h570v-145h-570v-478h623v-145h-807zM573 1497q-41 0 -68.5 26.5t-27.5 67.5t27.5 68t68.5 27t69 -27t28 -68t-27.5 -67.5t-69.5 -26.5z" />
    <glyph glyph-name="edotaccent" unicode="&#x117;" horiz-adv-x="1042" 
d="M565 -20q-203 0 -338 134t-135 322q0 123 59.5 230.5t160.5 171t218 63.5q177 0 298.5 -138.5t121.5 -352.5h-690q5 -127 86.5 -210t218.5 -83q181 0 250 157l125 -67q-51 -107 -147 -167t-228 -60zM524 774q-105 0 -177.5 -73.5t-84.5 -178.5h524q-12 105 -84.5 178.5
t-177.5 73.5zM520 1047q-41 0 -68.5 26.5t-27.5 67.5t27.5 67.5t68.5 26.5t68.5 -26.5t27.5 -67.5t-27.5 -67.5t-68.5 -26.5z" />
    <glyph glyph-name="Eogonek" unicode="&#x118;" horiz-adv-x="1097" 
d="M178 0v1352h807v-146h-623v-438h570v-145h-570v-478h623v-145q-121 -86 -173 -149t-52 -123q0 -41 22.5 -62.5t61.5 -21.5q45 0 73 25t48 75l84 -33q-52 -162 -220 -162q-87 0 -139.5 45t-52.5 117q0 146 242 289h-701z" />
    <glyph glyph-name="eogonek" unicode="&#x119;" horiz-adv-x="1042" 
d="M588 -451q-87 0 -140 45t-53 117q0 133 217 271q-16 -2 -47 -2q-203 0 -338 134t-135 322q0 123 59.5 230.5t160.5 171t218 63.5q177 0 298.5 -138.5t121.5 -352.5h-690q5 -127 86.5 -210t218.5 -83q181 0 250 157l125 -67q-39 -87 -117 -146q-185 -141 -245 -202.5
t-60 -130.5q0 -41 22.5 -62.5t61.5 -21.5q45 0 73 25t48 75l84 -33q-52 -162 -219 -162zM524 774q-105 0 -177.5 -73.5t-84.5 -178.5h524q-12 105 -84.5 178.5t-177.5 73.5z" />
    <glyph glyph-name="Ecaron" unicode="&#x11a;" horiz-adv-x="1097" 
d="M178 0v1352h807v-146h-623v-438h570v-145h-570v-478h623v-145h-807zM508 1446l-264 336h100l229 -203l230 203h100l-264 -336h-131z" />
    <glyph glyph-name="ecaron" unicode="&#x11b;" horiz-adv-x="1042" 
d="M565 -20q-203 0 -338 134t-135 322q0 123 59.5 230.5t160.5 171t218 63.5q177 0 298.5 -138.5t121.5 -352.5h-690q5 -127 86.5 -210t218.5 -83q181 0 250 157l125 -67q-51 -107 -147 -167t-228 -60zM524 774q-105 0 -177.5 -73.5t-84.5 -178.5h524q-12 105 -84.5 178.5
t-177.5 73.5zM455 995l-265 336h101l229 -203l230 203h100l-264 -336h-131z" />
    <glyph glyph-name="Gcircumflex" unicode="&#x11c;" horiz-adv-x="1404" 
d="M772 -20q-152 0 -278.5 55t-210 149.5t-129 220.5t-45.5 269q0 196 82 356t227 251t323 91q176 0 312.5 -88t203.5 -250l-151 -88q-113 268 -371 268q-196 0 -315 -149t-119 -393q0 -155 50 -273.5t157 -190t260 -71.5q132 0 223 45q55 27 73.5 68t18.5 106v332h185v-524
q-77 -85 -212.5 -134.5t-283.5 -49.5zM393 1446l264 336h131l265 -336h-101l-229 203l-229 -203h-101z" />
    <glyph glyph-name="gcircumflex" unicode="&#x11d;" horiz-adv-x="1157" 
d="M526 -451q-122 0 -217 39.5t-147 122.5l112 96q44 -61 103.5 -91.5t154.5 -30.5q152 0 224.5 77t72.5 232v207q-40 -99 -123.5 -160t-195.5 -61q-108 0 -204.5 62t-155 168.5t-58.5 229.5q0 122 58.5 229t155 169.5t204.5 62.5q112 0 195.5 -61t123.5 -160v201h56
q82 0 112 12v-873q0 -224 -126.5 -347.5t-344.5 -123.5zM553 123q109 0 196 91.5t87 225.5q0 135 -87 226.5t-196 91.5q-122 0 -205.5 -90t-83.5 -228t83.5 -227.5t205.5 -89.5zM225 995l264 336h132l264 -336h-101l-229 203l-229 -203h-101z" />
    <glyph glyph-name="Gbreve" unicode="&#x11e;" horiz-adv-x="1404" 
d="M772 -20q-152 0 -278.5 55t-210 149.5t-129 220.5t-45.5 269q0 196 82 356t227 251t323 91q176 0 312.5 -88t203.5 -250l-151 -88q-113 268 -371 268q-196 0 -315 -149t-119 -393q0 -155 50 -273.5t157 -190t260 -71.5q132 0 223 45q55 27 73.5 68t18.5 106v332h185v-524
q-77 -85 -212.5 -134.5t-283.5 -49.5zM723 1440q-84 0 -146.5 29.5t-98.5 80t-54.5 108t-22.5 124.5h93q8 -92 68.5 -160t160.5 -68t160.5 68t68.5 160h92q-4 -67 -22.5 -124.5t-54 -108t-98 -80t-146.5 -29.5z" />
    <glyph glyph-name="gbreve" unicode="&#x11f;" horiz-adv-x="1157" 
d="M526 -451q-122 0 -217 39.5t-147 122.5l112 96q44 -61 103.5 -91.5t154.5 -30.5q152 0 224.5 77t72.5 232v207q-40 -99 -123.5 -160t-195.5 -61q-108 0 -204.5 62t-155 168.5t-58.5 229.5q0 122 58.5 229t155 169.5t204.5 62.5q112 0 195.5 -61t123.5 -160v201h56
q82 0 112 12v-873q0 -224 -126.5 -347.5t-344.5 -123.5zM553 123q109 0 196 91.5t87 225.5q0 135 -87 226.5t-196 91.5q-122 0 -205.5 -90t-83.5 -228t83.5 -227.5t205.5 -89.5zM555 989q-84 0 -146.5 29.5t-98.5 80t-54.5 108t-22.5 124.5h93q8 -92 68.5 -159.5
t160.5 -67.5t160.5 67.5t68.5 159.5h93q-4 -67 -22.5 -124.5t-54.5 -108t-98.5 -80t-146.5 -29.5z" />
    <glyph glyph-name="Gdotaccent" unicode="&#x120;" horiz-adv-x="1404" 
d="M772 -20q-152 0 -278.5 55t-210 149.5t-129 220.5t-45.5 269q0 196 82 356t227 251t323 91q176 0 312.5 -88t203.5 -250l-151 -88q-113 268 -371 268q-196 0 -315 -149t-119 -393q0 -155 50 -273.5t157 -190t260 -71.5q132 0 223 45q55 27 73.5 68t18.5 106v332h185v-524
q-77 -85 -212.5 -134.5t-283.5 -49.5zM723 1497q-41 0 -68.5 26.5t-27.5 67.5t27.5 68t68.5 27t68.5 -27t27.5 -68t-27.5 -67.5t-68.5 -26.5z" />
    <glyph glyph-name="gdotaccent" unicode="&#x121;" horiz-adv-x="1157" 
d="M526 -451q-122 0 -217 39.5t-147 122.5l112 96q44 -61 103.5 -91.5t154.5 -30.5q152 0 224.5 77t72.5 232v207q-40 -99 -123.5 -160t-195.5 -61q-108 0 -204.5 62t-155 168.5t-58.5 229.5q0 122 58.5 229t155 169.5t204.5 62.5q112 0 195.5 -61t123.5 -160v201h56
q82 0 112 12v-873q0 -224 -126.5 -347.5t-344.5 -123.5zM553 123q109 0 196 91.5t87 225.5q0 135 -87 226.5t-196 91.5q-122 0 -205.5 -90t-83.5 -228t83.5 -227.5t205.5 -89.5zM555 1047q-41 0 -68.5 26.5t-27.5 67.5t27.5 67.5t68.5 26.5t68.5 -26.5t27.5 -67.5
t-27.5 -67.5t-68.5 -26.5z" />
    <glyph glyph-name="Gcommaaccent" unicode="&#x122;" horiz-adv-x="1404" 
d="M772 -20q-152 0 -278.5 55t-210 149.5t-129 220.5t-45.5 269q0 196 82 356t227 251t323 91q176 0 312.5 -88t203.5 -250l-151 -88q-113 268 -371 268q-196 0 -315 -149t-119 -393q0 -155 50 -273.5t157 -190t260 -71.5q132 0 223 45q55 27 73.5 68t18.5 106v332h185v-524
q-77 -85 -212.5 -134.5t-283.5 -49.5zM610 -481l-16 69q165 26 174 152q-21 -12 -45 -12q-39 0 -66.5 26.5t-27.5 67.5q0 42 27 68t71 26q57 0 93 -45t36 -119q0 -198 -246 -233z" />
    <glyph glyph-name="gcommaaccent" unicode="&#x123;" horiz-adv-x="1157" 
d="M526 -451q-122 0 -217 39.5t-147 122.5l112 96q44 -61 103.5 -91.5t154.5 -30.5q152 0 224.5 77t72.5 232v207q-40 -99 -123.5 -160t-195.5 -61q-108 0 -204.5 62t-155 168.5t-58.5 229.5q0 122 58.5 229t155 169.5t204.5 62.5q112 0 195.5 -61t123.5 -160v201h56
q82 0 112 12v-873q0 -224 -126.5 -347.5t-344.5 -123.5zM553 123q109 0 196 91.5t87 225.5q0 135 -87 226.5t-196 91.5q-122 0 -205.5 -90t-83.5 -228t83.5 -227.5t205.5 -89.5zM545 981q-57 0 -93 45t-36 119q0 97 62 156.5t184 76.5l16 -69q-165 -26 -174 -152
q21 12 45 12q39 0 66.5 -26.5t27.5 -67.5q0 -42 -27 -68t-71 -26z" />
    <glyph glyph-name="Hcircumflex" unicode="&#x124;" horiz-adv-x="1347" 
d="M985 0v612h-623v-612h-184v1352h184v-594h623v594h184v-1352h-184zM344 1446l264 336h131l265 -336h-101l-229 203l-230 -203h-100z" />
    <glyph glyph-name="hcircumflex" unicode="&#x125;" horiz-adv-x="1114" 
d="M160 0v1352h55q83 0 113 12v-666q41 98 127 150.5t198 52.5q143 0 223 -83.5t80 -237.5v-580h-168v555q0 107 -44 153t-138 46q-127 0 -202.5 -75.5t-75.5 -209.5v-469h-168zM2 1446l160 336h143l160 -336h-92l-140 211l-139 -211h-92z" />
    <glyph glyph-name="Hbar" unicode="&#x126;" horiz-adv-x="1368" 
d="M57 1022v133h131v197h185v-201h622v201h185v-197h131v-133h-131v-1022h-185v612h-622v-612h-185v1022h-131zM373 1026v-268h622v268h-622z" />
    <glyph glyph-name="hbar" unicode="&#x127;" horiz-adv-x="1114" 
d="M31 1079v123h129v150h55q83 0 113 12v-162h323v-123h-323v-381q41 98 127 150.5t198 52.5q143 0 223 -83.5t80 -237.5v-580h-168v555q0 107 -44 153t-138 46q-127 0 -202.5 -75.5t-75.5 -209.5v-469h-168v1079h-129z" />
    <glyph glyph-name="Itilde" unicode="&#x128;" horiz-adv-x="540" 
d="M178 0v1352h184v-1352h-184zM90 1446h-88q7 124 53.5 194t114.5 70q36 0 100 -33q69 -37 101 -37q37 0 54.5 34.5t25.5 107.5h88q-7 -124 -53.5 -194t-114.5 -70q-39 0 -101 32q-69 37 -100 37q-37 0 -54.5 -34t-25.5 -107z" />
    <glyph glyph-name="itilde" unicode="&#x129;" horiz-adv-x="487" 
d="M160 0v881h55q83 0 113 12v-893h-168zM63 995h-88q7 125 53.5 195t114.5 70q37 0 101 -33q69 -37 100 -37q37 0 54.5 34t25.5 107h88q-7 -124 -53.5 -194t-114.5 -70q-36 0 -100 33q-69 37 -101 37q-37 0 -54.5 -34.5t-25.5 -107.5z" />
    <glyph glyph-name="Imacron" unicode="&#x12a;" horiz-adv-x="540" 
d="M178 0v1352h184v-1352h-184zM39 1522v114h463v-114h-463z" />
    <glyph glyph-name="imacron" unicode="&#x12b;" horiz-adv-x="487" 
d="M160 0v881h55q83 0 113 12v-893h-168zM12 1071v115h463v-115h-463z" />
    <glyph glyph-name="Ibreve" unicode="&#x12c;" horiz-adv-x="540" 
d="M178 0v1352h184v-1352h-184zM270 1440q-106 0 -168.5 89t-62.5 253h88q1 -116 40 -172t103 -56t103.5 56t40.5 172h88q0 -164 -62.5 -253t-169.5 -89z" />
    <glyph glyph-name="ibreve" unicode="&#x12d;" horiz-adv-x="487" 
d="M160 0v881h55q83 0 113 12v-893h-168zM244 989q-107 0 -169.5 89t-62.5 253h88q1 -116 40.5 -171.5t103.5 -55.5t103 55.5t40 171.5h88q0 -164 -62.5 -253t-168.5 -89z" />
    <glyph glyph-name="Iogonek" unicode="&#x12e;" horiz-adv-x="540" 
d="M207 -451q-87 0 -140 45t-53 117q0 144 238 289h-74v1352h184v-1352q-121 -86 -173 -149t-52 -123q0 -41 22.5 -62.5t61.5 -21.5q45 0 73 25t48 75l84 -33q-52 -162 -219 -162z" />
    <glyph glyph-name="iogonek" unicode="&#x12f;" horiz-adv-x="487" 
d="M172 -451q-87 0 -139.5 45t-52.5 117q0 146 241 289h-61v881h55q83 0 113 12v-893q-122 -86 -174 -149t-52 -123q0 -41 22.5 -62.5t61.5 -21.5q45 0 73 25t48 75l84 -33q-52 -162 -219 -162zM244 1067q-49 0 -82 32.5t-33 80.5q0 47 33 79.5t82 32.5t81.5 -32t32.5 -80
t-32.5 -80.5t-81.5 -32.5z" />
    <glyph glyph-name="Idot" unicode="&#x130;" horiz-adv-x="540" 
d="M178 0v1352h184v-1352h-184zM270 1497q-41 0 -68.5 26.5t-27.5 67.5t27.5 68t68.5 27t69 -27t28 -68t-27.5 -67.5t-69.5 -26.5z" />
    <glyph glyph-name="dotlessi" unicode="&#x131;" horiz-adv-x="487" 
d="M160 0v881h55q83 0 113 12v-893h-168z" />
    <glyph glyph-name="IJ" unicode="&#x132;" horiz-adv-x="1347" 
d="M651 -20q-163 0 -281 61t-173 166l125 112q50 -92 128 -137t195 -45q167 0 255.5 92t88.5 269v209q-107 -207 -375 -207q-200 0 -320 120.5t-120 323.5v408h184v-373q0 -322 285 -322q153 0 249.5 92t96.5 257v346h185v-844q0 -251 -138.5 -389.5t-384.5 -138.5z" />
    <glyph glyph-name="ij" unicode="&#x133;" horiz-adv-x="1107" 
d="M506 -451q-115 0 -206 40t-138 122l112 96q39 -61 94.5 -91.5t143.5 -30.5q138 0 203 76.5t65 232.5v186q-41 -97 -125 -148.5t-196 -51.5q-143 0 -222 83.5t-79 237.5v580h55q83 0 113 12v-567q0 -107 43 -153t137 -46q125 0 199.5 75.5t74.5 209.5v469h56q82 0 112 12
v-873q0 -226 -117.5 -348.5t-324.5 -122.5zM860 1067q-49 0 -82 32.5t-33 80.5q0 47 33 79.5t82 32.5t82 -32.5t33 -79.5q0 -48 -33 -80.5t-82 -32.5zM244 1067q-49 0 -82 32.5t-33 80.5q0 47 33 79.5t82 32.5t81.5 -32t32.5 -80t-32.5 -80.5t-81.5 -32.5z" />
    <glyph glyph-name="Jcircumflex" unicode="&#x134;" horiz-adv-x="540" 
d="M12 -451q-103 0 -182 44t-113 128l144 89q51 -111 168 -111q76 0 112.5 48t36.5 153v1452h184v-1377q0 -203 -92 -314.5t-258 -111.5zM39 1446l160 336h143l160 -336h-92l-140 211l-139 -211h-92z" />
    <glyph glyph-name="jcircumflex" unicode="&#x135;" horiz-adv-x="487" 
d="M-6 -451q-166 0 -240 127l115 88q30 -44 61.5 -60.5t79.5 -16.5q71 0 110.5 42.5t39.5 157.5v994h55q83 0 113 12v-977q0 -174 -93.5 -270.5t-240.5 -96.5zM12 995l160 336h143l160 -336h-92l-139 211l-140 -211h-92z" />
    <glyph glyph-name="Kcommaaccent" unicode="&#x136;" horiz-adv-x="1241" 
d="M178 0v1352h184v-740l601 740h206l-479 -588l520 -764h-213l-430 643l-205 -227v-416h-184zM555 -481l-16 69q165 26 174 152q-21 -12 -45 -12q-39 0 -67 27t-28 67q0 41 27.5 67.5t71.5 26.5q57 0 93 -45t36 -119q0 -198 -246 -233z" />
    <glyph glyph-name="kcommaaccent" unicode="&#x137;" horiz-adv-x="997" 
d="M160 0v1352h55q83 0 113 12v-971l446 488h178l-336 -371l359 -510h-187l-282 408l-178 -177v-231h-168zM436 -481l-16 69q165 26 174 152q-21 -12 -45 -12q-39 0 -66.5 26.5t-27.5 67.5q0 42 27 68t71 26q57 0 93 -45t36 -119q0 -198 -246 -233z" />
    <glyph glyph-name="kgreenlandic" unicode="&#x138;" horiz-adv-x="997" 
d="M160 0v881h55q83 0 113 12v-500l446 488h178l-336 -371l359 -510h-187l-282 408l-178 -177v-231h-168z" />
    <glyph glyph-name="Lacute" unicode="&#x139;" horiz-adv-x="1001" 
d="M178 0v1352h184v-1207h605v-145h-789zM221 1446l285 350l121 -104l-305 -246h-101z" />
    <glyph glyph-name="lacute" unicode="&#x13a;" horiz-adv-x="487" 
d="M160 0v1352h55q83 0 113 12v-1364h-168zM201 1446l137 354l137 -74l-188 -280h-86z" />
    <glyph glyph-name="Lcommaaccent" unicode="&#x13b;" horiz-adv-x="1001" 
d="M178 0v1352h184v-1207h605v-145h-789zM459 -481l-17 69q165 26 174 152q-21 -12 -45 -12q-39 0 -66.5 26.5t-27.5 67.5q0 42 27 68t71 26q58 0 94 -45t36 -119q0 -198 -246 -233z" />
    <glyph glyph-name="lcommaaccent" unicode="&#x13c;" horiz-adv-x="487" 
d="M160 0v1352h55q83 0 113 12v-1364h-168zM131 -481l-16 69q165 26 174 152q-21 -12 -45 -12q-39 0 -66.5 26.5t-27.5 67.5q0 42 27 68t71 26q57 0 93 -45t36 -119q0 -198 -246 -233z" />
    <glyph glyph-name="Lcaron" unicode="&#x13d;" horiz-adv-x="1001" 
d="M178 0v1352h184v-1207h605v-145h-789zM700 973l-75 14l84 459l161 -27z" />
    <glyph glyph-name="lcaron" unicode="&#x13e;" horiz-adv-x="487" 
d="M160 0v1352h55q83 0 113 12v-1364h-168zM512 973l-76 14l84 459l162 -27z" />
    <glyph glyph-name="Ldot" unicode="&#x13f;" horiz-adv-x="1001" 
d="M178 0v1352h184v-1207h605v-145h-789zM745 557q-49 0 -81.5 32.5t-32.5 80.5t32.5 80t81.5 32t82 -32.5t33 -79.5q0 -48 -33 -80.5t-82 -32.5z" />
    <glyph glyph-name="ldot" unicode="&#x140;" horiz-adv-x="720" 
d="M160 0v1352h55q83 0 113 12v-1364h-168zM586 430q-49 0 -82 32.5t-33 80.5q0 47 33 79.5t82 32.5t81.5 -32t32.5 -80t-32.5 -80.5t-81.5 -32.5z" />
    <glyph glyph-name="Lslash" unicode="&#x141;" horiz-adv-x="1011" 
d="M57 387v154l131 86v725h185v-623l338 227v-153l-338 -228v-430h604v-145h-789v473z" />
    <glyph glyph-name="lslash" unicode="&#x142;" horiz-adv-x="507" 
d="M41 401v131l129 86v734h55q83 0 113 12v-651l129 86v-131l-129 -86v-582h-168v487z" />
    <glyph glyph-name="Nacute" unicode="&#x143;" horiz-adv-x="1368" 
d="M178 0v1352h172l670 -1051v1051h170v-1352h-172l-670 1051v-1051h-170zM629 1446l284 350l121 -104l-305 -246h-100z" />
    <glyph glyph-name="nacute" unicode="&#x144;" horiz-adv-x="1114" 
d="M160 0v881h55q83 0 113 12v-195q41 98 127 150.5t198 52.5q143 0 223 -83.5t80 -237.5v-580h-168v555q0 107 -44 153t-138 46q-127 0 -202.5 -75.5t-75.5 -209.5v-469h-168zM510 995l285 351l120 -105l-305 -246h-100z" />
    <glyph glyph-name="Ncommaaccent" unicode="&#x145;" horiz-adv-x="1368" 
d="M178 0v1352h172l670 -1051v1051h170v-1352h-172l-670 1051v-1051h-170zM565 -481l-16 69q165 26 174 152q-21 -12 -45 -12q-39 0 -66.5 26.5t-27.5 67.5q0 42 27 68t71 26q57 0 93 -45t36 -119q0 -198 -246 -233z" />
    <glyph glyph-name="ncommaaccent" unicode="&#x146;" horiz-adv-x="1114" 
d="M160 0v881h55q83 0 113 12v-195q41 98 127 150.5t198 52.5q143 0 223 -83.5t80 -237.5v-580h-168v555q0 107 -44 153t-138 46q-127 0 -202.5 -75.5t-75.5 -209.5v-469h-168zM446 -481l-16 69q165 26 174 152q-21 -12 -45 -12q-39 0 -66.5 26.5t-27.5 67.5q0 42 27 68
t71 26q57 0 93 -45t36 -119q0 -198 -246 -233z" />
    <glyph glyph-name="Ncaron" unicode="&#x147;" horiz-adv-x="1368" 
d="M178 0v1352h172l670 -1051v1051h170v-1352h-172l-670 1051v-1051h-170zM612 1446l-264 336h101l229 -203l229 203h101l-265 -336h-131z" />
    <glyph glyph-name="ncaron" unicode="&#x148;" horiz-adv-x="1114" 
d="M160 0v881h55q83 0 113 12v-195q41 98 127 150.5t198 52.5q143 0 223 -83.5t80 -237.5v-580h-168v555q0 107 -44 153t-138 46q-127 0 -202.5 -75.5t-75.5 -209.5v-469h-168zM494 995l-265 336h101l229 -203l229 203h101l-264 -336h-131z" />
    <glyph glyph-name="napostrophe" unicode="&#x149;" horiz-adv-x="1628" 
d="M106 848l-16 88q103 10 159 61.5t56 128.5q0 19 -4 39q-22 -16 -53 -16q-45 0 -76 30.5t-31 77.5t32 78t81 31q68 0 112 -61.5t44 -159.5q0 -128 -80.5 -205.5t-223.5 -91.5zM674 0v881h55q83 0 113 12v-195q41 98 127 150.5t198 52.5q143 0 223 -83.5t80 -237.5v-580
h-167v555q0 107 -44.5 153t-138.5 46q-127 0 -202.5 -75.5t-75.5 -209.5v-469h-168z" />
    <glyph glyph-name="Eng" unicode="&#x14a;" horiz-adv-x="1368" 
d="M840 -451q-103 0 -182 44t-113 128l143 89q51 -111 168 -111q83 0 123.5 48.5t40.5 152.5v96l-672 1053v-1049h-170v1352h172l670 -1051v1051h170v-1377q0 -203 -92 -314.5t-258 -111.5z" />
    <glyph glyph-name="eng" unicode="&#x14b;" horiz-adv-x="1114" 
d="M623 -451q-166 0 -240 127l115 88q30 -44 61.5 -60.5t79.5 -16.5q70 0 109.5 42.5t39.5 157.5v668q0 107 -44 153t-138 46q-127 0 -202.5 -75.5t-75.5 -209.5v-469h-168v881h55q83 0 113 12v-195q41 98 127 150.5t198 52.5q143 0 223 -83.5t80 -237.5v-664
q0 -174 -93 -270.5t-240 -96.5z" />
    <glyph glyph-name="Omacron" unicode="&#x14c;" horiz-adv-x="1458" 
d="M729 -20q-129 0 -245 56t-197.5 150t-129.5 222t-48 268q0 139 48 266.5t129.5 222t197.5 151t245 56.5q172 0 315.5 -95.5t224.5 -255t81 -345.5q0 -188 -81 -347.5t-224.5 -254t-315.5 -94.5zM729 137q189 0 308.5 150.5t119.5 388.5t-119.5 388t-308.5 150
t-308.5 -150t-119.5 -388t119.5 -388.5t308.5 -150.5zM434 1522v114h590v-114h-590z" />
    <glyph glyph-name="omacron" unicode="&#x14d;" horiz-adv-x="1097" 
d="M549 123q120 0 202.5 89.5t82.5 227.5t-82.5 228t-202.5 90q-121 0 -203 -90t-82 -228t82 -227.5t203 -89.5zM549 -20q-120 0 -225.5 63t-168.5 169.5t-63 227.5t63 227.5t168.5 170t225.5 63.5t225.5 -63.5t168.5 -170t63 -227.5t-63 -227.5t-168.5 -169.5t-225.5 -63z
M254 1071v115h590v-115h-590z" />
    <glyph glyph-name="Obreve" unicode="&#x14e;" horiz-adv-x="1458" 
d="M729 -20q-129 0 -245 56t-197.5 150t-129.5 222t-48 268q0 139 48 266.5t129.5 222t197.5 151t245 56.5q172 0 315.5 -95.5t224.5 -255t81 -345.5q0 -188 -81 -347.5t-224.5 -254t-315.5 -94.5zM729 137q189 0 308.5 150.5t119.5 388.5t-119.5 388t-308.5 150
t-308.5 -150t-119.5 -388t119.5 -388.5t308.5 -150.5zM729 1440q-84 0 -146.5 29.5t-98 80t-54 108t-22.5 124.5h92q8 -92 68.5 -160t160.5 -68t160.5 68t68.5 160h93q-4 -67 -22.5 -124.5t-54.5 -108t-98.5 -80t-146.5 -29.5z" />
    <glyph glyph-name="obreve" unicode="&#x14f;" horiz-adv-x="1097" 
d="M549 123q120 0 202.5 89.5t82.5 227.5t-82.5 228t-202.5 90q-121 0 -203 -90t-82 -228t82 -227.5t203 -89.5zM549 -20q-120 0 -225.5 63t-168.5 169.5t-63 227.5t63 227.5t168.5 170t225.5 63.5t225.5 -63.5t168.5 -170t63 -227.5t-63 -227.5t-168.5 -169.5t-225.5 -63z
M549 989q-84 0 -146.5 29.5t-98.5 80t-54.5 108t-22.5 124.5h92q8 -92 69 -159.5t161 -67.5t160.5 67.5t68.5 159.5h92q-4 -67 -22.5 -124.5t-54 -108t-98 -80t-146.5 -29.5z" />
    <glyph glyph-name="Ohungarumlaut" unicode="&#x150;" horiz-adv-x="1458" 
d="M729 -20q-129 0 -245 56t-197.5 150t-129.5 222t-48 268q0 139 48 266.5t129.5 222t197.5 151t245 56.5q172 0 315.5 -95.5t224.5 -255t81 -345.5q0 -188 -81 -347.5t-224.5 -254t-315.5 -94.5zM729 137q189 0 308.5 150.5t119.5 388.5t-119.5 388t-308.5 150
t-308.5 -150t-119.5 -388t119.5 -388.5t308.5 -150.5zM485 1446l285 350l121 -104l-305 -246h-101zM874 1446l285 350l121 -104l-305 -246h-101z" />
    <glyph glyph-name="ohungarumlaut" unicode="&#x151;" horiz-adv-x="1097" 
d="M549 123q120 0 202.5 89.5t82.5 227.5t-82.5 228t-202.5 90q-121 0 -203 -90t-82 -228t82 -227.5t203 -89.5zM549 -20q-120 0 -225.5 63t-168.5 169.5t-63 227.5t63 227.5t168.5 170t225.5 63.5t225.5 -63.5t168.5 -170t63 -227.5t-63 -227.5t-168.5 -169.5t-225.5 -63z
M305 995l285 351l121 -105l-305 -246h-101zM694 995l285 351l121 -105l-305 -246h-101z" />
    <glyph glyph-name="OE" unicode="&#x152;" horiz-adv-x="1914" 
d="M1802 0h-1028q-201 0 -352.5 86t-232 239t-80.5 351t80.5 351t232 239t352.5 86h1028v-146h-622v-438h569v-145h-569v-478h622v-145zM782 143h213v1065h-213q-232 0 -356.5 -141t-124.5 -391q0 -251 124.5 -392t356.5 -141z" />
    <glyph glyph-name="oe" unicode="&#x153;" horiz-adv-x="1783" 
d="M549 -20q-120 0 -225.5 63t-168.5 169.5t-63 227.5t63 227.5t168.5 170t225.5 63.5q110 0 206 -61t158 -162q58 102 153.5 162.5t205.5 60.5q177 0 298.5 -138.5t121.5 -352.5h-691q5 -127 87 -210t219 -83q180 0 249 157l125 -67q-51 -107 -146.5 -167t-227.5 -60
q-130 0 -232.5 59t-161.5 160q-61 -100 -157.5 -159.5t-206.5 -59.5zM549 123q120 0 202.5 89.5t82.5 227.5t-82.5 228t-202.5 90q-121 0 -203 -90t-82 -228t82 -227.5t203 -89.5zM1266 774q-105 0 -177.5 -73.5t-84.5 -178.5h524q-12 105 -84.5 178.5t-177.5 73.5z" />
    <glyph glyph-name="Racute" unicode="&#x154;" horiz-adv-x="1234" 
d="M178 0v1352h375q268 0 408.5 -93t140.5 -272q0 -137 -90.5 -222.5t-257.5 -105.5v-4q159 -11 233 -81.5t74 -231.5v-117q0 -139 61 -225h-192q-56 69 -56 213v113q0 145 -60 203.5t-204 58.5h-248v-588h-184zM547 1208h-185v-483h185q362 0 362 242q0 241 -362 241z
M565 1446l285 350l121 -104l-305 -246h-101z" />
    <glyph glyph-name="racute" unicode="&#x155;" horiz-adv-x="825" 
d="M160 0v881h55q83 0 113 12v-199q34 103 103.5 155t164.5 52q165 0 227 -164l-135 -90q-31 60 -62 85.5t-83 25.5q-95 0 -155 -75t-60 -208v-475h-168zM444 995l285 351l121 -105l-305 -246h-101z" />
    <glyph glyph-name="Rcommaaccent" unicode="&#x156;" horiz-adv-x="1234" 
d="M178 0v1352h375q268 0 408.5 -93t140.5 -272q0 -137 -90.5 -222.5t-257.5 -105.5v-4q159 -11 233 -81.5t74 -231.5v-117q0 -139 61 -225h-192q-56 69 -56 213v113q0 145 -60 203.5t-204 58.5h-248v-588h-184zM547 1208h-185v-483h185q362 0 362 242q0 241 -362 241z
M510 -481l-16 69q165 26 174 152q-21 -12 -45 -12q-39 0 -67 27t-28 67q0 41 27.5 67.5t71.5 26.5q57 0 93 -45t36 -119q0 -198 -246 -233z" />
    <glyph glyph-name="rcommaaccent" unicode="&#x157;" horiz-adv-x="825" 
d="M160 0v881h55q83 0 113 12v-199q34 103 103.5 155t164.5 52q165 0 227 -164l-135 -90q-31 60 -62 85.5t-83 25.5q-95 0 -155 -75t-60 -208v-475h-168zM131 -481l-16 69q165 26 174 152q-21 -12 -45 -12q-39 0 -66.5 26.5t-27.5 67.5q0 42 27 68t71 26q57 0 93 -45
t36 -119q0 -198 -246 -233z" />
    <glyph glyph-name="Rcaron" unicode="&#x158;" horiz-adv-x="1234" 
d="M178 0v1352h375q268 0 408.5 -93t140.5 -272q0 -137 -90.5 -222.5t-257.5 -105.5v-4q159 -11 233 -81.5t74 -231.5v-117q0 -139 61 -225h-192q-56 69 -56 213v113q0 145 -60 203.5t-204 58.5h-248v-588h-184zM547 1208h-185v-483h185q362 0 362 242q0 241 -362 241z
M549 1446l-264 336h100l229 -203l230 203h100l-264 -336h-131z" />
    <glyph glyph-name="rcaron" unicode="&#x159;" horiz-adv-x="825" 
d="M160 0v881h55q83 0 113 12v-199q34 103 103.5 155t164.5 52q165 0 227 -164l-135 -90q-31 60 -62 85.5t-83 25.5q-95 0 -155 -75t-60 -208v-475h-168zM430 995l-264 336h100l230 -203l229 203h100l-264 -336h-131z" />
    <glyph glyph-name="Sacute" unicode="&#x15a;" horiz-adv-x="1130" 
d="M543 -20q-151 0 -286 57t-200 153l123 121q57 -88 159.5 -132t217.5 -44q137 0 211 62t74 163q0 173 -217 222l-168 39q-163 38 -245.5 127t-82.5 219q0 172 132.5 288.5t334.5 116.5q132 0 255 -52t179 -136l-123 -121q-48 77 -134.5 115.5t-184.5 38.5
q-131 0 -202 -63.5t-71 -164.5q0 -169 211 -219l170 -37q157 -36 244.5 -126.5t87.5 -223.5q0 -171 -135 -287t-350 -116zM528 1446l285 350l121 -104l-305 -246h-101z" />
    <glyph glyph-name="sacute" unicode="&#x15b;" horiz-adv-x="888" 
d="M416 -20q-116 0 -208.5 37t-133.5 100l96 106q95 -110 264 -110q98 0 153.5 32.5t55.5 94.5q0 46 -36.5 75.5t-123.5 46.5l-145 25q-112 19 -169.5 83.5t-57.5 150.5q0 121 105 200.5t255 79.5q103 0 187.5 -39t127.5 -106l-96 -107q-36 55 -98.5 87t-140.5 32
q-81 0 -130 -33.5t-49 -97.5q0 -53 36.5 -81.5t125.5 -45.5l129 -23q120 -23 181 -82.5t61 -146.5q0 -125 -111 -201.5t-278 -76.5zM399 995l285 351l121 -105l-305 -246h-101z" />
    <glyph glyph-name="Scircumflex" unicode="&#x15c;" horiz-adv-x="1130" 
d="M543 -20q-151 0 -286 57t-200 153l123 121q57 -88 159.5 -132t217.5 -44q137 0 211 62t74 163q0 173 -217 222l-168 39q-163 38 -245.5 127t-82.5 219q0 172 132.5 288.5t334.5 116.5q132 0 255 -52t179 -136l-123 -121q-48 77 -134.5 115.5t-184.5 38.5
q-131 0 -202 -63.5t-71 -164.5q0 -169 211 -219l170 -37q157 -36 244.5 -126.5t87.5 -223.5q0 -171 -135 -287t-350 -116zM248 1446l264 336h131l264 -336h-100l-229 203l-230 -203h-100z" />
    <glyph glyph-name="scircumflex" unicode="&#x15d;" horiz-adv-x="888" 
d="M416 -20q-116 0 -208.5 37t-133.5 100l96 106q95 -110 264 -110q98 0 153.5 32.5t55.5 94.5q0 46 -36.5 75.5t-123.5 46.5l-145 25q-112 19 -169.5 83.5t-57.5 150.5q0 121 105 200.5t255 79.5q103 0 187.5 -39t127.5 -106l-96 -107q-36 55 -98.5 87t-140.5 32
q-81 0 -130 -33.5t-49 -97.5q0 -53 36.5 -81.5t125.5 -45.5l129 -23q120 -23 181 -82.5t61 -146.5q0 -125 -111 -201.5t-278 -76.5zM121 995l264 336h131l264 -336h-100l-229 203l-230 -203h-100z" />
    <glyph glyph-name="Scedilla" unicode="&#x15e;" horiz-adv-x="1130" 
d="M512 -451q-71 0 -132 28.5t-91 78.5l73 61q52 -73 138 -73q48 0 77 23t29 65q0 97 -149 121l51 129q-141 5 -266.5 61.5t-184.5 146.5l123 121q57 -88 159.5 -132t217.5 -44q137 0 211 62t74 163q0 173 -217 222l-168 39q-163 38 -245.5 127t-82.5 219q0 172 132.5 288.5
t334.5 116.5q132 0 255 -52t179 -136l-123 -121q-48 77 -134.5 115.5t-184.5 38.5q-131 0 -202 -63.5t-71 -164.5q0 -169 211 -219l170 -37q157 -36 244.5 -126.5t87.5 -223.5q0 -161 -119 -272.5t-315 -128.5l-29 -78q78 -17 121 -62.5t43 -111.5q0 -80 -59.5 -130.5
t-157.5 -50.5z" />
    <glyph glyph-name="scedilla" unicode="&#x15f;" horiz-adv-x="888" 
d="M391 -451q-71 0 -132 28.5t-91 78.5l74 61q52 -73 137 -73q48 0 77 23t29 65q0 97 -149 121l51 127q-106 5 -190.5 41.5t-122.5 95.5l96 106q95 -110 264 -110q98 0 153.5 32.5t55.5 94.5q0 46 -36.5 75.5t-123.5 46.5l-145 25q-112 19 -169.5 83.5t-57.5 150.5
q0 121 105 200.5t255 79.5q103 0 187.5 -39t127.5 -106l-96 -107q-36 55 -98.5 87t-140.5 32q-81 0 -130 -33.5t-49 -97.5q0 -53 36.5 -81.5t125.5 -45.5l129 -23q120 -23 181 -82.5t61 -146.5q0 -113 -93.5 -187.5t-238.5 -86.5l-29 -80q78 -17 121 -62.5t43 -111.5
q0 -80 -59.5 -130.5t-157.5 -50.5z" />
    <glyph glyph-name="Scaron" unicode="&#x160;" horiz-adv-x="1130" 
d="M543 -20q-151 0 -286 57t-200 153l123 121q57 -88 159.5 -132t217.5 -44q137 0 211 62t74 163q0 173 -217 222l-168 39q-163 38 -245.5 127t-82.5 219q0 172 132.5 288.5t334.5 116.5q132 0 255 -52t179 -136l-123 -121q-48 77 -134.5 115.5t-184.5 38.5
q-131 0 -202 -63.5t-71 -164.5q0 -169 211 -219l170 -37q157 -36 244.5 -126.5t87.5 -223.5q0 -171 -135 -287t-350 -116zM512 1446l-264 336h100l230 -203l229 203h100l-264 -336h-131z" />
    <glyph glyph-name="scaron" unicode="&#x161;" horiz-adv-x="888" 
d="M416 -20q-116 0 -208.5 37t-133.5 100l96 106q95 -110 264 -110q98 0 153.5 32.5t55.5 94.5q0 46 -36.5 75.5t-123.5 46.5l-145 25q-112 19 -169.5 83.5t-57.5 150.5q0 121 105 200.5t255 79.5q103 0 187.5 -39t127.5 -106l-96 -107q-36 55 -98.5 87t-140.5 32
q-81 0 -130 -33.5t-49 -97.5q0 -53 36.5 -81.5t125.5 -45.5l129 -23q120 -23 181 -82.5t61 -146.5q0 -125 -111 -201.5t-278 -76.5zM385 995l-264 336h100l230 -203l229 203h100l-264 -336h-131z" />
    <glyph glyph-name="uni0162" unicode="&#x162;" horiz-adv-x="1105" 
d="M461 0v1206h-422v146h1028v-146h-422v-1206h-184zM440 -481l-16 69q165 26 174 152q-21 -12 -45 -12q-39 0 -66.5 26.5t-27.5 67.5q0 42 27 68t71 26q57 0 93 -45t36 -119q0 -198 -246 -233z" />
    <glyph glyph-name="uni0163" unicode="&#x163;" horiz-adv-x="763" 
d="M512 -20q-147 0 -232 96t-85 258v416h-172v114h22q104 0 142 45.5t38 139.5v110h25q82 0 112 12v-290h347v-131h-347v-439q0 -98 41.5 -145t108.5 -47q99 0 158 86l114 -78q-36 -71 -107.5 -109t-164.5 -38zM344 -481l-16 69q165 26 174 152q-21 -12 -45 -12
q-39 0 -67 27t-28 67q0 41 27.5 67.5t71.5 26.5q57 0 93 -45t36 -119q0 -198 -246 -233z" />
    <glyph glyph-name="Tcaron" unicode="&#x164;" horiz-adv-x="1105" 
d="M461 0v1206h-422v146h1028v-146h-422v-1206h-184zM487 1446l-264 336h101l229 -203l229 203h101l-265 -336h-131z" />
    <glyph glyph-name="tcaron" unicode="&#x165;" horiz-adv-x="763" 
d="M512 -20q-147 0 -232 96t-85 258v416h-172v114h22q104 0 142 45.5t38 139.5v110h25q82 0 112 12v-290h347v-131h-347v-439q0 -98 41.5 -145t108.5 -47q99 0 158 86l114 -78q-36 -71 -107.5 -109t-164.5 -38zM649 973l-76 14l84 459l162 -27z" />
    <glyph glyph-name="Tbar" unicode="&#x166;" horiz-adv-x="1105" 
d="M197 651v133h264v422h-422v146h1028v-146h-422v-422h264v-133h-264v-651h-184v651h-264z" />
    <glyph glyph-name="tbar" unicode="&#x167;" horiz-adv-x="774" 
d="M74 432v123h131v195h-172v114h22q104 0 142.5 45.5t38.5 139.5v110h24q83 0 113 12v-290h346v-131h-346v-195h202v-123h-202v-121q0 -99 41 -145.5t108 -46.5q99 0 158 86l115 -78q-36 -71 -108 -109t-165 -38q-147 0 -232 96t-85 258v98h-131z" />
    <glyph glyph-name="Utilde" unicode="&#x168;" horiz-adv-x="1380" 
d="M690 -20q-243 0 -379.5 138t-136.5 390v844h184v-850q0 -176 86.5 -270.5t245.5 -94.5q157 0 244.5 94t87.5 271v850h184v-844q0 -252 -136.5 -390t-379.5 -138zM438 1446h-92q23 129 80.5 196.5t142.5 67.5q54 0 121 -33q79 -37 123 -37q54 0 84.5 35.5t44.5 106.5h92
q-23 -129 -80.5 -196.5t-142.5 -67.5q-56 0 -121 32q-79 37 -123 37q-54 0 -84.5 -35t-44.5 -106z" />
    <glyph glyph-name="utilde" unicode="&#x169;" horiz-adv-x="1107" 
d="M459 -20q-143 0 -222 83.5t-79 237.5v580h55q83 0 113 12v-567q0 -107 43 -153t137 -46q125 0 199.5 75.5t74.5 209.5v469h56q82 0 112 12v-893h-168v180q-41 -97 -125 -148.5t-196 -51.5zM299 995h-92q23 129 80.5 197t142.5 68q54 0 121 -33q79 -37 123 -37
q54 0 84.5 35t44.5 106h92q-23 -129 -80.5 -196.5t-142.5 -67.5q-54 0 -121 33q-79 37 -123 37q-54 0 -84.5 -35.5t-44.5 -106.5z" />
    <glyph glyph-name="Umacron" unicode="&#x16a;" horiz-adv-x="1380" 
d="M690 -20q-243 0 -379.5 138t-136.5 390v844h184v-850q0 -176 86.5 -270.5t245.5 -94.5q157 0 244.5 94t87.5 271v850h184v-844q0 -252 -136.5 -390t-379.5 -138zM395 1522v114h590v-114h-590z" />
    <glyph glyph-name="umacron" unicode="&#x16b;" horiz-adv-x="1107" 
d="M459 -20q-143 0 -222 83.5t-79 237.5v580h55q83 0 113 12v-567q0 -107 43 -153t137 -46q125 0 199.5 75.5t74.5 209.5v469h56q82 0 112 12v-893h-168v180q-41 -97 -125 -148.5t-196 -51.5zM256 1071v115h590v-115h-590z" />
    <glyph glyph-name="Ubreve" unicode="&#x16c;" horiz-adv-x="1380" 
d="M690 -20q-243 0 -379.5 138t-136.5 390v844h184v-850q0 -176 86.5 -270.5t245.5 -94.5q157 0 244.5 94t87.5 271v850h184v-844q0 -252 -136.5 -390t-379.5 -138zM690 1440q-84 0 -146.5 29.5t-98 80t-54 108t-22.5 124.5h92q8 -92 68.5 -160t160.5 -68t161 68t69 160h92
q-4 -67 -22.5 -124.5t-54.5 -108t-98.5 -80t-146.5 -29.5z" />
    <glyph glyph-name="ubreve" unicode="&#x16d;" horiz-adv-x="1107" 
d="M459 -20q-143 0 -222 83.5t-79 237.5v580h55q83 0 113 12v-567q0 -107 43 -153t137 -46q125 0 199.5 75.5t74.5 209.5v469h56q82 0 112 12v-893h-168v180q-41 -97 -125 -148.5t-196 -51.5zM551 989q-84 0 -146.5 29.5t-98.5 80t-54.5 108t-22.5 124.5h93
q8 -92 68.5 -159.5t160.5 -67.5t160.5 67.5t68.5 159.5h92q-4 -67 -22.5 -124.5t-54 -108t-98 -80t-146.5 -29.5z" />
    <glyph glyph-name="Uring" unicode="&#x16e;" horiz-adv-x="1380" 
d="M690 -20q-243 0 -379.5 138t-136.5 390v844h184v-850q0 -176 86.5 -270.5t245.5 -94.5q157 0 244.5 94t87.5 271v850h184v-844q0 -252 -136.5 -390t-379.5 -138zM690 1436q-92 0 -151.5 56t-59.5 142t59.5 142.5t151.5 56.5t151.5 -56.5t59.5 -142.5t-59.5 -142
t-151.5 -56zM690 1526q47 0 78 30.5t31 77.5t-31 78t-78 31t-77.5 -31t-30.5 -78t30.5 -77.5t77.5 -30.5z" />
    <glyph glyph-name="uring" unicode="&#x16f;" horiz-adv-x="1107" 
d="M459 -20q-143 0 -222 83.5t-79 237.5v580h55q83 0 113 12v-567q0 -107 43 -153t137 -46q125 0 199.5 75.5t74.5 209.5v469h56q82 0 112 12v-893h-168v180q-41 -97 -125 -148.5t-196 -51.5zM551 985q-92 0 -151.5 56.5t-59.5 142.5t59.5 142t151.5 56t151.5 -56t59.5 -142
t-59.5 -142.5t-151.5 -56.5zM551 1075q47 0 77.5 31t30.5 78t-30.5 77.5t-77.5 30.5t-78 -30.5t-31 -77.5t31 -78t78 -31z" />
    <glyph glyph-name="Uhungarumlaut" unicode="&#x170;" horiz-adv-x="1380" 
d="M690 -20q-243 0 -379.5 138t-136.5 390v844h184v-850q0 -176 86.5 -270.5t245.5 -94.5q157 0 244.5 94t87.5 271v850h184v-844q0 -252 -136.5 -390t-379.5 -138zM446 1446l285 350l121 -104l-305 -246h-101zM836 1446l284 350l121 -104l-305 -246h-100z" />
    <glyph glyph-name="uhungarumlaut" unicode="&#x171;" horiz-adv-x="1107" 
d="M459 -20q-143 0 -222 83.5t-79 237.5v580h55q83 0 113 12v-567q0 -107 43 -153t137 -46q125 0 199.5 75.5t74.5 209.5v469h56q82 0 112 12v-893h-168v180q-41 -97 -125 -148.5t-196 -51.5zM307 995l285 351l121 -105l-305 -246h-101zM696 995l285 351l121 -105l-305 -246
h-101z" />
    <glyph glyph-name="Uogonek" unicode="&#x172;" horiz-adv-x="1380" 
d="M688 -451q-87 0 -139.5 45t-52.5 117q0 137 215 269h-21q-243 0 -379.5 138t-136.5 390v844h184v-850q0 -176 86.5 -270.5t245.5 -94.5q157 0 244.5 94t87.5 271v850h184v-846q0 -366 -288 -488q-159 -68 -229.5 -143.5t-70.5 -146.5q0 -41 22.5 -62.5t61.5 -21.5
q45 0 73 25t48 75l84 -33q-52 -162 -219 -162z" />
    <glyph glyph-name="uogonek" unicode="&#x173;" horiz-adv-x="1107" 
d="M793 -451q-87 0 -140 45t-53 117q0 146 242 289h-62v180q-41 -97 -125 -148.5t-196 -51.5q-143 0 -222 83.5t-79 237.5v580h55q83 0 113 12v-567q0 -107 43 -153t137 -46q125 0 199.5 75.5t74.5 209.5v469h56q82 0 112 12v-893q-121 -86 -173 -149t-52 -123
q0 -41 22.5 -62.5t61.5 -21.5q45 0 73 25t48 75l84 -33q-52 -162 -219 -162z" />
    <glyph glyph-name="Wcircumflex" unicode="&#x174;" horiz-adv-x="1886" 
d="M481 0l-461 1352h191l379 -1131l280 752l-129 379h189l383 -1125l368 1125h185l-463 -1352h-184l-269 764l-284 -764h-185zM612 1446l265 336h131l264 -336h-101l-229 203l-229 -203h-101z" />
    <glyph glyph-name="wcircumflex" unicode="&#x175;" horiz-adv-x="1513" 
d="M371 0l-336 881h170l250 -697l252 701h120l244 -705l256 701h152l-334 -881h-158l-229 655l-236 -655h-151zM434 995l264 336h131l265 -336h-101l-229 203l-229 -203h-101z" />
    <glyph glyph-name="Ycircumflex" unicode="&#x176;" horiz-adv-x="1105" 
d="M461 0v520l-455 832h199l350 -676l352 676h193l-455 -832v-520h-184zM227 1446l265 336h131l264 -336h-101l-229 203l-229 -203h-101z" />
    <glyph glyph-name="ycircumflex" unicode="&#x177;" horiz-adv-x="958" 
d="M209 -430l188 444l-362 867h172l278 -695l285 695h154l-547 -1311h-168zM162 995l264 336h131l264 -336h-100l-229 203l-230 -203h-100z" />
    <glyph glyph-name="Ydieresis" unicode="&#x178;" horiz-adv-x="1105" 
d="M461 0v520l-455 832h199l350 -676l352 676h193l-455 -832v-520h-184zM360 1497q-41 0 -68.5 26.5t-27.5 67.5t27.5 68t68.5 27t69 -27t28 -68t-27.5 -67.5t-69.5 -26.5zM754 1497q-42 0 -69.5 26.5t-27.5 67.5t28 68t69 27t68.5 -27t27.5 -68t-27.5 -67.5t-68.5 -26.5z
" />
    <glyph glyph-name="Zacute" unicode="&#x179;" horiz-adv-x="1050" 
d="M84 0v117l655 1089h-641v146h854v-117l-655 -1090h670v-145h-883zM477 1446l285 350l121 -104l-305 -246h-101z" />
    <glyph glyph-name="zacute" unicode="&#x17a;" horiz-adv-x="960" 
d="M90 0v106l547 646h-524v129h737v-107l-547 -645h567v-129h-780zM436 995l285 351l121 -105l-305 -246h-101z" />
    <glyph glyph-name="Zdotaccent" unicode="&#x17b;" horiz-adv-x="1050" 
d="M84 0v117l655 1089h-641v146h854v-117l-655 -1090h670v-145h-883zM526 1497q-41 0 -68.5 26.5t-27.5 67.5t27.5 68t68.5 27t69 -27t28 -68t-27.5 -67.5t-69.5 -26.5z" />
    <glyph glyph-name="zdotaccent" unicode="&#x17c;" horiz-adv-x="960" 
d="M90 0v106l547 646h-524v129h737v-107l-547 -645h567v-129h-780zM487 1047q-41 0 -68.5 26.5t-27.5 67.5t27.5 67.5t68.5 26.5q42 0 69.5 -26.5t27.5 -67.5t-27.5 -67.5t-69.5 -26.5z" />
    <glyph glyph-name="Zcaron" unicode="&#x17d;" horiz-adv-x="1050" 
d="M84 0v117l655 1089h-641v146h854v-117l-655 -1090h670v-145h-883zM461 1446l-264 336h100l229 -203l230 203h100l-264 -336h-131z" />
    <glyph glyph-name="zcaron" unicode="&#x17e;" horiz-adv-x="960" 
d="M90 0v106l547 646h-524v129h737v-107l-547 -645h567v-129h-780zM422 995l-264 336h100l229 -203l230 203h100l-264 -336h-131z" />
    <glyph glyph-name="uni0180" unicode="&#x180;" horiz-adv-x="1157" 
d="M31 1079v123h129v150h55q83 0 113 12v-162h323v-123h-323v-399q40 99 123.5 160t195.5 61q108 0 204.5 -62.5t155 -169.5t58.5 -229q0 -123 -58.5 -229.5t-155 -168.5t-204.5 -62q-112 0 -195.5 61t-123.5 160v-201h-168v1079h-129zM604 123q122 0 205.5 89.5t83.5 227.5
t-83.5 228t-205.5 90q-109 0 -195.5 -91.5t-86.5 -226.5t86.5 -226t195.5 -91z" />
    <glyph glyph-name="florin" unicode="&#x192;" horiz-adv-x="804" 
d="M76 743v138h237v96q0 195 92.5 295t241.5 100q184 0 260 -131l-114 -104q-67 88 -166 88q-160 0 -160 -203q0 -66 14 -141h271v-138h-263v-798q0 -196 -92 -296t-241 -100q-183 0 -260 132l114 104q70 -88 168 -88q30 0 52 7.5t42 26.5t30.5 58.5t10.5 97.5v856h-237z
" />
    <glyph glyph-name="Ohorn" unicode="&#x1a0;" horiz-adv-x="1458" 
d="M729 -20q-129 0 -245 56t-197.5 150t-129.5 222t-48 268q0 139 48 266.5t129.5 222t197.5 151t245 56.5q225 0 393 -158q103 114 103 263h141q0 -205 -170 -344q73 -94 113.5 -212t40.5 -245q0 -188 -81 -347.5t-224.5 -254t-315.5 -94.5zM729 137q189 0 308.5 150.5
t119.5 388.5t-119.5 388t-308.5 150t-308.5 -150t-119.5 -388t119.5 -388.5t308.5 -150.5z" />
    <glyph glyph-name="ohorn" unicode="&#x1a1;" horiz-adv-x="1097" 
d="M549 -20q-120 0 -225.5 63t-168.5 169.5t-63 227.5t63 227.5t168.5 170t225.5 63.5q143 0 268 -94q60 88 60 207h141q0 -162 -127 -277q115 -131 115 -297q0 -121 -63 -227.5t-168.5 -169.5t-225.5 -63zM549 123q120 0 202.5 89.5t82.5 227.5t-82.5 228t-202.5 90
q-121 0 -203 -90t-82 -228t82 -227.5t203 -89.5z" />
    <glyph glyph-name="Uhorn" unicode="&#x1af;" horiz-adv-x="1380" 
d="M690 -20q-243 0 -379.5 138t-136.5 390v844h184v-850q0 -176 86.5 -270.5t245.5 -94.5q157 0 244.5 94t87.5 271v850h145q37 78 37 174h137q0 -157 -135 -283v-735q0 -252 -136.5 -390t-379.5 -138z" />
    <glyph glyph-name="uhorn" unicode="&#x1b0;" horiz-adv-x="1107" 
d="M459 -20q-143 0 -222 83.5t-79 237.5v580h55q83 0 113 12v-567q0 -107 43 -153t137 -46q125 0 199.5 75.5t74.5 209.5v469h105q51 77 51 194h141q0 -165 -129 -276v-799h-168v180q-41 -97 -125 -148.5t-196 -51.5z" />
    <glyph glyph-name="uni01CD" unicode="&#x1cd;" horiz-adv-x="1228" 
d="M20 0l502 1352h185l501 -1352h-198l-113 315h-575l-111 -315h-191zM610 1143l-245 -688h489zM549 1446l-264 336h100l229 -203l230 203h100l-264 -336h-131z" />
    <glyph glyph-name="uni01CE" unicode="&#x1ce;" horiz-adv-x="993" 
d="M375 -20q-135 0 -210 61.5t-75 177.5q0 48 14.5 86.5t44 64.5t62 44.5t80.5 31t87 19.5t93 14q38 4 56.5 6.5t44.5 7.5t37.5 10t25.5 14t19.5 21t9.5 29t4 39q0 80 -45 119t-142 39q-175 0 -233 -123l-117 70q42 91 140.5 140.5t230.5 49.5q162 0 248 -81.5t86 -244.5
v-575h-164v152q-70 -172 -297 -172zM412 102q113 0 185.5 67t72.5 200v77q-21 -38 -56 -50.5t-122 -24.5q-118 -16 -155 -30q-82 -32 -83 -112q0 -127 158 -127zM436 995l-264 336h100l230 -203l229 203h100l-264 -336h-131z" />
    <glyph glyph-name="uni01CF" unicode="&#x1cf;" horiz-adv-x="540" 
d="M178 0v1352h184v-1352h-184zM199 1446l-160 336h92l139 -211l140 211h92l-160 -336h-143z" />
    <glyph glyph-name="uni01D0" unicode="&#x1d0;" horiz-adv-x="487" 
d="M160 0v881h55q83 0 113 12v-893h-168zM172 995l-160 336h92l140 -211l139 211h92l-160 -336h-143z" />
    <glyph glyph-name="uni01D1" unicode="&#x1d1;" horiz-adv-x="1458" 
d="M729 -20q-129 0 -245 56t-197.5 150t-129.5 222t-48 268q0 139 48 266.5t129.5 222t197.5 151t245 56.5q172 0 315.5 -95.5t224.5 -255t81 -345.5q0 -188 -81 -347.5t-224.5 -254t-315.5 -94.5zM729 137q189 0 308.5 150.5t119.5 388.5t-119.5 388t-308.5 150
t-308.5 -150t-119.5 -388t119.5 -388.5t308.5 -150.5zM664 1446l-265 336h101l229 -203l229 203h101l-264 -336h-131z" />
    <glyph glyph-name="uni01D2" unicode="&#x1d2;" horiz-adv-x="1097" 
d="M549 123q120 0 202.5 89.5t82.5 227.5t-82.5 228t-202.5 90q-121 0 -203 -90t-82 -228t82 -227.5t203 -89.5zM549 -20q-120 0 -225.5 63t-168.5 169.5t-63 227.5t63 227.5t168.5 170t225.5 63.5t225.5 -63.5t168.5 -170t63 -227.5t-63 -227.5t-168.5 -169.5t-225.5 -63z
M483 995l-264 336h100l230 -203l229 203h101l-265 -336h-131z" />
    <glyph glyph-name="uni01D3" unicode="&#x1d3;" horiz-adv-x="1380" 
d="M690 -20q-243 0 -379.5 138t-136.5 390v844h184v-850q0 -176 86.5 -270.5t245.5 -94.5q157 0 244.5 94t87.5 271v850h184v-844q0 -252 -136.5 -390t-379.5 -138zM625 1446l-265 336h101l229 -203l230 203h100l-264 -336h-131z" />
    <glyph glyph-name="uni01D4" unicode="&#x1d4;" horiz-adv-x="1107" 
d="M459 -20q-143 0 -222 83.5t-79 237.5v580h55q83 0 113 12v-567q0 -107 43 -153t137 -46q125 0 199.5 75.5t74.5 209.5v469h56q82 0 112 12v-893h-168v180q-41 -97 -125 -148.5t-196 -51.5zM485 995l-264 336h101l229 -203l229 203h101l-265 -336h-131z" />
    <glyph glyph-name="uni01D5" unicode="&#x1d5;" horiz-adv-x="1380" 
d="M690 -20q-243 0 -379.5 138t-136.5 390v844h184v-850q0 -176 86.5 -270.5t245.5 -94.5q157 0 244.5 94t87.5 271v850h184v-844q0 -252 -136.5 -390t-379.5 -138zM494 1477q-42 0 -69.5 26.5t-27.5 67.5t27.5 67.5t69.5 26.5q41 0 68.5 -26.5t27.5 -67.5t-27.5 -67.5
t-68.5 -26.5zM436 1796v115h508v-115h-508zM887 1477q-41 0 -68.5 26.5t-27.5 67.5t27.5 67.5t68.5 26.5t68.5 -26.5t27.5 -67.5t-27.5 -67.5t-68.5 -26.5z" />
    <glyph glyph-name="uni01D6" unicode="&#x1d6;" horiz-adv-x="1107" 
d="M459 -20q-143 0 -222 83.5t-79 237.5v580h55q83 0 113 12v-567q0 -107 43 -153t137 -46q125 0 199.5 75.5t74.5 209.5v469h56q82 0 112 12v-893h-168v180q-41 -97 -125 -148.5t-196 -51.5zM354 1026q-41 0 -68.5 26.5t-27.5 67.5t27.5 67.5t68.5 26.5q42 0 69.5 -26.5
t27.5 -67.5t-27.5 -67.5t-69.5 -26.5zM297 1346v114h508v-114h-508zM748 1026q-42 0 -69.5 26.5t-27.5 67.5t27.5 67.5t69.5 26.5q41 0 68.5 -26.5t27.5 -67.5t-27.5 -67.5t-68.5 -26.5z" />
    <glyph glyph-name="uni01D7" unicode="&#x1d7;" horiz-adv-x="1380" 
d="M690 -20q-243 0 -379.5 138t-136.5 390v844h184v-850q0 -176 86.5 -270.5t245.5 -94.5q157 0 244.5 94t87.5 271v850h184v-844q0 -252 -136.5 -390t-379.5 -138zM494 1477q-42 0 -69.5 26.5t-27.5 67.5t27.5 67.5t69.5 26.5q41 0 68.5 -26.5t27.5 -67.5t-27.5 -67.5
t-68.5 -26.5zM887 1477q-41 0 -68.5 26.5t-27.5 67.5t27.5 67.5t68.5 26.5t68.5 -26.5t27.5 -67.5t-27.5 -67.5t-68.5 -26.5zM641 1733l270 329l121 -104l-291 -225h-100z" />
    <glyph glyph-name="uni01D8" unicode="&#x1d8;" horiz-adv-x="1107" 
d="M459 -20q-143 0 -222 83.5t-79 237.5v580h55q83 0 113 12v-567q0 -107 43 -153t137 -46q125 0 199.5 75.5t74.5 209.5v469h56q82 0 112 12v-893h-168v180q-41 -97 -125 -148.5t-196 -51.5zM354 1026q-41 0 -68.5 26.5t-27.5 67.5t27.5 67.5t68.5 26.5q42 0 69.5 -26.5
t27.5 -67.5t-27.5 -67.5t-69.5 -26.5zM748 1026q-42 0 -69.5 26.5t-27.5 67.5t27.5 67.5t69.5 26.5q41 0 68.5 -26.5t27.5 -67.5t-27.5 -67.5t-68.5 -26.5zM502 1282l270 330l121 -105l-291 -225h-100z" />
    <glyph glyph-name="uni01D9" unicode="&#x1d9;" horiz-adv-x="1380" 
d="M690 -20q-243 0 -379.5 138t-136.5 390v844h184v-850q0 -176 86.5 -270.5t245.5 -94.5q157 0 244.5 94t87.5 271v850h184v-844q0 -252 -136.5 -390t-379.5 -138zM625 1733l-265 315h101l229 -193l230 193h100l-264 -315h-131zM494 1477q-42 0 -69.5 26.5t-27.5 67.5
t27.5 67.5t69.5 26.5q41 0 68.5 -26.5t27.5 -67.5t-27.5 -67.5t-68.5 -26.5zM887 1477q-41 0 -68.5 26.5t-27.5 67.5t27.5 67.5t68.5 26.5t68.5 -26.5t27.5 -67.5t-27.5 -67.5t-68.5 -26.5z" />
    <glyph glyph-name="uni01DA" unicode="&#x1da;" horiz-adv-x="1107" 
d="M459 -20q-143 0 -222 83.5t-79 237.5v580h55q83 0 113 12v-567q0 -107 43 -153t137 -46q125 0 199.5 75.5t74.5 209.5v469h56q82 0 112 12v-893h-168v180q-41 -97 -125 -148.5t-196 -51.5zM485 1282l-264 315h101l229 -192l229 192h101l-265 -315h-131zM354 1026
q-41 0 -68.5 26.5t-27.5 67.5t27.5 67.5t68.5 26.5q42 0 69.5 -26.5t27.5 -67.5t-27.5 -67.5t-69.5 -26.5zM748 1026q-42 0 -69.5 26.5t-27.5 67.5t27.5 67.5t69.5 26.5q41 0 68.5 -26.5t27.5 -67.5t-27.5 -67.5t-68.5 -26.5z" />
    <glyph glyph-name="uni01DB" unicode="&#x1db;" horiz-adv-x="1380" 
d="M690 -20q-243 0 -379.5 138t-136.5 390v844h184v-850q0 -176 86.5 -270.5t245.5 -94.5q157 0 244.5 94t87.5 271v850h184v-844q0 -252 -136.5 -390t-379.5 -138zM494 1477q-42 0 -69.5 26.5t-27.5 67.5t27.5 67.5t69.5 26.5q41 0 68.5 -26.5t27.5 -67.5t-27.5 -67.5
t-68.5 -26.5zM639 1733l-291 225l121 104l270 -329h-100zM887 1477q-41 0 -68.5 26.5t-27.5 67.5t27.5 67.5t68.5 26.5t68.5 -26.5t27.5 -67.5t-27.5 -67.5t-68.5 -26.5z" />
    <glyph glyph-name="uni01DC" unicode="&#x1dc;" horiz-adv-x="1107" 
d="M459 -20q-143 0 -222 83.5t-79 237.5v580h55q83 0 113 12v-567q0 -107 43 -153t137 -46q125 0 199.5 75.5t74.5 209.5v469h56q82 0 112 12v-893h-168v180q-41 -97 -125 -148.5t-196 -51.5zM354 1026q-41 0 -68.5 26.5t-27.5 67.5t27.5 67.5t68.5 26.5q42 0 69.5 -26.5
t27.5 -67.5t-27.5 -67.5t-69.5 -26.5zM500 1282l-291 225l121 105l270 -330h-100zM748 1026q-42 0 -69.5 26.5t-27.5 67.5t27.5 67.5t69.5 26.5q41 0 68.5 -26.5t27.5 -67.5t-27.5 -67.5t-68.5 -26.5z" />
    <glyph glyph-name="uni01E6" unicode="&#x1e6;" horiz-adv-x="1404" 
d="M772 -20q-152 0 -278.5 55t-210 149.5t-129 220.5t-45.5 269q0 196 82 356t227 251t323 91q176 0 312.5 -88t203.5 -250l-151 -88q-113 268 -371 268q-196 0 -315 -149t-119 -393q0 -155 50 -273.5t157 -190t260 -71.5q132 0 223 45q55 27 73.5 68t18.5 106v332h185v-524
q-77 -85 -212.5 -134.5t-283.5 -49.5zM657 1446l-264 336h101l229 -203l229 203h101l-265 -336h-131z" />
    <glyph glyph-name="uni01E7" unicode="&#x1e7;" horiz-adv-x="1157" 
d="M526 -451q-122 0 -217 39.5t-147 122.5l112 96q44 -61 103.5 -91.5t154.5 -30.5q152 0 224.5 77t72.5 232v207q-40 -99 -123.5 -160t-195.5 -61q-108 0 -204.5 62t-155 168.5t-58.5 229.5q0 122 58.5 229t155 169.5t204.5 62.5q112 0 195.5 -61t123.5 -160v201h56
q82 0 112 12v-873q0 -224 -126.5 -347.5t-344.5 -123.5zM553 123q109 0 196 91.5t87 225.5q0 135 -87 226.5t-196 91.5q-122 0 -205.5 -90t-83.5 -228t83.5 -227.5t205.5 -89.5zM489 995l-264 336h101l229 -203l229 203h101l-264 -336h-132z" />
    <glyph glyph-name="uni01EA" unicode="&#x1ea;" horiz-adv-x="1458" 
d="M731 -451q-87 0 -139.5 45t-52.5 117q0 133 213 269h-23q-129 0 -245 56t-197.5 150t-129.5 222t-48 268q0 139 48 266.5t129.5 222t197.5 151t245 56.5q172 0 315.5 -95.5t224.5 -255t81 -345.5q0 -222 -107.5 -394.5t-261.5 -242.5q-170 -79 -244.5 -160.5
t-74.5 -150.5q0 -41 22 -62.5t61 -21.5q45 0 73 25t48 75l84 -33q-52 -162 -219 -162zM729 137q189 0 308.5 150.5t119.5 388.5t-119.5 388t-308.5 150t-308.5 -150t-119.5 -388t119.5 -388.5t308.5 -150.5z" />
    <glyph glyph-name="uni01EB" unicode="&#x1eb;" horiz-adv-x="1097" 
d="M539 -451q-87 0 -140 45t-53 117q0 137 209 269h-6q-120 0 -225.5 63t-168.5 169.5t-63 227.5t63 227.5t168.5 170t225.5 63.5t225.5 -63.5t168.5 -170t63 -227.5q0 -128 -68.5 -234t-167.5 -165q-301 -173 -301 -313q0 -41 22.5 -62.5t61.5 -21.5q45 0 73 25t48 75
l84 -33q-52 -162 -219 -162zM549 123q120 0 202.5 89.5t82.5 227.5t-82.5 228t-202.5 90q-121 0 -203 -90t-82 -228t82 -227.5t203 -89.5z" />
    <glyph glyph-name="uni01F8" unicode="&#x1f8;" horiz-adv-x="1368" 
d="M178 0v1352h172l670 -1051v1051h170v-1352h-172l-670 1051v-1051h-170zM627 1446l-305 246l120 104l285 -350h-100z" />
    <glyph glyph-name="uni01F9" unicode="&#x1f9;" horiz-adv-x="1114" 
d="M160 0v881h55q83 0 113 12v-195q41 98 127 150.5t198 52.5q143 0 223 -83.5t80 -237.5v-580h-168v555q0 107 -44 153t-138 46q-127 0 -202.5 -75.5t-75.5 -209.5v-469h-168zM510 995l-305 246l121 105l284 -351h-100z" />
    <glyph glyph-name="AEacute" unicode="&#x1fc;" horiz-adv-x="1712" 
d="M793 0v315h-471l-111 -315h-191l502 1352h1077v-146h-622v-438h569v-145h-569v-478h622v-145h-806zM643 1206l-276 -751h426v751h-150zM836 1446l284 350l121 -104l-305 -246h-100z" />
    <glyph glyph-name="aeacute" unicode="&#x1fd;" horiz-adv-x="1617" 
d="M379 -20q-136 0 -212.5 61.5t-76.5 175.5q0 57 21.5 100t54.5 70t86 46t102 28.5t117 17.5q38 4 56.5 6.5t44.5 7.5t37.5 10t25.5 14t19.5 21t9.5 29t4 39q0 80 -45 119t-142 39q-175 0 -233 -123l-117 70q42 88 138.5 139t230.5 51q232 0 297 -160q133 160 315 160
q172 0 293 -139t121 -352h-690q5 -127 86.5 -210t218.5 -83q181 0 250 157l125 -67q-51 -107 -147 -167t-228 -60q-127 0 -230.5 54t-167.5 148q-44 -97 -139.5 -149.5t-224.5 -52.5zM1100 774q-105 0 -177.5 -73.5t-84.5 -178.5h524q-12 105 -84.5 178.5t-177.5 73.5z
M412 102q113 0 185.5 67t72.5 200v77q-21 -38 -56 -50.5t-122 -24.5q-118 -16 -155 -30q-82 -32 -83 -112q0 -127 158 -127zM702 995l285 351l121 -105l-305 -246h-101z" />
    <glyph glyph-name="Oslashacute" unicode="&#x1fe;" horiz-adv-x="1458" 
d="M211 -86l-117 92l168 209q-153 199 -153 461q0 139 48 266.5t129.5 222t197.5 151t245 56.5q204 0 361 -129l157 195l117 -92l-168 -211q73 -94 113.5 -212t40.5 -247q0 -188 -81 -347.5t-224.5 -254t-315.5 -94.5q-203 0 -360 126zM301 676q0 -193 78 -328l612 764
q-108 102 -262 102q-189 0 -308.5 -150t-119.5 -388zM729 137q189 0 308.5 150.5t119.5 388.5q0 185 -78 325l-614 -763q115 -101 264 -101zM680 1446l285 350l120 -104l-305 -246h-100z" />
    <glyph glyph-name="oslashacute" unicode="&#x1ff;" horiz-adv-x="1097" 
d="M188 -104l-102 84l127 153q-121 137 -121 307q0 121 63 227.5t168.5 170t225.5 63.5t231 -70l129 154l103 -84l-129 -156q123 -133 123 -305q0 -121 -63 -227.5t-168.5 -169.5t-225.5 -63q-127 0 -234 67zM549 123q120 0 202.5 89.5t82.5 227.5q0 120 -56 197l-379 -471
q64 -43 150 -43zM264 440q0 -114 55 -196l379 471q-68 43 -149 43q-121 0 -203 -90t-82 -228zM500 995l284 351l121 -105l-305 -246h-100z" />
    <glyph glyph-name="Scommaaccent" unicode="&#x218;" horiz-adv-x="1130" 
d="M543 -20q-151 0 -286 57t-200 153l123 121q57 -88 159.5 -132t217.5 -44q137 0 211 62t74 163q0 173 -217 222l-168 39q-163 38 -245.5 127t-82.5 219q0 172 132.5 288.5t334.5 116.5q132 0 255 -52t179 -136l-123 -121q-48 77 -134.5 115.5t-184.5 38.5
q-131 0 -202 -63.5t-71 -164.5q0 -169 211 -219l170 -37q157 -36 244.5 -126.5t87.5 -223.5q0 -171 -135 -287t-350 -116zM446 -481l-16 69q165 26 174 152q-21 -12 -45 -12q-39 0 -66.5 26.5t-27.5 67.5q0 42 27 68t71 26q57 0 93 -45t36 -119q0 -198 -246 -233z" />
    <glyph glyph-name="scommaaccent" unicode="&#x219;" horiz-adv-x="888" 
d="M416 -20q-116 0 -208.5 37t-133.5 100l96 106q95 -110 264 -110q98 0 153.5 32.5t55.5 94.5q0 46 -36.5 75.5t-123.5 46.5l-145 25q-112 19 -169.5 83.5t-57.5 150.5q0 121 105 200.5t255 79.5q103 0 187.5 -39t127.5 -106l-96 -107q-36 55 -98.5 87t-140.5 32
q-81 0 -130 -33.5t-49 -97.5q0 -53 36.5 -81.5t125.5 -45.5l129 -23q120 -23 181 -82.5t61 -146.5q0 -125 -111 -201.5t-278 -76.5zM326 -481l-17 69q165 26 174 152q-21 -12 -45 -12q-39 0 -66.5 26.5t-27.5 67.5q0 42 27 68t71 26q57 0 93 -45t36 -119q0 -199 -245 -233z
" />
    <glyph glyph-name="uni021A" unicode="&#x21a;" horiz-adv-x="1105" 
d="M461 0v1206h-422v146h1028v-146h-422v-1206h-184zM440 -481l-16 69q165 26 174 152q-21 -12 -45 -12q-39 0 -66.5 26.5t-27.5 67.5q0 42 27 68t71 26q57 0 93 -45t36 -119q0 -198 -246 -233z" />
    <glyph glyph-name="uni021B" unicode="&#x21b;" horiz-adv-x="763" 
d="M512 -20q-147 0 -232 96t-85 258v416h-172v114h22q104 0 142 45.5t38 139.5v110h25q82 0 112 12v-290h347v-131h-347v-439q0 -98 41.5 -145t108.5 -47q99 0 158 86l114 -78q-36 -71 -107.5 -109t-164.5 -38zM344 -481l-16 69q165 26 174 152q-21 -12 -45 -12
q-39 0 -67 27t-28 67q0 41 27.5 67.5t71.5 26.5q57 0 93 -45t36 -119q0 -198 -246 -233z" />
    <glyph glyph-name="uni0226" unicode="&#x226;" horiz-adv-x="1228" 
d="M20 0l502 1352h185l501 -1352h-198l-113 315h-575l-111 -315h-191zM610 1143l-245 -688h489zM614 1497q-41 0 -68.5 26.5t-27.5 67.5t27.5 68t68.5 27t69 -27t28 -68t-27.5 -67.5t-69.5 -26.5z" />
    <glyph glyph-name="uni0227" unicode="&#x227;" horiz-adv-x="993" 
d="M375 -20q-135 0 -210 61.5t-75 177.5q0 48 14.5 86.5t44 64.5t62 44.5t80.5 31t87 19.5t93 14q38 4 56.5 6.5t44.5 7.5t37.5 10t25.5 14t19.5 21t9.5 29t4 39q0 80 -45 119t-142 39q-175 0 -233 -123l-117 70q42 91 140.5 140.5t230.5 49.5q162 0 248 -81.5t86 -244.5
v-575h-164v152q-70 -172 -297 -172zM412 102q113 0 185.5 67t72.5 200v77q-21 -38 -56 -50.5t-122 -24.5q-118 -16 -155 -30q-82 -32 -83 -112q0 -127 158 -127zM502 1047q-41 0 -68.5 26.5t-27.5 67.5t27.5 67.5t68.5 26.5t68.5 -26.5t27.5 -67.5t-27.5 -67.5t-68.5 -26.5z
" />
    <glyph glyph-name="uni022E" unicode="&#x22e;" horiz-adv-x="1458" 
d="M729 -20q-129 0 -245 56t-197.5 150t-129.5 222t-48 268q0 139 48 266.5t129.5 222t197.5 151t245 56.5q172 0 315.5 -95.5t224.5 -255t81 -345.5q0 -188 -81 -347.5t-224.5 -254t-315.5 -94.5zM729 137q189 0 308.5 150.5t119.5 388.5t-119.5 388t-308.5 150
t-308.5 -150t-119.5 -388t119.5 -388.5t308.5 -150.5zM729 1497q-41 0 -68.5 26.5t-27.5 67.5t27.5 68t68.5 27t68.5 -27t27.5 -68t-27.5 -67.5t-68.5 -26.5z" />
    <glyph glyph-name="uni022F" unicode="&#x22f;" horiz-adv-x="1097" 
d="M549 123q120 0 202.5 89.5t82.5 227.5t-82.5 228t-202.5 90q-121 0 -203 -90t-82 -228t82 -227.5t203 -89.5zM549 -20q-120 0 -225.5 63t-168.5 169.5t-63 227.5t63 227.5t168.5 170t225.5 63.5t225.5 -63.5t168.5 -170t63 -227.5t-63 -227.5t-168.5 -169.5t-225.5 -63z
M549 1047q-41 0 -68.5 26.5t-27.5 67.5t27.5 67.5t68.5 26.5t68.5 -26.5t27.5 -67.5t-27.5 -67.5t-68.5 -26.5z" />
    <glyph glyph-name="uni0237" unicode="&#x237;" horiz-adv-x="487" 
d="M-6 -451q-166 0 -240 127l115 88q30 -44 61.5 -60.5t79.5 -16.5q71 0 110.5 42.5t39.5 157.5v994h55q83 0 113 12v-977q0 -174 -93.5 -270.5t-240.5 -96.5z" />
    <glyph glyph-name="uni0243" unicode="&#x243;" horiz-adv-x="1236" 
d="M188 0v326h-131v133h131v893h361q253 0 382.5 -84.5t129.5 -249.5q0 -119 -68.5 -198t-201.5 -103v-4q165 -19 255.5 -106.5t90.5 -229.5q0 -181 -146.5 -279t-423.5 -98h-379zM373 143h196q196 0 289.5 63t93.5 189q0 246 -356 246h-223v-186h282v-125h-282v-187z
M373 1208v-434h221q139 0 211 56.5t72 162.5q0 109 -81 162t-253 53h-170z" />
    <glyph glyph-name="uni02BB" unicode="&#x2bb;" horiz-adv-x="1024" 
d="M510 981q-57 0 -93 45t-36 119q0 97 62 156.5t184 76.5l16 -69q-165 -26 -174 -152q21 12 45 12q39 0 66.5 -26.5t27.5 -67.5q0 -42 -27 -68t-71 -26z" />
    <glyph glyph-name="uni02BC" unicode="&#x2bc;" horiz-adv-x="1024" 
d="M467 973l-76 14l84 459l162 -27z" />
    <glyph glyph-name="circumflex" unicode="&#x2c6;" horiz-adv-x="1024" 
d="M182 995l264 336h132l264 -336h-101l-229 203l-229 -203h-101z" />
    <glyph glyph-name="caron" unicode="&#x2c7;" horiz-adv-x="1024" 
d="M446 995l-264 336h101l229 -203l229 203h101l-264 -336h-132z" />
    <glyph glyph-name="breve" unicode="&#x2d8;" horiz-adv-x="1024" 
d="M512 989q-84 0 -146.5 29.5t-98.5 80t-54.5 108t-22.5 124.5h93q8 -92 68.5 -159.5t160.5 -67.5t160.5 67.5t68.5 159.5h93q-4 -67 -22.5 -124.5t-54.5 -108t-98.5 -80t-146.5 -29.5z" />
    <glyph glyph-name="dotaccent" unicode="&#x2d9;" horiz-adv-x="1024" 
d="M512 1047q-41 0 -68.5 26.5t-27.5 67.5t27.5 67.5t68.5 26.5t68.5 -26.5t27.5 -67.5t-27.5 -67.5t-68.5 -26.5z" />
    <glyph glyph-name="ring" unicode="&#x2da;" horiz-adv-x="1024" 
d="M512 985q-92 0 -151.5 56.5t-59.5 142.5t59.5 142t151.5 56t151.5 -56t59.5 -142t-59.5 -142.5t-151.5 -56.5zM512 1075q47 0 78 31t31 78t-31 77.5t-78 30.5t-78 -30.5t-31 -77.5t31 -78t78 -31z" />
    <glyph glyph-name="ogonek" unicode="&#x2db;" horiz-adv-x="1024" 
d="M500 -451q-87 0 -140 45t-53 117q0 146 242 289h106q-121 -86 -173 -149t-52 -123q0 -41 22.5 -62.5t61.5 -21.5q45 0 73 25t48 75l84 -33q-52 -162 -219 -162z" />
    <glyph glyph-name="tilde" unicode="&#x2dc;" horiz-adv-x="1024" 
d="M260 995h-92q23 129 80.5 197t142.5 68q54 0 121 -33q79 -37 123 -37q54 0 84.5 35t44.5 106h92q-23 -129 -80.5 -196.5t-142.5 -67.5q-54 0 -121 33q-79 37 -123 37q-54 0 -84.5 -35.5t-44.5 -106.5z" />
    <glyph glyph-name="hungarumlaut" unicode="&#x2dd;" horiz-adv-x="1024" 
d="M115 995l284 351l121 -105l-305 -246h-100zM504 995l284 351l121 -105l-305 -246h-100z" />
    <glyph glyph-name="uni0300" unicode="&#x300;" 
d="M-49 995l-305 246l121 105l284 -351h-100z" />
    <glyph glyph-name="uni0301" unicode="&#x301;" 
d="M-47 995l285 351l120 -105l-305 -246h-100z" />
    <glyph glyph-name="uni0302" unicode="&#x302;" 
d="M-328 995l265 336h131l264 -336h-101l-229 203l-229 -203h-101z" />
    <glyph glyph-name="uni0303" unicode="&#x303;" 
d="M-250 995h-92q23 129 80.5 197t142.5 68q54 0 121 -33q79 -37 123 -37q54 0 84.5 35t44.5 106h92q-23 -129 -80.5 -196.5t-142.5 -67.5q-54 0 -121 33q-79 37 -123 37q-54 0 -84.5 -35.5t-44.5 -106.5z" />
    <glyph glyph-name="uni0304" unicode="&#x304;" 
d="M-293 1071v115h590v-115h-590z" />
    <glyph glyph-name="uni0306" unicode="&#x306;" 
d="M2 989q-84 0 -146.5 29.5t-98 80t-54 108t-22.5 124.5h92q8 -92 68.5 -159.5t160.5 -67.5t160.5 67.5t68.5 159.5h93q-4 -67 -22.5 -124.5t-54.5 -108t-98.5 -80t-146.5 -29.5z" />
    <glyph glyph-name="uni0307" unicode="&#x307;" 
d="M2 1047q-41 0 -68.5 26.5t-27.5 67.5t27.5 67.5t68.5 26.5t68.5 -26.5t27.5 -67.5t-27.5 -67.5t-68.5 -26.5z" />
    <glyph glyph-name="uni0308" unicode="&#x308;" 
d="M-195 1047q-41 0 -68.5 26.5t-27.5 67.5t27.5 67.5t68.5 26.5q42 0 69.5 -26.5t27.5 -67.5t-27.5 -67.5t-69.5 -26.5zM199 1047q-42 0 -69.5 26.5t-27.5 67.5t27.5 67.5t69.5 26.5q41 0 68.5 -26.5t27.5 -67.5t-27.5 -67.5t-68.5 -26.5z" />
    <glyph glyph-name="uni0309" unicode="&#x309;" 
d="M-55 995l49 101q20 41 20 69q0 25 -14 39.5t-49 24.5l-141 39l43 118l157 -43q137 -38 137 -137q0 -59 -53 -139l-45 -72h-104z" />
    <glyph glyph-name="uni030A" unicode="&#x30a;" 
d="M2 985q-92 0 -151.5 56.5t-59.5 142.5t59.5 142t151.5 56t151.5 -56t59.5 -142t-59.5 -142.5t-151.5 -56.5zM2 1075q47 0 78 31t31 78t-31 77.5t-78 30.5t-77.5 -30.5t-30.5 -77.5t30.5 -78t77.5 -31z" />
    <glyph glyph-name="uni030B" unicode="&#x30b;" 
d="M-242 995l285 351l121 -105l-305 -246h-101zM147 995l285 351l121 -105l-305 -246h-101z" />
    <glyph glyph-name="uni030C" unicode="&#x30c;" 
d="M-63 995l-265 336h101l229 -203l229 203h101l-264 -336h-131z" />
    <glyph glyph-name="uni030D" unicode="&#x30d;" 
d="M-53 975v418h106v-418h-106z" />
    <glyph glyph-name="uni030E" unicode="&#x30e;" 
d="M-215 975v418h106v-418h-106zM111 975v418h106v-418h-106z" />
    <glyph glyph-name="uni030F" unicode="&#x30f;" 
d="M-246 995l-305 246l121 105l285 -351h-101zM143 995l-305 246l121 105l285 -351h-101z" />
    <glyph glyph-name="uni0312" unicode="&#x312;" 
d="M-8 981q-57 0 -93 45t-36 119q0 97 62 156.5t184 76.5l16 -69q-165 -26 -174 -152q21 12 45 12q39 0 66.5 -26.5t27.5 -67.5q0 -42 -27 -68t-71 -26z" />
    <glyph glyph-name="uni0313" unicode="&#x313;" 
d="M-106 981l-17 70q164 23 174 149q-20 -10 -45 -10q-39 0 -66.5 26.5t-27.5 67.5q0 42 27 68t71 26q57 0 93 -45t36 -119q0 -199 -245 -233z" />
    <glyph glyph-name="uni0315" unicode="&#x315;" 
d="M2 973l-76 14l84 459l162 -27z" />
    <glyph glyph-name="uni031B" unicode="&#x31b;" 
d="M-55 764l-64 55q53 58 74.5 118.5t21.5 137.5h142q0 -195 -174 -311z" />
    <glyph glyph-name="uni0323" unicode="&#x323;" 
d="M0 -338q-41 0 -68.5 26.5t-27.5 67.5t27.5 67.5t68.5 26.5t68.5 -26.5t27.5 -67.5t-27.5 -67.5t-68.5 -26.5z" />
    <glyph glyph-name="uni0324" unicode="&#x324;" 
d="M-197 -338q-41 0 -68.5 26.5t-27.5 67.5t27.5 67.5t68.5 26.5q42 0 69.5 -26.5t27.5 -67.5t-27.5 -67.5t-69.5 -26.5zM197 -338q-42 0 -69.5 26.5t-27.5 67.5t27.5 67.5t69.5 26.5q41 0 68.5 -26.5t27.5 -67.5t-27.5 -67.5t-68.5 -26.5z" />
    <glyph glyph-name="uni0326" unicode="&#x326;" 
d="M-113 -481l-16 69q165 26 174 152q-21 -12 -45 -12q-39 0 -66.5 26.5t-27.5 67.5q0 42 27 68t71 26q57 0 93 -45t36 -119q0 -198 -246 -233z" />
    <glyph glyph-name="uni0327" unicode="&#x327;" 
d="M-45 -451q-71 0 -132 28.5t-91 78.5l73 61q52 -73 138 -73q48 0 77 23t29 65q0 97 -149 121l59 147h86l-37 -96q78 -17 121 -62.5t43 -111.5q0 -80 -59.5 -130.5t-157.5 -50.5z" />
    <glyph glyph-name="uni0328" unicode="&#x328;" 
d="M-154 -451q-87 0 -139.5 45t-52.5 117q0 146 242 289h106q-121 -86 -173 -149t-52 -123q0 -41 22.5 -62.5t61.5 -21.5q45 0 73 25t48 75l84 -33q-52 -162 -220 -162z" />
    <glyph glyph-name="uni032E" unicode="&#x32e;" 
d="M0 -397q-67 0 -121.5 18t-90 46.5t-60 68.5t-36 80.5t-14.5 85.5h93q8 -73 69 -129t160 -56t160 56t69 129h93q-3 -45 -14.5 -85.5t-36 -80.5t-60 -68.5t-90 -46.5t-121.5 -18z" />
    <glyph glyph-name="uni0331" unicode="&#x331;" 
d="M-254 -299v115h508v-115h-508z" />
    <glyph glyph-name="uni0340" unicode="&#x340;" 
d="M-49 995l-305 246l121 105l284 -351h-100z" />
    <glyph glyph-name="uni0341" unicode="&#x341;" 
d="M-47 995l285 351l120 -105l-305 -246h-100z" />
    <glyph glyph-name="uni0342" unicode="&#x342;" 
d="M-250 995h-92q23 129 80.5 197t142.5 68q54 0 121 -33q79 -37 123 -37q54 0 84.5 35t44.5 106h92q-23 -129 -80.5 -196.5t-142.5 -67.5q-54 0 -121 33q-79 37 -123 37q-54 0 -84.5 -35.5t-44.5 -106.5z" />
    <glyph glyph-name="uni0343" unicode="&#x343;" 
d="M-106 981l-17 70q164 23 174 149q-20 -10 -45 -10q-39 0 -66.5 26.5t-27.5 67.5q0 42 27 68t71 26q57 0 93 -45t36 -119q0 -199 -245 -233z" />
    <glyph glyph-name="pi" unicode="&#x3c0;" horiz-adv-x="1228" 
d="M215 0v881h797v-881h-168v750h-461v-750h-168z" />
    <glyph glyph-name="uni1E04" unicode="&#x1e04;" horiz-adv-x="1226" 
d="M178 0v1352h361q253 0 382.5 -84.5t129.5 -249.5q0 -119 -69 -198t-202 -103v-4q165 -19 255.5 -106.5t90.5 -229.5q0 -181 -146 -279t-423 -98h-379zM362 143h197q196 0 289.5 63t93.5 189q0 246 -356 246h-224v-498zM362 1208v-434h222q139 0 210.5 56.5t71.5 162.5
q0 109 -81 162t-253 53h-170zM608 -338q-41 0 -68.5 26.5t-27.5 67.5t27.5 67.5t68.5 26.5q42 0 69.5 -26.5t27.5 -67.5t-27.5 -67.5t-69.5 -26.5z" />
    <glyph glyph-name="uni1E05" unicode="&#x1e05;" horiz-adv-x="1157" 
d="M647 -20q-112 0 -195.5 61t-123.5 160v-201h-168v1352h55q83 0 113 12v-684q40 99 123.5 160t195.5 61q108 0 204.5 -62.5t155 -169.5t58.5 -229q0 -123 -58.5 -229.5t-155 -168.5t-204.5 -62zM604 123q122 0 205.5 89.5t83.5 227.5t-83.5 228t-205.5 90
q-109 0 -195.5 -91.5t-86.5 -226.5t86.5 -226t195.5 -91zM608 -338q-41 0 -68.5 26.5t-27.5 67.5t27.5 67.5t68.5 26.5q42 0 69.5 -26.5t27.5 -67.5t-27.5 -67.5t-69.5 -26.5z" />
    <glyph glyph-name="uni1E0C" unicode="&#x1e0c;" horiz-adv-x="1398" 
d="M178 0v1352h447q201 0 352.5 -86t232 -239t80.5 -351t-80.5 -351t-232 -239t-352.5 -86h-447zM616 1208h-254v-1065h254q232 0 357 141.5t125 391.5t-125 391t-357 141zM627 -338q-42 0 -69.5 26.5t-27.5 67.5t27.5 67.5t69.5 26.5q41 0 68.5 -26.5t27.5 -67.5
t-27.5 -67.5t-68.5 -26.5z" />
    <glyph glyph-name="uni1E0D" unicode="&#x1e0d;" horiz-adv-x="1157" 
d="M510 -20q-108 0 -204.5 62t-155 168.5t-58.5 229.5q0 122 58.5 229t155 169.5t204.5 62.5q112 0 195.5 -61t123.5 -160v672h56q82 0 112 12v-1364h-168v201q-40 -99 -123.5 -160t-195.5 -61zM553 123q109 0 196 91.5t87 225.5q0 135 -87 226.5t-196 91.5
q-122 0 -205.5 -90t-83.5 -228t83.5 -227.5t205.5 -89.5zM582 -338q-42 0 -69.5 26.5t-27.5 67.5t27.5 67.5t69.5 26.5q41 0 68.5 -26.5t27.5 -67.5t-27.5 -67.5t-68.5 -26.5z" />
    <glyph glyph-name="uni1E0E" unicode="&#x1e0e;" horiz-adv-x="1398" 
d="M178 0v1352h447q201 0 352.5 -86t232 -239t80.5 -351t-80.5 -351t-232 -239t-352.5 -86h-447zM616 1208h-254v-1065h254q232 0 357 141.5t125 391.5t-125 391t-357 141zM373 -299v115h508v-115h-508z" />
    <glyph glyph-name="uni1E0F" unicode="&#x1e0f;" horiz-adv-x="1157" 
d="M510 -20q-108 0 -204.5 62t-155 168.5t-58.5 229.5q0 122 58.5 229t155 169.5t204.5 62.5q112 0 195.5 -61t123.5 -160v672h56q82 0 112 12v-1364h-168v201q-40 -99 -123.5 -160t-195.5 -61zM553 123q109 0 196 91.5t87 225.5q0 135 -87 226.5t-196 91.5
q-122 0 -205.5 -90t-83.5 -228t83.5 -227.5t205.5 -89.5zM328 -299v115h508v-115h-508z" />
    <glyph glyph-name="uni1E20" unicode="&#x1e20;" horiz-adv-x="1404" 
d="M772 -20q-152 0 -278.5 55t-210 149.5t-129 220.5t-45.5 269q0 196 82 356t227 251t323 91q176 0 312.5 -88t203.5 -250l-151 -88q-113 268 -371 268q-196 0 -315 -149t-119 -393q0 -155 50 -273.5t157 -190t260 -71.5q132 0 223 45q55 27 73.5 68t18.5 106v332h185v-524
q-77 -85 -212.5 -134.5t-283.5 -49.5zM428 1522v114h590v-114h-590z" />
    <glyph glyph-name="uni1E21" unicode="&#x1e21;" horiz-adv-x="1157" 
d="M526 -451q-122 0 -217 39.5t-147 122.5l112 96q44 -61 103.5 -91.5t154.5 -30.5q152 0 224.5 77t72.5 232v207q-40 -99 -123.5 -160t-195.5 -61q-108 0 -204.5 62t-155 168.5t-58.5 229.5q0 122 58.5 229t155 169.5t204.5 62.5q112 0 195.5 -61t123.5 -160v201h56
q82 0 112 12v-873q0 -224 -126.5 -347.5t-344.5 -123.5zM553 123q109 0 196 91.5t87 225.5q0 135 -87 226.5t-196 91.5q-122 0 -205.5 -90t-83.5 -228t83.5 -227.5t205.5 -89.5zM260 1071v115h590v-115h-590z" />
    <glyph glyph-name="uni1E24" unicode="&#x1e24;" horiz-adv-x="1347" 
d="M985 0v612h-623v-612h-184v1352h184v-594h623v594h184v-1352h-184zM674 -338q-41 0 -68.5 26.5t-27.5 67.5t27.5 67.5t68.5 26.5t68.5 -26.5t27.5 -67.5t-27.5 -67.5t-68.5 -26.5z" />
    <glyph glyph-name="uni1E25" unicode="&#x1e25;" horiz-adv-x="1114" 
d="M160 0v1352h55q83 0 113 12v-666q41 98 127 150.5t198 52.5q143 0 223 -83.5t80 -237.5v-580h-168v555q0 107 -44 153t-138 46q-127 0 -202.5 -75.5t-75.5 -209.5v-469h-168zM559 -338q-41 0 -68.5 26.5t-27.5 67.5t27.5 67.5t68.5 26.5t68.5 -26.5t27.5 -67.5
t-27.5 -67.5t-68.5 -26.5z" />
    <glyph glyph-name="uni1E2A" unicode="&#x1e2a;" horiz-adv-x="1347" 
d="M985 0v612h-623v-612h-184v1352h184v-594h623v594h184v-1352h-184zM674 -397q-67 0 -121.5 18t-90 46.5t-60 68.5t-36 80.5t-14.5 85.5h92q8 -73 69.5 -129t160.5 -56t160 56t69 129h92q-4 -57 -22.5 -107t-54 -95t-98.5 -71t-146 -26z" />
    <glyph glyph-name="uni1E2B" unicode="&#x1e2b;" horiz-adv-x="1114" 
d="M160 0v1352h55q83 0 113 12v-666q41 98 127 150.5t198 52.5q143 0 223 -83.5t80 -237.5v-580h-168v555q0 107 -44 153t-138 46q-127 0 -202.5 -75.5t-75.5 -209.5v-469h-168zM559 -397q-83 0 -146 26t-98.5 71t-54 95t-22.5 107h92q8 -73 69 -129t160 -56t160 56t69 129
h93q-3 -45 -14.5 -85.5t-36 -80.5t-60 -68.5t-90 -46.5t-121.5 -18z" />
    <glyph glyph-name="uni1E32" unicode="&#x1e32;" horiz-adv-x="1241" 
d="M178 0v1352h184v-740l601 740h206l-479 -588l520 -764h-213l-430 643l-205 -227v-416h-184zM668 -338q-42 0 -69.5 26.5t-27.5 67.5t27.5 67.5t69.5 26.5q41 0 68.5 -26.5t27.5 -67.5t-27.5 -67.5t-68.5 -26.5z" />
    <glyph glyph-name="uni1E33" unicode="&#x1e33;" horiz-adv-x="997" 
d="M160 0v1352h55q83 0 113 12v-971l446 488h178l-336 -371l359 -510h-187l-282 408l-178 -177v-231h-168zM549 -338q-41 0 -68.5 26.5t-27.5 67.5t27.5 67.5t68.5 26.5t68.5 -26.5t27.5 -67.5t-27.5 -67.5t-68.5 -26.5z" />
    <glyph glyph-name="uni1E36" unicode="&#x1e36;" horiz-adv-x="1001" 
d="M178 0v1352h184v-1207h605v-145h-789zM571 -338q-41 0 -68.5 26.5t-27.5 67.5t27.5 67.5t68.5 26.5q42 0 69.5 -26.5t27.5 -67.5t-27.5 -67.5t-69.5 -26.5z" />
    <glyph glyph-name="uni1E37" unicode="&#x1e37;" horiz-adv-x="487" 
d="M160 0v1352h55q83 0 113 12v-1364h-168zM244 -338q-42 0 -69.5 26.5t-27.5 67.5t27.5 67.5t69.5 26.5q41 0 68.5 -26.5t27.5 -67.5t-27.5 -67.5t-68.5 -26.5z" />
    <glyph glyph-name="uni1E38" unicode="&#x1e38;" horiz-adv-x="1001" 
d="M178 0v1352h184v-1207h605v-145h-789zM39 1522v114h463v-114h-463zM571 -338q-41 0 -68.5 26.5t-27.5 67.5t27.5 67.5t68.5 26.5q42 0 69.5 -26.5t27.5 -67.5t-27.5 -67.5t-69.5 -26.5z" />
    <glyph glyph-name="uni1E39" unicode="&#x1e39;" horiz-adv-x="487" 
d="M160 0v1352h55q83 0 113 12v-1364h-168zM12 1522v114h463v-114h-463zM244 -338q-42 0 -69.5 26.5t-27.5 67.5t27.5 67.5t69.5 26.5q41 0 68.5 -26.5t27.5 -67.5t-27.5 -67.5t-68.5 -26.5z" />
    <glyph glyph-name="uni1E3A" unicode="&#x1e3a;" horiz-adv-x="1001" 
d="M178 0v1352h184v-1207h605v-145h-789zM317 -299v115h508v-115h-508z" />
    <glyph glyph-name="uni1E3B" unicode="&#x1e3b;" horiz-adv-x="487" 
d="M160 0v1352h55q83 0 113 12v-1364h-168zM12 -299v115h463v-115h-463z" />
    <glyph glyph-name="uni1E3E" unicode="&#x1e3e;" horiz-adv-x="1695" 
d="M178 0v1352h160l514 -854l514 854h152v-1352h-170v1022l-451 -743h-98l-451 743v-1022h-170zM799 1446l284 350l121 -104l-305 -246h-100z" />
    <glyph glyph-name="uni1E3F" unicode="&#x1e3f;" horiz-adv-x="1714" 
d="M160 0v881h55q83 0 113 12v-191q37 94 119 146.5t198 52.5q111 0 183.5 -55t99.5 -156q37 100 123 155.5t209 55.5q140 0 218 -85.5t78 -235.5v-580h-167v555q0 105 -43 152t-136 47q-124 0 -196 -75t-72 -210v-469h-168v555q0 105 -42.5 152t-135.5 47q-124 0 -196 -75
t-72 -210v-469h-168zM809 995l285 351l120 -105l-305 -246h-100z" />
    <glyph glyph-name="uni1E40" unicode="&#x1e40;" horiz-adv-x="1695" 
d="M178 0v1352h160l514 -854l514 854h152v-1352h-170v1022l-451 -743h-98l-451 743v-1022h-170zM848 1497q-41 0 -68.5 26.5t-27.5 67.5t27.5 68t68.5 27t68.5 -27t27.5 -68t-27.5 -67.5t-68.5 -26.5z" />
    <glyph glyph-name="uni1E41" unicode="&#x1e41;" horiz-adv-x="1714" 
d="M160 0v881h55q83 0 113 12v-191q37 94 119 146.5t198 52.5q111 0 183.5 -55t99.5 -156q37 100 123 155.5t209 55.5q140 0 218 -85.5t78 -235.5v-580h-167v555q0 105 -43 152t-136 47q-124 0 -196 -75t-72 -210v-469h-168v555q0 105 -42.5 152t-135.5 47q-124 0 -196 -75
t-72 -210v-469h-168zM858 1047q-41 0 -68.5 26.5t-27.5 67.5t27.5 67.5t68.5 26.5t68.5 -26.5t27.5 -67.5t-27.5 -67.5t-68.5 -26.5z" />
    <glyph glyph-name="uni1E42" unicode="&#x1e42;" horiz-adv-x="1695" 
d="M178 0v1352h160l514 -854l514 854h152v-1352h-170v1022l-451 -743h-98l-451 743v-1022h-170zM848 -338q-41 0 -68.5 26.5t-27.5 67.5t27.5 67.5t68.5 26.5t68.5 -26.5t27.5 -67.5t-27.5 -67.5t-68.5 -26.5z" />
    <glyph glyph-name="uni1E43" unicode="&#x1e43;" horiz-adv-x="1714" 
d="M160 0v881h55q83 0 113 12v-191q37 94 119 146.5t198 52.5q111 0 183.5 -55t99.5 -156q37 100 123 155.5t209 55.5q140 0 218 -85.5t78 -235.5v-580h-167v555q0 105 -43 152t-136 47q-124 0 -196 -75t-72 -210v-469h-168v555q0 105 -42.5 152t-135.5 47q-124 0 -196 -75
t-72 -210v-469h-168zM858 -338q-41 0 -68.5 26.5t-27.5 67.5t27.5 67.5t68.5 26.5t68.5 -26.5t27.5 -67.5t-27.5 -67.5t-68.5 -26.5z" />
    <glyph glyph-name="uni1E44" unicode="&#x1e44;" horiz-adv-x="1368" 
d="M178 0v1352h172l670 -1051v1051h170v-1352h-172l-670 1051v-1051h-170zM678 1497q-41 0 -68.5 26.5t-27.5 67.5t27.5 68t68.5 27t68.5 -27t27.5 -68t-27.5 -67.5t-68.5 -26.5z" />
    <glyph glyph-name="uni1E45" unicode="&#x1e45;" horiz-adv-x="1114" 
d="M160 0v881h55q83 0 113 12v-195q41 98 127 150.5t198 52.5q143 0 223 -83.5t80 -237.5v-580h-168v555q0 107 -44 153t-138 46q-127 0 -202.5 -75.5t-75.5 -209.5v-469h-168zM559 1047q-41 0 -68.5 26.5t-27.5 67.5t27.5 67.5t68.5 26.5t68.5 -26.5t27.5 -67.5
t-27.5 -67.5t-68.5 -26.5z" />
    <glyph glyph-name="uni1E46" unicode="&#x1e46;" horiz-adv-x="1368" 
d="M178 0v1352h172l670 -1051v1051h170v-1352h-172l-670 1051v-1051h-170zM678 -338q-41 0 -68.5 26.5t-27.5 67.5t27.5 67.5t68.5 26.5t68.5 -26.5t27.5 -67.5t-27.5 -67.5t-68.5 -26.5z" />
    <glyph glyph-name="uni1E47" unicode="&#x1e47;" horiz-adv-x="1114" 
d="M160 0v881h55q83 0 113 12v-195q41 98 127 150.5t198 52.5q143 0 223 -83.5t80 -237.5v-580h-168v555q0 107 -44 153t-138 46q-127 0 -202.5 -75.5t-75.5 -209.5v-469h-168zM559 -338q-41 0 -68.5 26.5t-27.5 67.5t27.5 67.5t68.5 26.5t68.5 -26.5t27.5 -67.5
t-27.5 -67.5t-68.5 -26.5z" />
    <glyph glyph-name="uni1E48" unicode="&#x1e48;" horiz-adv-x="1368" 
d="M178 0v1352h172l670 -1051v1051h170v-1352h-172l-670 1051v-1051h-170zM424 -299v115h508v-115h-508z" />
    <glyph glyph-name="uni1E49" unicode="&#x1e49;" horiz-adv-x="1114" 
d="M160 0v881h55q83 0 113 12v-195q41 98 127 150.5t198 52.5q143 0 223 -83.5t80 -237.5v-580h-168v555q0 107 -44 153t-138 46q-127 0 -202.5 -75.5t-75.5 -209.5v-469h-168zM305 -299v115h508v-115h-508z" />
    <glyph glyph-name="uni1E56" unicode="&#x1e56;" horiz-adv-x="1146" 
d="M178 0v1352h330q262 0 409.5 -106.5t147.5 -295.5t-147 -295t-410 -106h-146v-549h-184zM516 1208h-154v-516h154q181 0 268.5 62.5t87.5 195.5t-87.5 195.5t-268.5 62.5zM565 1497q-41 0 -68.5 26.5t-27.5 67.5t27.5 68t68.5 27t69 -27t28 -68t-27.5 -67.5t-69.5 -26.5z
" />
    <glyph glyph-name="uni1E57" unicode="&#x1e57;" horiz-adv-x="1157" 
d="M160 -430v1311h55q83 0 113 12v-213q40 99 123.5 160t195.5 61q108 0 204.5 -62.5t155 -169.5t58.5 -229q0 -123 -58.5 -229.5t-155 -168.5t-204.5 -62q-112 0 -195.5 61t-123.5 160v-631h-168zM604 123q122 0 205.5 89.5t83.5 227.5t-83.5 228t-205.5 90
q-109 0 -195.5 -91.5t-86.5 -226.5t86.5 -226t195.5 -91zM612 1047q-41 0 -68.5 26.5t-27.5 67.5t27.5 67.5t68.5 26.5q42 0 69.5 -26.5t27.5 -67.5t-27.5 -67.5t-69.5 -26.5z" />
    <glyph glyph-name="uni1E58" unicode="&#x1e58;" horiz-adv-x="1234" 
d="M178 0v1352h375q268 0 408.5 -93t140.5 -272q0 -137 -90.5 -222.5t-257.5 -105.5v-4q159 -11 233 -81.5t74 -231.5v-117q0 -139 61 -225h-192q-56 69 -56 213v113q0 145 -60 203.5t-204 58.5h-248v-588h-184zM547 1208h-185v-483h185q362 0 362 242q0 241 -362 241z
M614 1497q-41 0 -68.5 26.5t-27.5 67.5t27.5 68t68.5 27t69 -27t28 -68t-27.5 -67.5t-69.5 -26.5z" />
    <glyph glyph-name="uni1E59" unicode="&#x1e59;" horiz-adv-x="825" 
d="M160 0v881h55q83 0 113 12v-199q34 103 103.5 155t164.5 52q165 0 227 -164l-135 -90q-31 60 -62 85.5t-83 25.5q-95 0 -155 -75t-60 -208v-475h-168zM496 1047q-42 0 -69.5 26.5t-27.5 67.5t27.5 67.5t69.5 26.5q41 0 68.5 -26.5t27.5 -67.5t-27.5 -67.5t-68.5 -26.5z
" />
    <glyph glyph-name="uni1E5A" unicode="&#x1e5a;" horiz-adv-x="1234" 
d="M178 0v1352h375q268 0 408.5 -93t140.5 -272q0 -137 -90.5 -222.5t-257.5 -105.5v-4q159 -11 233 -81.5t74 -231.5v-117q0 -139 61 -225h-192q-56 69 -56 213v113q0 145 -60 203.5t-204 58.5h-248v-588h-184zM547 1208h-185v-483h185q362 0 362 242q0 241 -362 241z
M623 -338q-42 0 -69.5 26.5t-27.5 67.5t27.5 67.5t69.5 26.5q41 0 68.5 -26.5t27.5 -67.5t-27.5 -67.5t-68.5 -26.5z" />
    <glyph glyph-name="uni1E5B" unicode="&#x1e5b;" horiz-adv-x="825" 
d="M160 0v881h55q83 0 113 12v-199q34 103 103.5 155t164.5 52q165 0 227 -164l-135 -90q-31 60 -62 85.5t-83 25.5q-95 0 -155 -75t-60 -208v-475h-168zM244 -338q-42 0 -69.5 26.5t-27.5 67.5t27.5 67.5t69.5 26.5q41 0 68.5 -26.5t27.5 -67.5t-27.5 -67.5t-68.5 -26.5z
" />
    <glyph glyph-name="uni1E5C" unicode="&#x1e5c;" horiz-adv-x="1234" 
d="M178 0v1352h375q268 0 408.5 -93t140.5 -272q0 -137 -90.5 -222.5t-257.5 -105.5v-4q159 -11 233 -81.5t74 -231.5v-117q0 -139 61 -225h-192q-56 69 -56 213v113q0 145 -60 203.5t-204 58.5h-248v-588h-184zM547 1208h-185v-483h185q362 0 362 242q0 241 -362 241z
M319 1522v114h590v-114h-590zM623 -338q-42 0 -69.5 26.5t-27.5 67.5t27.5 67.5t69.5 26.5q41 0 68.5 -26.5t27.5 -67.5t-27.5 -67.5t-68.5 -26.5z" />
    <glyph glyph-name="uni1E5D" unicode="&#x1e5d;" horiz-adv-x="825" 
d="M160 0v881h55q83 0 113 12v-199q34 103 103.5 155t164.5 52q165 0 227 -164l-135 -90q-31 60 -62 85.5t-83 25.5q-95 0 -155 -75t-60 -208v-475h-168zM201 1071v115h590v-115h-590zM244 -338q-42 0 -69.5 26.5t-27.5 67.5t27.5 67.5t69.5 26.5q41 0 68.5 -26.5
t27.5 -67.5t-27.5 -67.5t-68.5 -26.5z" />
    <glyph glyph-name="uni1E5E" unicode="&#x1e5e;" horiz-adv-x="1234" 
d="M178 0v1352h375q268 0 408.5 -93t140.5 -272q0 -137 -90.5 -222.5t-257.5 -105.5v-4q159 -11 233 -81.5t74 -231.5v-117q0 -139 61 -225h-192q-56 69 -56 213v113q0 145 -60 203.5t-204 58.5h-248v-588h-184zM547 1208h-185v-483h185q362 0 362 242q0 241 -362 241z
M369 -299v115h508v-115h-508z" />
    <glyph glyph-name="uni1E5F" unicode="&#x1e5f;" horiz-adv-x="825" 
d="M160 0v881h55q83 0 113 12v-199q34 103 103.5 155t164.5 52q165 0 227 -164l-135 -90q-31 60 -62 85.5t-83 25.5q-95 0 -155 -75t-60 -208v-475h-168zM12 -299v115h463v-115h-463z" />
    <glyph glyph-name="uni1E60" unicode="&#x1e60;" horiz-adv-x="1130" 
d="M543 -20q-151 0 -286 57t-200 153l123 121q57 -88 159.5 -132t217.5 -44q137 0 211 62t74 163q0 173 -217 222l-168 39q-163 38 -245.5 127t-82.5 219q0 172 132.5 288.5t334.5 116.5q132 0 255 -52t179 -136l-123 -121q-48 77 -134.5 115.5t-184.5 38.5
q-131 0 -202 -63.5t-71 -164.5q0 -169 211 -219l170 -37q157 -36 244.5 -126.5t87.5 -223.5q0 -171 -135 -287t-350 -116zM578 1497q-42 0 -69.5 26.5t-27.5 67.5t28 68t69 27t68.5 -27t27.5 -68t-27.5 -67.5t-68.5 -26.5z" />
    <glyph glyph-name="uni1E61" unicode="&#x1e61;" horiz-adv-x="888" 
d="M416 -20q-116 0 -208.5 37t-133.5 100l96 106q95 -110 264 -110q98 0 153.5 32.5t55.5 94.5q0 46 -36.5 75.5t-123.5 46.5l-145 25q-112 19 -169.5 83.5t-57.5 150.5q0 121 105 200.5t255 79.5q103 0 187.5 -39t127.5 -106l-96 -107q-36 55 -98.5 87t-140.5 32
q-81 0 -130 -33.5t-49 -97.5q0 -53 36.5 -81.5t125.5 -45.5l129 -23q120 -23 181 -82.5t61 -146.5q0 -125 -111 -201.5t-278 -76.5zM451 1047q-42 0 -69.5 26.5t-27.5 67.5t27.5 67.5t69.5 26.5q41 0 68.5 -26.5t27.5 -67.5t-27.5 -67.5t-68.5 -26.5z" />
    <glyph glyph-name="uni1E62" unicode="&#x1e62;" horiz-adv-x="1130" 
d="M543 -20q-151 0 -286 57t-200 153l123 121q57 -88 159.5 -132t217.5 -44q137 0 211 62t74 163q0 173 -217 222l-168 39q-163 38 -245.5 127t-82.5 219q0 172 132.5 288.5t334.5 116.5q132 0 255 -52t179 -136l-123 -121q-48 77 -134.5 115.5t-184.5 38.5
q-131 0 -202 -63.5t-71 -164.5q0 -169 211 -219l170 -37q157 -36 244.5 -126.5t87.5 -223.5q0 -171 -135 -287t-350 -116zM559 -338q-41 0 -68.5 26.5t-27.5 67.5t27.5 67.5t68.5 26.5t68.5 -26.5t27.5 -67.5t-27.5 -67.5t-68.5 -26.5z" />
    <glyph glyph-name="uni1E63" unicode="&#x1e63;" horiz-adv-x="888" 
d="M416 -20q-116 0 -208.5 37t-133.5 100l96 106q95 -110 264 -110q98 0 153.5 32.5t55.5 94.5q0 46 -36.5 75.5t-123.5 46.5l-145 25q-112 19 -169.5 83.5t-57.5 150.5q0 121 105 200.5t255 79.5q103 0 187.5 -39t127.5 -106l-96 -107q-36 55 -98.5 87t-140.5 32
q-81 0 -130 -33.5t-49 -97.5q0 -53 36.5 -81.5t125.5 -45.5l129 -23q120 -23 181 -82.5t61 -146.5q0 -125 -111 -201.5t-278 -76.5zM438 -338q-41 0 -68.5 26.5t-27.5 67.5t27.5 67.5t68.5 26.5q42 0 69.5 -26.5t27.5 -67.5t-27.5 -67.5t-69.5 -26.5z" />
    <glyph glyph-name="uni1E6C" unicode="&#x1e6c;" horiz-adv-x="1105" 
d="M461 0v1206h-422v146h1028v-146h-422v-1206h-184zM553 -338q-41 0 -68.5 26.5t-27.5 67.5t27.5 67.5t68.5 26.5t68.5 -26.5t27.5 -67.5t-27.5 -67.5t-68.5 -26.5z" />
    <glyph glyph-name="uni1E6D" unicode="&#x1e6d;" horiz-adv-x="763" 
d="M512 -20q-147 0 -232 96t-85 258v416h-172v114h22q104 0 142 45.5t38 139.5v110h25q82 0 112 12v-290h347v-131h-347v-439q0 -98 41.5 -145t108.5 -47q99 0 158 86l114 -78q-36 -71 -107.5 -109t-164.5 -38zM457 -338q-42 0 -69.5 26.5t-27.5 67.5t27.5 67.5t69.5 26.5
q41 0 68.5 -26.5t27.5 -67.5t-27.5 -67.5t-68.5 -26.5z" />
    <glyph glyph-name="uni1E6E" unicode="&#x1e6e;" horiz-adv-x="1105" 
d="M461 0v1206h-422v146h1028v-146h-422v-1206h-184zM299 -299v115h508v-115h-508z" />
    <glyph glyph-name="uni1E6F" unicode="&#x1e6f;" horiz-adv-x="763" 
d="M512 -20q-147 0 -232 96t-85 258v416h-172v114h22q104 0 142 45.5t38 139.5v110h25q82 0 112 12v-290h347v-131h-347v-439q0 -98 41.5 -145t108.5 -47q99 0 158 86l114 -78q-36 -71 -107.5 -109t-164.5 -38zM203 -299v115h508v-115h-508z" />
    <glyph glyph-name="uni1E7E" unicode="&#x1e7e;" horiz-adv-x="1224" 
d="M520 0l-500 1352h197l399 -1133l402 1133h186l-499 -1352h-185zM612 -338q-41 0 -68.5 26.5t-27.5 67.5t27.5 67.5t68.5 26.5q42 0 69.5 -26.5t27.5 -67.5t-27.5 -67.5t-69.5 -26.5z" />
    <glyph glyph-name="uni1E7F" unicode="&#x1e7f;" horiz-adv-x="958" 
d="M403 0l-368 881h172l278 -695l285 695h154l-369 -881h-152zM479 -338q-41 0 -68.5 26.5t-27.5 67.5t27.5 67.5t68.5 26.5t68.5 -26.5t27.5 -67.5t-27.5 -67.5t-68.5 -26.5z" />
    <glyph glyph-name="Wgrave" unicode="&#x1e80;" horiz-adv-x="1886" 
d="M481 0l-461 1352h191l379 -1131l280 752l-129 379h189l383 -1125l368 1125h185l-463 -1352h-184l-269 764l-284 -764h-185zM891 1446l-305 246l121 104l284 -350h-100z" />
    <glyph glyph-name="wgrave" unicode="&#x1e81;" horiz-adv-x="1513" 
d="M371 0l-336 881h170l250 -697l252 701h120l244 -705l256 701h152l-334 -881h-158l-229 655l-236 -655h-151zM713 995l-305 246l120 105l285 -351h-100z" />
    <glyph glyph-name="Wacute" unicode="&#x1e82;" horiz-adv-x="1886" 
d="M481 0l-461 1352h191l379 -1131l280 752l-129 379h189l383 -1125l368 1125h185l-463 -1352h-184l-269 764l-284 -764h-185zM893 1446l285 350l120 -104l-305 -246h-100z" />
    <glyph glyph-name="wacute" unicode="&#x1e83;" horiz-adv-x="1513" 
d="M371 0l-336 881h170l250 -697l252 701h120l244 -705l256 701h152l-334 -881h-158l-229 655l-236 -655h-151zM715 995l284 351l121 -105l-305 -246h-100z" />
    <glyph glyph-name="Wdieresis" unicode="&#x1e84;" horiz-adv-x="1886" 
d="M481 0l-461 1352h191l379 -1131l280 752l-129 379h189l383 -1125l368 1125h185l-463 -1352h-184l-269 764l-284 -764h-185zM745 1497q-41 0 -68.5 26.5t-27.5 67.5t27.5 68t68.5 27t69 -27t28 -68t-27.5 -67.5t-69.5 -26.5zM1139 1497q-42 0 -69.5 26.5t-27.5 67.5t28 68
t69 27t68.5 -27t27.5 -68t-27.5 -67.5t-68.5 -26.5z" />
    <glyph glyph-name="wdieresis" unicode="&#x1e85;" horiz-adv-x="1513" 
d="M371 0l-336 881h170l250 -697l252 701h120l244 -705l256 701h152l-334 -881h-158l-229 655l-236 -655h-151zM567 1047q-41 0 -68.5 26.5t-27.5 67.5t27.5 67.5t68.5 26.5q42 0 69.5 -26.5t27.5 -67.5t-27.5 -67.5t-69.5 -26.5zM961 1047q-42 0 -69.5 26.5t-27.5 67.5
t27.5 67.5t69.5 26.5q41 0 68.5 -26.5t27.5 -67.5t-27.5 -67.5t-68.5 -26.5z" />
    <glyph glyph-name="uni1E86" unicode="&#x1e86;" horiz-adv-x="1886" 
d="M481 0l-461 1352h191l379 -1131l280 752l-129 379h189l383 -1125l368 1125h185l-463 -1352h-184l-269 764l-284 -764h-185zM942 1497q-41 0 -68.5 26.5t-27.5 67.5t27.5 68t68.5 27t68.5 -27t27.5 -68t-27.5 -67.5t-68.5 -26.5z" />
    <glyph glyph-name="uni1E87" unicode="&#x1e87;" horiz-adv-x="1513" 
d="M371 0l-336 881h170l250 -697l252 701h120l244 -705l256 701h152l-334 -881h-158l-229 655l-236 -655h-151zM764 1047q-41 0 -68.5 26.5t-27.5 67.5t27.5 67.5t68.5 26.5t68.5 -26.5t27.5 -67.5t-27.5 -67.5t-68.5 -26.5z" />
    <glyph glyph-name="uni1E88" unicode="&#x1e88;" horiz-adv-x="1886" 
d="M481 0l-461 1352h191l379 -1131l280 752l-129 379h189l383 -1125l368 1125h185l-463 -1352h-184l-269 764l-284 -764h-185zM942 -338q-41 0 -68.5 26.5t-27.5 67.5t27.5 67.5t68.5 26.5t68.5 -26.5t27.5 -67.5t-27.5 -67.5t-68.5 -26.5z" />
    <glyph glyph-name="uni1E89" unicode="&#x1e89;" horiz-adv-x="1513" 
d="M371 0l-336 881h170l250 -697l252 701h120l244 -705l256 701h152l-334 -881h-158l-229 655l-236 -655h-151zM758 -338q-41 0 -68.5 26.5t-27.5 67.5t27.5 67.5t68.5 26.5t68.5 -26.5t27.5 -67.5t-27.5 -67.5t-68.5 -26.5z" />
    <glyph glyph-name="uni1E8A" unicode="&#x1e8a;" horiz-adv-x="1122" 
d="M41 0l418 692l-398 660h205l303 -514l295 514h197l-397 -658l417 -694h-204l-322 549l-317 -549h-197zM580 1497q-42 0 -69.5 26.5t-27.5 67.5t28 68t69 27t68.5 -27t27.5 -68t-27.5 -67.5t-68.5 -26.5z" />
    <glyph glyph-name="uni1E8B" unicode="&#x1e8b;" horiz-adv-x="1024" 
d="M39 0l381 449l-359 432h191l262 -322l264 322h185l-361 -426l383 -455h-190l-287 344l-283 -344h-186zM514 1047q-41 0 -68.5 26.5t-27.5 67.5t27.5 67.5t68.5 26.5t68.5 -26.5t27.5 -67.5t-27.5 -67.5t-68.5 -26.5z" />
    <glyph glyph-name="uni1E8E" unicode="&#x1e8e;" horiz-adv-x="1105" 
d="M461 0v520l-455 832h199l350 -676l352 676h193l-455 -832v-520h-184zM557 1497q-41 0 -68.5 26.5t-27.5 67.5t27.5 68t68.5 27t68.5 -27t27.5 -68t-27.5 -67.5t-68.5 -26.5z" />
    <glyph glyph-name="uni1E8F" unicode="&#x1e8f;" horiz-adv-x="958" 
d="M209 -430l188 444l-362 867h172l278 -695l285 695h154l-547 -1311h-168zM492 1047q-42 0 -69.5 26.5t-27.5 67.5t27.5 67.5t69.5 26.5q41 0 68.5 -26.5t27.5 -67.5t-27.5 -67.5t-68.5 -26.5z" />
    <glyph glyph-name="uni1E92" unicode="&#x1e92;" horiz-adv-x="1050" 
d="M84 0v117l655 1089h-641v146h854v-117l-655 -1090h670v-145h-883zM526 -338q-41 0 -68.5 26.5t-27.5 67.5t27.5 67.5t68.5 26.5q42 0 69.5 -26.5t27.5 -67.5t-27.5 -67.5t-69.5 -26.5z" />
    <glyph glyph-name="uni1E93" unicode="&#x1e93;" horiz-adv-x="960" 
d="M90 0v106l547 646h-524v129h737v-107l-547 -645h567v-129h-780zM485 -338q-41 0 -68.5 26.5t-27.5 67.5t27.5 67.5t68.5 26.5q42 0 69.5 -26.5t27.5 -67.5t-27.5 -67.5t-69.5 -26.5z" />
    <glyph glyph-name="uni1E97" unicode="&#x1e97;" horiz-adv-x="763" 
d="M512 -20q-147 0 -232 96t-85 258v416h-172v114h22q104 0 142 45.5t38 139.5v110h25q82 0 112 12v-290h347v-131h-347v-439q0 -98 41.5 -145t108.5 -47q99 0 158 86l114 -78q-36 -71 -107.5 -109t-164.5 -38zM109 1325q-42 0 -69.5 26.5t-27.5 67.5t27.5 67.5t69.5 26.5
q41 0 68.5 -26.5t27.5 -67.5t-27.5 -67.5t-68.5 -26.5zM502 1325q-41 0 -68.5 26.5t-27.5 67.5t27.5 67.5t68.5 26.5t68.5 -26.5t27.5 -67.5t-27.5 -67.5t-68.5 -26.5z" />
    <glyph glyph-name="uni1E9E" unicode="&#x1e9e;" horiz-adv-x="1308" 
d="M803 -20q-101 0 -195 29.5t-143 78.5l88 141q91 -98 244 -98q132 0 204 71t72 197q0 125 -73.5 195t-221.5 70h-45l-82 116l320 426h-609v-1206h-184v1352h1000v-117l-326 -430q182 -12 295 -125.5t113 -280.5q0 -179 -128 -299t-329 -120z" />
    <glyph glyph-name="uni1EA0" unicode="&#x1ea0;" horiz-adv-x="1228" 
d="M20 0l502 1352h185l501 -1352h-198l-113 315h-575l-111 -315h-191zM610 1143l-245 -688h489zM614 -338q-41 0 -68.5 26.5t-27.5 67.5t27.5 67.5t68.5 26.5q42 0 69.5 -26.5t27.5 -67.5t-27.5 -67.5t-69.5 -26.5z" />
    <glyph glyph-name="uni1EA1" unicode="&#x1ea1;" horiz-adv-x="993" 
d="M375 -20q-135 0 -210 61.5t-75 177.5q0 48 14.5 86.5t44 64.5t62 44.5t80.5 31t87 19.5t93 14q38 4 56.5 6.5t44.5 7.5t37.5 10t25.5 14t19.5 21t9.5 29t4 39q0 80 -45 119t-142 39q-175 0 -233 -123l-117 70q42 91 140.5 140.5t230.5 49.5q162 0 248 -81.5t86 -244.5
v-575h-164v152q-70 -172 -297 -172zM412 102q113 0 185.5 67t72.5 200v77q-21 -38 -56 -50.5t-122 -24.5q-118 -16 -155 -30q-82 -32 -83 -112q0 -127 158 -127zM496 -338q-42 0 -69.5 26.5t-27.5 67.5t27.5 67.5t69.5 26.5q41 0 68.5 -26.5t27.5 -67.5t-27.5 -67.5
t-68.5 -26.5z" />
    <glyph glyph-name="uni1EA2" unicode="&#x1ea2;" horiz-adv-x="1228" 
d="M20 0l502 1352h185l501 -1352h-198l-113 315h-575l-111 -315h-191zM610 1143l-245 -688h489zM559 1446l49 100q21 44 21 70q0 25 -14.5 38.5t-49.5 24.5l-141 39l43 119l158 -43q137 -38 137 -137q0 -59 -53 -139l-45 -72h-105z" />
    <glyph glyph-name="uni1EA3" unicode="&#x1ea3;" horiz-adv-x="993" 
d="M375 -20q-135 0 -210 61.5t-75 177.5q0 48 14.5 86.5t44 64.5t62 44.5t80.5 31t87 19.5t93 14q38 4 56.5 6.5t44.5 7.5t37.5 10t25.5 14t19.5 21t9.5 29t4 39q0 80 -45 119t-142 39q-175 0 -233 -123l-117 70q42 91 140.5 140.5t230.5 49.5q162 0 248 -81.5t86 -244.5
v-575h-164v152q-70 -172 -297 -172zM412 102q113 0 185.5 67t72.5 200v77q-21 -38 -56 -50.5t-122 -24.5q-118 -16 -155 -30q-82 -32 -83 -112q0 -127 158 -127zM444 995l50 101q20 41 20 69q0 25 -14 39.5t-49 24.5l-142 39l43 118l158 -43q137 -38 137 -137
q0 -59 -53 -139l-45 -72h-105z" />
    <glyph glyph-name="uni1EA4" unicode="&#x1ea4;" horiz-adv-x="1228" 
d="M20 0l502 1352h185l501 -1352h-198l-113 315h-575l-111 -315h-191zM610 1143l-245 -688h489zM285 1425l264 310h131l264 -310h-100l-230 185l-229 -185h-100zM547 1784v82l280 209l76 -129z" />
    <glyph glyph-name="uni1EA5" unicode="&#x1ea5;" horiz-adv-x="993" 
d="M375 -20q-135 0 -210 61.5t-75 177.5q0 48 14.5 86.5t44 64.5t62 44.5t80.5 31t87 19.5t93 14q38 4 56.5 6.5t44.5 7.5t37.5 10t25.5 14t19.5 21t9.5 29t4 39q0 80 -45 119t-142 39q-175 0 -233 -123l-117 70q42 91 140.5 140.5t230.5 49.5q162 0 248 -81.5t86 -244.5
v-575h-164v152q-70 -172 -297 -172zM412 102q113 0 185.5 67t72.5 200v77q-21 -38 -56 -50.5t-122 -24.5q-118 -16 -155 -30q-82 -32 -83 -112q0 -127 158 -127zM170 975l264 309h131l264 -309h-100l-229 184l-230 -184h-100zM432 1333v82l281 209l75 -129z" />
    <glyph glyph-name="uni1EA6" unicode="&#x1ea6;" horiz-adv-x="1228" 
d="M20 0l502 1352h185l501 -1352h-198l-113 315h-575l-111 -315h-191zM610 1143l-245 -688h489zM285 1425l264 310h131l264 -310h-100l-230 185l-229 -185h-100zM682 1784l-356 162l75 129l281 -209v-82z" />
    <glyph glyph-name="uni1EA7" unicode="&#x1ea7;" horiz-adv-x="993" 
d="M375 -20q-135 0 -210 61.5t-75 177.5q0 48 14.5 86.5t44 64.5t62 44.5t80.5 31t87 19.5t93 14q38 4 56.5 6.5t44.5 7.5t37.5 10t25.5 14t19.5 21t9.5 29t4 39q0 80 -45 119t-142 39q-175 0 -233 -123l-117 70q42 91 140.5 140.5t230.5 49.5q162 0 248 -81.5t86 -244.5
v-575h-164v152q-70 -172 -297 -172zM412 102q113 0 185.5 67t72.5 200v77q-21 -38 -56 -50.5t-122 -24.5q-118 -16 -155 -30q-82 -32 -83 -112q0 -127 158 -127zM170 975l264 309h131l264 -309h-100l-229 184l-230 -184h-100zM567 1333l-356 162l76 129l280 -209v-82z" />
    <glyph glyph-name="uni1EA8" unicode="&#x1ea8;" horiz-adv-x="1228" 
d="M20 0l502 1352h185l501 -1352h-198l-113 315h-575l-111 -315h-191zM610 1143l-245 -688h489zM567 1765l25 50q20 46 20 69t-19.5 38t-57.5 26l-105 26l41 115l121 -31q66 -19 101.5 -50.5t35.5 -84.5q0 -57 -53 -137l-12 -21h-97zM285 1425l270 275h119l270 -275h-106
l-224 150l-223 -150h-106z" />
    <glyph glyph-name="uni1EA9" unicode="&#x1ea9;" horiz-adv-x="993" 
d="M375 -20q-135 0 -210 61.5t-75 177.5q0 48 14.5 86.5t44 64.5t62 44.5t80.5 31t87 19.5t93 14q38 4 56.5 6.5t44.5 7.5t37.5 10t25.5 14t19.5 21t9.5 29t4 39q0 80 -45 119t-142 39q-175 0 -233 -123l-117 70q42 91 140.5 140.5t230.5 49.5q162 0 248 -81.5t86 -244.5
v-575h-164v152q-70 -172 -297 -172zM412 102q113 0 185.5 67t72.5 200v77q-21 -38 -56 -50.5t-122 -24.5q-118 -16 -155 -30q-82 -32 -83 -112q0 -127 158 -127zM453 1315l24 49q21 48 21 70q0 23 -19.5 37t-58.5 26l-105 27l41 114l121 -30q66 -19 101.5 -50.5t35.5 -84.5
q0 -58 -53 -138l-12 -20h-96zM170 975l270 274h119l270 -274h-106l-223 149l-224 -149h-106z" />
    <glyph glyph-name="uni1EAA" unicode="&#x1eaa;" horiz-adv-x="1228" 
d="M20 0l502 1352h185l501 -1352h-198l-113 315h-575l-111 -315h-191zM610 1143l-245 -688h489zM385 1788h-92q19 116 72.5 178t132.5 62q54 0 116 -33q69 -37 121 -37q45 0 72 27t37 90h92q-19 -116 -72.5 -178t-132.5 -62q-55 0 -117 33q-69 37 -120 37q-45 0 -72 -27
t-37 -90zM285 1425l264 310h131l264 -310h-100l-230 185l-229 -185h-100z" />
    <glyph glyph-name="uni1EAB" unicode="&#x1eab;" horiz-adv-x="993" 
d="M375 -20q-135 0 -210 61.5t-75 177.5q0 48 14.5 86.5t44 64.5t62 44.5t80.5 31t87 19.5t93 14q38 4 56.5 6.5t44.5 7.5t37.5 10t25.5 14t19.5 21t9.5 29t4 39q0 80 -45 119t-142 39q-175 0 -233 -123l-117 70q42 91 140.5 140.5t230.5 49.5q162 0 248 -81.5t86 -244.5
v-575h-164v152q-70 -172 -297 -172zM412 102q113 0 185.5 67t72.5 200v77q-21 -38 -56 -50.5t-122 -24.5q-118 -16 -155 -30q-82 -32 -83 -112q0 -127 158 -127zM270 1337h-92q19 116 72.5 178t132.5 62q55 0 117 -33q69 -37 121 -37q45 0 71.5 26.5t36.5 90.5h92
q-19 -116 -72.5 -178t-132.5 -62q-54 0 -116 33q-69 37 -121 37q-45 0 -72 -27t-37 -90zM170 975l264 309h131l264 -309h-100l-229 184l-230 -184h-100z" />
    <glyph glyph-name="uni1EAC" unicode="&#x1eac;" horiz-adv-x="1228" 
d="M20 0l502 1352h185l501 -1352h-198l-113 315h-575l-111 -315h-191zM610 1143l-245 -688h489zM285 1446l264 336h131l264 -336h-100l-230 203l-229 -203h-100zM614 -338q-41 0 -68.5 26.5t-27.5 67.5t27.5 67.5t68.5 26.5q42 0 69.5 -26.5t27.5 -67.5t-27.5 -67.5
t-69.5 -26.5z" />
    <glyph glyph-name="uni1EAD" unicode="&#x1ead;" horiz-adv-x="993" 
d="M375 -20q-135 0 -210 61.5t-75 177.5q0 48 14.5 86.5t44 64.5t62 44.5t80.5 31t87 19.5t93 14q38 4 56.5 6.5t44.5 7.5t37.5 10t25.5 14t19.5 21t9.5 29t4 39q0 80 -45 119t-142 39q-175 0 -233 -123l-117 70q42 91 140.5 140.5t230.5 49.5q162 0 248 -81.5t86 -244.5
v-575h-164v152q-70 -172 -297 -172zM412 102q113 0 185.5 67t72.5 200v77q-21 -38 -56 -50.5t-122 -24.5q-118 -16 -155 -30q-82 -32 -83 -112q0 -127 158 -127zM172 995l264 336h131l264 -336h-100l-229 203l-230 -203h-100zM496 -338q-42 0 -69.5 26.5t-27.5 67.5
t27.5 67.5t69.5 26.5q41 0 68.5 -26.5t27.5 -67.5t-27.5 -67.5t-68.5 -26.5z" />
    <glyph glyph-name="uni1EAE" unicode="&#x1eae;" horiz-adv-x="1228" 
d="M20 0l502 1352h185l501 -1352h-198l-113 315h-575l-111 -315h-191zM610 1143l-245 -688h489zM614 1440q-84 0 -146.5 28t-98 76t-54 102.5t-22.5 118.5h92q8 -85 69 -148t160 -63q100 0 161 63t69 148h92q-4 -63 -22.5 -118t-54.5 -103t-98.5 -76t-146.5 -28zM545 1733
l270 329l121 -104l-291 -225h-100z" />
    <glyph glyph-name="uni1EAF" unicode="&#x1eaf;" horiz-adv-x="993" 
d="M375 -20q-135 0 -210 61.5t-75 177.5q0 48 14.5 86.5t44 64.5t62 44.5t80.5 31t87 19.5t93 14q38 4 56.5 6.5t44.5 7.5t37.5 10t25.5 14t19.5 21t9.5 29t4 39q0 80 -45 119t-142 39q-175 0 -233 -123l-117 70q42 91 140.5 140.5t230.5 49.5q162 0 248 -81.5t86 -244.5
v-575h-164v152q-70 -172 -297 -172zM412 102q113 0 185.5 67t72.5 200v77q-21 -38 -56 -50.5t-122 -24.5q-118 -16 -155 -30q-82 -32 -83 -112q0 -127 158 -127zM500 989q-84 0 -146.5 28t-98.5 76.5t-54.5 103.5t-22.5 118h92q8 -85 69 -148t161 -63q99 0 160 63t69 148h92
q-4 -64 -22.5 -118.5t-54 -103t-98 -76.5t-146.5 -28zM430 1282l270 330l121 -105l-291 -225h-100z" />
    <glyph glyph-name="uni1EB0" unicode="&#x1eb0;" horiz-adv-x="1228" 
d="M20 0l502 1352h185l501 -1352h-198l-113 315h-575l-111 -315h-191zM610 1143l-245 -688h489zM614 1440q-84 0 -146.5 28t-98 76t-54 102.5t-22.5 118.5h92q8 -85 69 -148t160 -63q100 0 161 63t69 148h92q-4 -63 -22.5 -118t-54.5 -103t-98.5 -76t-146.5 -28zM584 1733
l-291 225l121 104l270 -329h-100z" />
    <glyph glyph-name="uni1EB1" unicode="&#x1eb1;" horiz-adv-x="993" 
d="M375 -20q-135 0 -210 61.5t-75 177.5q0 48 14.5 86.5t44 64.5t62 44.5t80.5 31t87 19.5t93 14q38 4 56.5 6.5t44.5 7.5t37.5 10t25.5 14t19.5 21t9.5 29t4 39q0 80 -45 119t-142 39q-175 0 -233 -123l-117 70q42 91 140.5 140.5t230.5 49.5q162 0 248 -81.5t86 -244.5
v-575h-164v152q-70 -172 -297 -172zM412 102q113 0 185.5 67t72.5 200v77q-21 -38 -56 -50.5t-122 -24.5q-118 -16 -155 -30q-82 -32 -83 -112q0 -127 158 -127zM500 989q-84 0 -146.5 28t-98.5 76.5t-54.5 103.5t-22.5 118h92q8 -85 69 -148t161 -63q99 0 160 63t69 148h92
q-4 -64 -22.5 -118.5t-54 -103t-98 -76.5t-146.5 -28zM469 1282l-291 225l121 105l270 -330h-100z" />
    <glyph glyph-name="uni1EB2" unicode="&#x1eb2;" horiz-adv-x="1228" 
d="M20 0l502 1352h185l501 -1352h-198l-113 315h-575l-111 -315h-191zM610 1143l-245 -688h489zM559 1692l49 100q21 44 21 70q0 25 -14.5 38.5t-49.5 24.5l-141 39l43 119l158 -43q137 -38 137 -137q0 -60 -53 -140l-45 -71h-105zM614 1440q-84 0 -146.5 28t-98 76
t-54 102.5t-22.5 118.5h92q8 -85 69 -148t160 -63q100 0 161 63t69 148h92q-4 -63 -22.5 -118t-54.5 -103t-98.5 -76t-146.5 -28z" />
    <glyph glyph-name="uni1EB3" unicode="&#x1eb3;" horiz-adv-x="993" 
d="M375 -20q-135 0 -210 61.5t-75 177.5q0 48 14.5 86.5t44 64.5t62 44.5t80.5 31t87 19.5t93 14q38 4 56.5 6.5t44.5 7.5t37.5 10t25.5 14t19.5 21t9.5 29t4 39q0 80 -45 119t-142 39q-175 0 -233 -123l-117 70q42 91 140.5 140.5t230.5 49.5q162 0 248 -81.5t86 -244.5
v-575h-164v152q-70 -172 -297 -172zM412 102q113 0 185.5 67t72.5 200v77q-21 -38 -56 -50.5t-122 -24.5q-118 -16 -155 -30q-82 -32 -83 -112q0 -127 158 -127zM444 1241l50 100q20 41 20 70q0 25 -14 39.5t-49 24.5l-142 38l43 119l158 -43q137 -38 137 -137
q0 -59 -53 -139l-45 -72h-105zM500 989q-84 0 -146.5 28t-98.5 76.5t-54.5 103.5t-22.5 118h92q8 -85 69 -148t161 -63q99 0 160 63t69 148h92q-4 -64 -22.5 -118.5t-54 -103t-98 -76.5t-146.5 -28z" />
    <glyph glyph-name="uni1EB4" unicode="&#x1eb4;" horiz-adv-x="1228" 
d="M20 0l502 1352h185l501 -1352h-198l-113 315h-575l-111 -315h-191zM610 1143l-245 -688h489zM385 1788h-92q19 116 72.5 178t132.5 62q54 0 116 -33q69 -37 121 -37q45 0 72 27t37 90h92q-19 -116 -72.5 -178t-132.5 -62q-55 0 -117 33q-69 37 -120 37q-45 0 -72 -27
t-37 -90zM614 1440q-84 0 -146.5 25.5t-98 69t-54 92.5t-22.5 106h92q8 -72 69 -125.5t160 -53.5t160.5 53.5t69.5 125.5h92q-4 -57 -22.5 -106t-54.5 -92.5t-98.5 -69t-146.5 -25.5z" />
    <glyph glyph-name="uni1EB5" unicode="&#x1eb5;" horiz-adv-x="993" 
d="M375 -20q-135 0 -210 61.5t-75 177.5q0 48 14.5 86.5t44 64.5t62 44.5t80.5 31t87 19.5t93 14q38 4 56.5 6.5t44.5 7.5t37.5 10t25.5 14t19.5 21t9.5 29t4 39q0 80 -45 119t-142 39q-175 0 -233 -123l-117 70q42 91 140.5 140.5t230.5 49.5q162 0 248 -81.5t86 -244.5
v-575h-164v152q-70 -172 -297 -172zM412 102q113 0 185.5 67t72.5 200v77q-21 -38 -56 -50.5t-122 -24.5q-118 -16 -155 -30q-82 -32 -83 -112q0 -127 158 -127zM270 1337h-92q19 116 72.5 178t132.5 62q55 0 117 -33q69 -37 121 -37q45 0 71.5 26.5t36.5 90.5h92
q-19 -116 -72.5 -178t-132.5 -62q-54 0 -116 33q-69 37 -121 37q-45 0 -72 -27t-37 -90zM500 989q-84 0 -146.5 25.5t-98.5 69t-54.5 92.5t-22.5 106h92q8 -72 69 -125t161 -53q99 0 160 53t69 125h92q-4 -57 -22.5 -106t-54 -92.5t-98 -69t-146.5 -25.5z" />
    <glyph glyph-name="uni1EB6" unicode="&#x1eb6;" horiz-adv-x="1228" 
d="M20 0l502 1352h185l501 -1352h-198l-113 315h-575l-111 -315h-191zM610 1143l-245 -688h489zM614 1440q-84 0 -146.5 29.5t-98 80t-54 108t-22.5 124.5h92q8 -92 68.5 -160t160.5 -68t161 68t69 160h92q-4 -67 -22.5 -124.5t-54.5 -108t-98.5 -80t-146.5 -29.5zM614 -338
q-41 0 -68.5 26.5t-27.5 67.5t27.5 67.5t68.5 26.5q42 0 69.5 -26.5t27.5 -67.5t-27.5 -67.5t-69.5 -26.5z" />
    <glyph glyph-name="uni1EB7" unicode="&#x1eb7;" horiz-adv-x="993" 
d="M375 -20q-135 0 -210 61.5t-75 177.5q0 48 14.5 86.5t44 64.5t62 44.5t80.5 31t87 19.5t93 14q38 4 56.5 6.5t44.5 7.5t37.5 10t25.5 14t19.5 21t9.5 29t4 39q0 80 -45 119t-142 39q-175 0 -233 -123l-117 70q42 91 140.5 140.5t230.5 49.5q162 0 248 -81.5t86 -244.5
v-575h-164v152q-70 -172 -297 -172zM412 102q113 0 185.5 67t72.5 200v77q-21 -38 -56 -50.5t-122 -24.5q-118 -16 -155 -30q-82 -32 -83 -112q0 -127 158 -127zM502 989q-84 0 -146.5 29.5t-98.5 80t-54.5 108t-22.5 124.5h92q8 -92 69 -159.5t161 -67.5t160.5 67.5
t68.5 159.5h92q-4 -67 -22.5 -124.5t-54 -108t-98 -80t-146.5 -29.5zM496 -338q-42 0 -69.5 26.5t-27.5 67.5t27.5 67.5t69.5 26.5q41 0 68.5 -26.5t27.5 -67.5t-27.5 -67.5t-68.5 -26.5z" />
    <glyph glyph-name="uni1EB8" unicode="&#x1eb8;" horiz-adv-x="1097" 
d="M178 0v1352h807v-146h-623v-438h570v-145h-570v-478h623v-145h-807zM573 -338q-41 0 -68.5 26.5t-27.5 67.5t27.5 67.5t68.5 26.5q42 0 69.5 -26.5t27.5 -67.5t-27.5 -67.5t-69.5 -26.5z" />
    <glyph glyph-name="uni1EB9" unicode="&#x1eb9;" horiz-adv-x="1042" 
d="M565 -20q-203 0 -338 134t-135 322q0 123 59.5 230.5t160.5 171t218 63.5q177 0 298.5 -138.5t121.5 -352.5h-690q5 -127 86.5 -210t218.5 -83q181 0 250 157l125 -67q-51 -107 -147 -167t-228 -60zM524 774q-105 0 -177.5 -73.5t-84.5 -178.5h524q-12 105 -84.5 178.5
t-177.5 73.5zM535 -338q-42 0 -69.5 26.5t-27.5 67.5t27.5 67.5t69.5 26.5q41 0 68.5 -26.5t27.5 -67.5t-27.5 -67.5t-68.5 -26.5z" />
    <glyph glyph-name="uni1EBA" unicode="&#x1eba;" horiz-adv-x="1097" 
d="M178 0v1352h807v-146h-623v-438h570v-145h-570v-478h623v-145h-807zM518 1446l49 100q21 44 21 70q0 25 -14.5 38.5t-49.5 24.5l-141 39l43 119l158 -43q137 -38 137 -137q0 -59 -53 -139l-45 -72h-105z" />
    <glyph glyph-name="uni1EBB" unicode="&#x1ebb;" horiz-adv-x="1042" 
d="M565 -20q-203 0 -338 134t-135 322q0 123 59.5 230.5t160.5 171t218 63.5q177 0 298.5 -138.5t121.5 -352.5h-690q5 -127 86.5 -210t218.5 -83q181 0 250 157l125 -67q-51 -107 -147 -167t-228 -60zM524 774q-105 0 -177.5 -73.5t-84.5 -178.5h524q-12 105 -84.5 178.5
t-177.5 73.5zM465 995l49 101q21 44 21 69t-14.5 39t-49.5 25l-141 39l43 118l157 -43q138 -39 138 -137q0 -57 -54 -139l-45 -72h-104z" />
    <glyph glyph-name="uni1EBC" unicode="&#x1ebc;" horiz-adv-x="1097" 
d="M178 0v1352h807v-146h-623v-438h570v-145h-570v-478h623v-145h-807zM322 1446h-93q23 128 81 196t143 68q53 0 120 -33q79 -37 123 -37q54 0 84.5 35.5t44.5 106.5h93q-23 -128 -81 -196t-143 -68q-56 0 -121 32q-79 37 -122 37q-54 0 -84.5 -35t-44.5 -106z" />
    <glyph glyph-name="uni1EBD" unicode="&#x1ebd;" horiz-adv-x="1042" 
d="M565 -20q-203 0 -338 134t-135 322q0 123 59.5 230.5t160.5 171t218 63.5q177 0 298.5 -138.5t121.5 -352.5h-690q5 -127 86.5 -210t218.5 -83q181 0 250 157l125 -67q-51 -107 -147 -167t-228 -60zM524 774q-105 0 -177.5 -73.5t-84.5 -178.5h524q-12 105 -84.5 178.5
t-177.5 73.5zM268 995h-92q23 129 80.5 197t142.5 68q54 0 121 -33q79 -37 123 -37q54 0 84.5 35t44.5 106h92q-23 -129 -80.5 -196.5t-142.5 -67.5q-54 0 -121 33q-79 37 -123 37q-54 0 -84.5 -35.5t-44.5 -106.5z" />
    <glyph glyph-name="uni1EBE" unicode="&#x1ebe;" horiz-adv-x="1097" 
d="M178 0v1352h807v-146h-623v-438h570v-145h-570v-478h623v-145h-807zM244 1425l264 310h131l264 -310h-100l-230 185l-229 -185h-100zM506 1784v82l280 209l76 -129z" />
    <glyph glyph-name="uni1EBF" unicode="&#x1ebf;" horiz-adv-x="1042" 
d="M565 -20q-203 0 -338 134t-135 322q0 123 59.5 230.5t160.5 171t218 63.5q177 0 298.5 -138.5t121.5 -352.5h-690q5 -127 86.5 -210t218.5 -83q181 0 250 157l125 -67q-51 -107 -147 -167t-228 -60zM524 774q-105 0 -177.5 -73.5t-84.5 -178.5h524q-12 105 -84.5 178.5
t-177.5 73.5zM190 975l265 309h131l264 -309h-100l-230 184l-229 -184h-101zM453 1333v82l280 209l76 -129z" />
    <glyph glyph-name="uni1EC0" unicode="&#x1ec0;" horiz-adv-x="1097" 
d="M178 0v1352h807v-146h-623v-438h570v-145h-570v-478h623v-145h-807zM244 1425l264 310h131l264 -310h-100l-230 185l-229 -185h-100zM641 1784l-356 162l75 129l281 -209v-82z" />
    <glyph glyph-name="uni1EC1" unicode="&#x1ec1;" horiz-adv-x="1042" 
d="M565 -20q-203 0 -338 134t-135 322q0 123 59.5 230.5t160.5 171t218 63.5q177 0 298.5 -138.5t121.5 -352.5h-690q5 -127 86.5 -210t218.5 -83q181 0 250 157l125 -67q-51 -107 -147 -167t-228 -60zM524 774q-105 0 -177.5 -73.5t-84.5 -178.5h524q-12 105 -84.5 178.5
t-177.5 73.5zM190 975l265 309h131l264 -309h-100l-230 184l-229 -184h-101zM588 1333l-357 162l76 129l281 -209v-82z" />
    <glyph glyph-name="uni1EC2" unicode="&#x1ec2;" horiz-adv-x="1097" 
d="M178 0v1352h807v-146h-623v-438h570v-145h-570v-478h623v-145h-807zM526 1765l25 50q20 46 20 69t-19.5 38t-57.5 26l-105 26l41 115l121 -31q66 -19 101.5 -50.5t35.5 -84.5q0 -57 -53 -137l-12 -21h-97zM244 1425l270 275h119l270 -275h-106l-224 150l-223 -150h-106z
" />
    <glyph glyph-name="uni1EC3" unicode="&#x1ec3;" horiz-adv-x="1042" 
d="M565 -20q-203 0 -338 134t-135 322q0 123 59.5 230.5t160.5 171t218 63.5q177 0 298.5 -138.5t121.5 -352.5h-690q5 -127 86.5 -210t218.5 -83q181 0 250 157l125 -67q-51 -107 -147 -167t-228 -60zM524 774q-105 0 -177.5 -73.5t-84.5 -178.5h524q-12 105 -84.5 178.5
t-177.5 73.5zM473 1315l25 49q20 46 20 70q0 23 -19.5 37t-58.5 26l-104 27l41 114l121 -30q66 -19 101.5 -50.5t35.5 -84.5q0 -58 -53 -138l-13 -20h-96zM190 975l271 274h119l270 -274h-107l-223 149l-223 -149h-107z" />
    <glyph glyph-name="uni1EC4" unicode="&#x1ec4;" horiz-adv-x="1097" 
d="M178 0v1352h807v-146h-623v-438h570v-145h-570v-478h623v-145h-807zM344 1788h-92q19 116 72.5 178t132.5 62q54 0 116 -33q69 -37 121 -37q45 0 72 27t37 90h92q-19 -116 -72.5 -178t-132.5 -62q-55 0 -117 33q-69 37 -120 37q-45 0 -72 -27t-37 -90zM244 1425l264 310
h131l264 -310h-100l-230 185l-229 -185h-100z" />
    <glyph glyph-name="uni1EC5" unicode="&#x1ec5;" horiz-adv-x="1042" 
d="M565 -20q-203 0 -338 134t-135 322q0 123 59.5 230.5t160.5 171t218 63.5q177 0 298.5 -138.5t121.5 -352.5h-690q5 -127 86.5 -210t218.5 -83q181 0 250 157l125 -67q-51 -107 -147 -167t-228 -60zM524 774q-105 0 -177.5 -73.5t-84.5 -178.5h524q-12 105 -84.5 178.5
t-177.5 73.5zM291 1337h-92q19 116 72 178t132 62q55 0 117 -33q69 -37 121 -37q45 0 72 27t37 90h92q-19 -116 -72.5 -178t-132.5 -62q-55 0 -117 33q-69 37 -121 37q-45 0 -71.5 -26.5t-36.5 -90.5zM190 975l265 309h131l264 -309h-100l-230 184l-229 -184h-101z" />
    <glyph glyph-name="uni1EC6" unicode="&#x1ec6;" horiz-adv-x="1097" 
d="M178 0v1352h807v-146h-623v-438h570v-145h-570v-478h623v-145h-807zM244 1446l264 336h131l264 -336h-100l-230 203l-229 -203h-100zM573 -338q-41 0 -68.5 26.5t-27.5 67.5t27.5 67.5t68.5 26.5q42 0 69.5 -26.5t27.5 -67.5t-27.5 -67.5t-69.5 -26.5z" />
    <glyph glyph-name="uni1EC7" unicode="&#x1ec7;" horiz-adv-x="1042" 
d="M565 -20q-203 0 -338 134t-135 322q0 123 59.5 230.5t160.5 171t218 63.5q177 0 298.5 -138.5t121.5 -352.5h-690q5 -127 86.5 -210t218.5 -83q181 0 250 157l125 -67q-51 -107 -147 -167t-228 -60zM524 774q-105 0 -177.5 -73.5t-84.5 -178.5h524q-12 105 -84.5 178.5
t-177.5 73.5zM190 995l265 336h131l264 -336h-100l-230 203l-229 -203h-101zM535 -338q-42 0 -69.5 26.5t-27.5 67.5t27.5 67.5t69.5 26.5q41 0 68.5 -26.5t27.5 -67.5t-27.5 -67.5t-68.5 -26.5z" />
    <glyph glyph-name="uni1EC8" unicode="&#x1ec8;" horiz-adv-x="540" 
d="M178 0v1352h184v-1352h-184zM215 1446l49 100q21 44 21 70q0 25 -14.5 38.5t-49.5 24.5l-141 39l43 119l158 -43q137 -38 137 -137q0 -59 -53 -139l-46 -72h-104z" />
    <glyph glyph-name="uni1EC9" unicode="&#x1ec9;" horiz-adv-x="487" 
d="M160 0v881h55q83 0 113 12v-893h-168zM188 995l50 101q20 41 20 69q0 25 -14 39.5t-49 24.5l-142 39l43 118l158 -43q137 -38 137 -137q0 -59 -53 -139l-45 -72h-105z" />
    <glyph glyph-name="uni1ECA" unicode="&#x1eca;" horiz-adv-x="540" 
d="M178 0v1352h184v-1352h-184zM270 -338q-41 0 -68.5 26.5t-27.5 67.5t27.5 67.5t68.5 26.5q42 0 69.5 -26.5t27.5 -67.5t-27.5 -67.5t-69.5 -26.5z" />
    <glyph glyph-name="uni1ECB" unicode="&#x1ecb;" horiz-adv-x="487" 
d="M160 0v881h55q83 0 113 12v-893h-168zM244 1067q-49 0 -82 32.5t-33 80.5q0 47 33 79.5t82 32.5t81.5 -32t32.5 -80t-32.5 -80.5t-81.5 -32.5zM244 -338q-42 0 -69.5 26.5t-27.5 67.5t27.5 67.5t69.5 26.5q41 0 68.5 -26.5t27.5 -67.5t-27.5 -67.5t-68.5 -26.5z" />
    <glyph glyph-name="uni1ECC" unicode="&#x1ecc;" horiz-adv-x="1458" 
d="M729 -20q-129 0 -245 56t-197.5 150t-129.5 222t-48 268q0 139 48 266.5t129.5 222t197.5 151t245 56.5q172 0 315.5 -95.5t224.5 -255t81 -345.5q0 -188 -81 -347.5t-224.5 -254t-315.5 -94.5zM729 137q189 0 308.5 150.5t119.5 388.5t-119.5 388t-308.5 150
t-308.5 -150t-119.5 -388t119.5 -388.5t308.5 -150.5zM729 -338q-41 0 -68.5 26.5t-27.5 67.5t27.5 67.5t68.5 26.5t68.5 -26.5t27.5 -67.5t-27.5 -67.5t-68.5 -26.5z" />
    <glyph glyph-name="uni1ECD" unicode="&#x1ecd;" horiz-adv-x="1097" 
d="M549 123q120 0 202.5 89.5t82.5 227.5t-82.5 228t-202.5 90q-121 0 -203 -90t-82 -228t82 -227.5t203 -89.5zM549 -20q-120 0 -225.5 63t-168.5 169.5t-63 227.5t63 227.5t168.5 170t225.5 63.5t225.5 -63.5t168.5 -170t63 -227.5t-63 -227.5t-168.5 -169.5t-225.5 -63z
M549 -338q-41 0 -68.5 26.5t-27.5 67.5t27.5 67.5t68.5 26.5t68.5 -26.5t27.5 -67.5t-27.5 -67.5t-68.5 -26.5z" />
    <glyph glyph-name="uni1ECE" unicode="&#x1ece;" horiz-adv-x="1458" 
d="M729 -20q-129 0 -245 56t-197.5 150t-129.5 222t-48 268q0 139 48 266.5t129.5 222t197.5 151t245 56.5q172 0 315.5 -95.5t224.5 -255t81 -345.5q0 -188 -81 -347.5t-224.5 -254t-315.5 -94.5zM729 137q189 0 308.5 150.5t119.5 388.5t-119.5 388t-308.5 150
t-308.5 -150t-119.5 -388t119.5 -388.5t308.5 -150.5zM674 1446l49 100q20 41 20 70q0 25 -14 38.5t-49 24.5l-141 39l43 119l157 -43q138 -39 138 -137q0 -57 -54 -139l-45 -72h-104z" />
    <glyph glyph-name="uni1ECF" unicode="&#x1ecf;" horiz-adv-x="1097" 
d="M549 123q120 0 202.5 89.5t82.5 227.5t-82.5 228t-202.5 90q-121 0 -203 -90t-82 -228t82 -227.5t203 -89.5zM549 -20q-120 0 -225.5 63t-168.5 169.5t-63 227.5t63 227.5t168.5 170t225.5 63.5t225.5 -63.5t168.5 -170t63 -227.5t-63 -227.5t-168.5 -169.5t-225.5 -63z
M494 995l49 101q20 41 20 69q0 25 -14 39.5t-49 24.5l-142 39l43 118l158 -43q137 -38 137 -137q0 -59 -53 -139l-45 -72h-104z" />
    <glyph glyph-name="uni1ED0" unicode="&#x1ed0;" horiz-adv-x="1458" 
d="M729 -20q-129 0 -245 56t-197.5 150t-129.5 222t-48 268q0 139 48 266.5t129.5 222t197.5 151t245 56.5q172 0 315.5 -95.5t224.5 -255t81 -345.5q0 -188 -81 -347.5t-224.5 -254t-315.5 -94.5zM729 137q189 0 308.5 150.5t119.5 388.5t-119.5 388t-308.5 150
t-308.5 -150t-119.5 -388t119.5 -388.5t308.5 -150.5zM399 1425l265 310h131l264 -310h-101l-229 185l-229 -185h-101zM662 1784v82l280 209l76 -129z" />
    <glyph glyph-name="uni1ED1" unicode="&#x1ed1;" horiz-adv-x="1097" 
d="M549 123q120 0 202.5 89.5t82.5 227.5t-82.5 228t-202.5 90q-121 0 -203 -90t-82 -228t82 -227.5t203 -89.5zM549 -20q-120 0 -225.5 63t-168.5 169.5t-63 227.5t63 227.5t168.5 170t225.5 63.5t225.5 -63.5t168.5 -170t63 -227.5t-63 -227.5t-168.5 -169.5t-225.5 -63z
M219 975l264 309h131l265 -309h-101l-229 184l-230 -184h-100zM481 1333v82l281 209l76 -129z" />
    <glyph glyph-name="uni1ED2" unicode="&#x1ed2;" horiz-adv-x="1458" 
d="M729 -20q-129 0 -245 56t-197.5 150t-129.5 222t-48 268q0 139 48 266.5t129.5 222t197.5 151t245 56.5q172 0 315.5 -95.5t224.5 -255t81 -345.5q0 -188 -81 -347.5t-224.5 -254t-315.5 -94.5zM729 137q189 0 308.5 150.5t119.5 388.5t-119.5 388t-308.5 150
t-308.5 -150t-119.5 -388t119.5 -388.5t308.5 -150.5zM399 1425l265 310h131l264 -310h-101l-229 185l-229 -185h-101zM797 1784l-357 162l76 129l281 -209v-82z" />
    <glyph glyph-name="uni1ED3" unicode="&#x1ed3;" horiz-adv-x="1097" 
d="M549 123q120 0 202.5 89.5t82.5 227.5t-82.5 228t-202.5 90q-121 0 -203 -90t-82 -228t82 -227.5t203 -89.5zM549 -20q-120 0 -225.5 63t-168.5 169.5t-63 227.5t63 227.5t168.5 170t225.5 63.5t225.5 -63.5t168.5 -170t63 -227.5t-63 -227.5t-168.5 -169.5t-225.5 -63z
M219 975l264 309h131l265 -309h-101l-229 184l-230 -184h-100zM616 1333l-356 162l76 129l280 -209v-82z" />
    <glyph glyph-name="uni1ED4" unicode="&#x1ed4;" horiz-adv-x="1458" 
d="M729 -20q-129 0 -245 56t-197.5 150t-129.5 222t-48 268q0 139 48 266.5t129.5 222t197.5 151t245 56.5q172 0 315.5 -95.5t224.5 -255t81 -345.5q0 -188 -81 -347.5t-224.5 -254t-315.5 -94.5zM729 137q189 0 308.5 150.5t119.5 388.5t-119.5 388t-308.5 150
t-308.5 -150t-119.5 -388t119.5 -388.5t308.5 -150.5zM682 1765l25 50q20 46 20 69q0 41 -78 64l-104 26l41 115l121 -31q66 -19 101.5 -50.5t35.5 -84.5q0 -57 -53 -137l-13 -21h-96zM399 1425l271 275h118l271 -275h-107l-223 150l-223 -150h-107z" />
    <glyph glyph-name="uni1ED5" unicode="&#x1ed5;" horiz-adv-x="1097" 
d="M549 123q120 0 202.5 89.5t82.5 227.5t-82.5 228t-202.5 90q-121 0 -203 -90t-82 -228t82 -227.5t203 -89.5zM549 -20q-120 0 -225.5 63t-168.5 169.5t-63 227.5t63 227.5t168.5 170t225.5 63.5t225.5 -63.5t168.5 -170t63 -227.5t-63 -227.5t-168.5 -169.5t-225.5 -63z
M502 1315l24 49q21 48 21 70q0 23 -19.5 37t-58.5 26l-104 27l41 114l120 -30q66 -19 102 -50.5t36 -84.5q0 -56 -54 -138l-12 -20h-96zM219 975l270 274h119l271 -274h-107l-223 149l-223 -149h-107z" />
    <glyph glyph-name="uni1ED6" unicode="&#x1ed6;" horiz-adv-x="1458" 
d="M729 -20q-129 0 -245 56t-197.5 150t-129.5 222t-48 268q0 139 48 266.5t129.5 222t197.5 151t245 56.5q172 0 315.5 -95.5t224.5 -255t81 -345.5q0 -188 -81 -347.5t-224.5 -254t-315.5 -94.5zM729 137q189 0 308.5 150.5t119.5 388.5t-119.5 388t-308.5 150
t-308.5 -150t-119.5 -388t119.5 -388.5t308.5 -150.5zM500 1788h-92q19 116 72 178t132 62q55 0 117 -33q69 -37 121 -37q45 0 71.5 26.5t36.5 90.5h93q-19 -116 -72.5 -178t-132.5 -62q-55 0 -117 33q-69 37 -121 37q-45 0 -71.5 -26.5t-36.5 -90.5zM399 1425l265 310h131
l264 -310h-101l-229 185l-229 -185h-101z" />
    <glyph glyph-name="uni1ED7" unicode="&#x1ed7;" horiz-adv-x="1097" 
d="M549 123q120 0 202.5 89.5t82.5 227.5t-82.5 228t-202.5 90q-121 0 -203 -90t-82 -228t82 -227.5t203 -89.5zM549 -20q-120 0 -225.5 63t-168.5 169.5t-63 227.5t63 227.5t168.5 170t225.5 63.5t225.5 -63.5t168.5 -170t63 -227.5t-63 -227.5t-168.5 -169.5t-225.5 -63z
M319 1337h-92q19 116 72.5 178t132.5 62q55 0 117 -33q69 -37 121 -37q45 0 71.5 26.5t36.5 90.5h92q-19 -116 -72 -178t-132 -62q-55 0 -117 33q-69 37 -121 37q-45 0 -72 -27t-37 -90zM219 975l264 309h131l265 -309h-101l-229 184l-230 -184h-100z" />
    <glyph glyph-name="uni1ED8" unicode="&#x1ed8;" horiz-adv-x="1458" 
d="M729 -20q-129 0 -245 56t-197.5 150t-129.5 222t-48 268q0 139 48 266.5t129.5 222t197.5 151t245 56.5q172 0 315.5 -95.5t224.5 -255t81 -345.5q0 -188 -81 -347.5t-224.5 -254t-315.5 -94.5zM729 137q189 0 308.5 150.5t119.5 388.5t-119.5 388t-308.5 150
t-308.5 -150t-119.5 -388t119.5 -388.5t308.5 -150.5zM399 1446l265 336h131l264 -336h-101l-229 203l-229 -203h-101zM729 -338q-41 0 -68.5 26.5t-27.5 67.5t27.5 67.5t68.5 26.5t68.5 -26.5t27.5 -67.5t-27.5 -67.5t-68.5 -26.5z" />
    <glyph glyph-name="uni1ED9" unicode="&#x1ed9;" horiz-adv-x="1097" 
d="M549 123q120 0 202.5 89.5t82.5 227.5t-82.5 228t-202.5 90q-121 0 -203 -90t-82 -228t82 -227.5t203 -89.5zM549 -20q-120 0 -225.5 63t-168.5 169.5t-63 227.5t63 227.5t168.5 170t225.5 63.5t225.5 -63.5t168.5 -170t63 -227.5t-63 -227.5t-168.5 -169.5t-225.5 -63z
M219 995l264 336h131l265 -336h-101l-229 203l-230 -203h-100zM549 -338q-41 0 -68.5 26.5t-27.5 67.5t27.5 67.5t68.5 26.5t68.5 -26.5t27.5 -67.5t-27.5 -67.5t-68.5 -26.5z" />
    <glyph glyph-name="uni1EDA" unicode="&#x1eda;" horiz-adv-x="1458" 
d="M729 -20q-129 0 -245 56t-197.5 150t-129.5 222t-48 268q0 139 48 266.5t129.5 222t197.5 151t245 56.5q225 0 393 -158q103 114 103 263h141q0 -205 -170 -344q73 -94 113.5 -212t40.5 -245q0 -188 -81 -347.5t-224.5 -254t-315.5 -94.5zM729 137q189 0 308.5 150.5
t119.5 388.5t-119.5 388t-308.5 150t-308.5 -150t-119.5 -388t119.5 -388.5t308.5 -150.5zM680 1446l285 350l120 -104l-305 -246h-100z" />
    <glyph glyph-name="uni1EDB" unicode="&#x1edb;" horiz-adv-x="1097" 
d="M549 -20q-120 0 -225.5 63t-168.5 169.5t-63 227.5t63 227.5t168.5 170t225.5 63.5q143 0 268 -94q60 88 60 207h141q0 -162 -127 -277q115 -131 115 -297q0 -121 -63 -227.5t-168.5 -169.5t-225.5 -63zM549 123q120 0 202.5 89.5t82.5 227.5t-82.5 228t-202.5 90
q-121 0 -203 -90t-82 -228t82 -227.5t203 -89.5zM500 995l284 351l121 -105l-305 -246h-100z" />
    <glyph glyph-name="uni1EDC" unicode="&#x1edc;" horiz-adv-x="1458" 
d="M729 -20q-129 0 -245 56t-197.5 150t-129.5 222t-48 268q0 139 48 266.5t129.5 222t197.5 151t245 56.5q225 0 393 -158q103 114 103 263h141q0 -205 -170 -344q73 -94 113.5 -212t40.5 -245q0 -188 -81 -347.5t-224.5 -254t-315.5 -94.5zM729 137q189 0 308.5 150.5
t119.5 388.5t-119.5 388t-308.5 150t-308.5 -150t-119.5 -388t119.5 -388.5t308.5 -150.5zM678 1446l-305 246l121 104l284 -350h-100z" />
    <glyph glyph-name="uni1EDD" unicode="&#x1edd;" horiz-adv-x="1097" 
d="M549 -20q-120 0 -225.5 63t-168.5 169.5t-63 227.5t63 227.5t168.5 170t225.5 63.5q143 0 268 -94q60 88 60 207h141q0 -162 -127 -277q115 -131 115 -297q0 -121 -63 -227.5t-168.5 -169.5t-225.5 -63zM549 123q120 0 202.5 89.5t82.5 227.5t-82.5 228t-202.5 90
q-121 0 -203 -90t-82 -228t82 -227.5t203 -89.5zM500 995l-305 246l120 105l285 -351h-100z" />
    <glyph glyph-name="uni1EDE" unicode="&#x1ede;" horiz-adv-x="1458" 
d="M729 -20q-129 0 -245 56t-197.5 150t-129.5 222t-48 268q0 139 48 266.5t129.5 222t197.5 151t245 56.5q225 0 393 -158q103 114 103 263h141q0 -205 -170 -344q73 -94 113.5 -212t40.5 -245q0 -188 -81 -347.5t-224.5 -254t-315.5 -94.5zM729 137q189 0 308.5 150.5
t119.5 388.5t-119.5 388t-308.5 150t-308.5 -150t-119.5 -388t119.5 -388.5t308.5 -150.5zM674 1446l49 100q20 41 20 70q0 25 -14 38.5t-49 24.5l-141 39l43 119l157 -43q138 -39 138 -137q0 -57 -54 -139l-45 -72h-104z" />
    <glyph glyph-name="uni1EDF" unicode="&#x1edf;" horiz-adv-x="1097" 
d="M549 -20q-120 0 -225.5 63t-168.5 169.5t-63 227.5t63 227.5t168.5 170t225.5 63.5q143 0 268 -94q60 88 60 207h141q0 -162 -127 -277q115 -131 115 -297q0 -121 -63 -227.5t-168.5 -169.5t-225.5 -63zM549 123q120 0 202.5 89.5t82.5 227.5t-82.5 228t-202.5 90
q-121 0 -203 -90t-82 -228t82 -227.5t203 -89.5zM494 995l49 101q20 41 20 69q0 25 -14 39.5t-49 24.5l-142 39l43 118l158 -43q137 -38 137 -137q0 -59 -53 -139l-45 -72h-104z" />
    <glyph glyph-name="uni1EE0" unicode="&#x1ee0;" horiz-adv-x="1458" 
d="M729 -20q-129 0 -245 56t-197.5 150t-129.5 222t-48 268q0 139 48 266.5t129.5 222t197.5 151t245 56.5q225 0 393 -158q103 114 103 263h141q0 -205 -170 -344q73 -94 113.5 -212t40.5 -245q0 -188 -81 -347.5t-224.5 -254t-315.5 -94.5zM729 137q189 0 308.5 150.5
t119.5 388.5t-119.5 388t-308.5 150t-308.5 -150t-119.5 -388t119.5 -388.5t308.5 -150.5zM477 1446h-92q23 129 80.5 196.5t142.5 67.5q54 0 121 -33q79 -37 123 -37q54 0 84.5 35.5t44.5 106.5h92q-23 -129 -80.5 -196.5t-142.5 -67.5q-56 0 -121 32q-79 37 -123 37
q-54 0 -84.5 -35t-44.5 -106z" />
    <glyph glyph-name="uni1EE1" unicode="&#x1ee1;" horiz-adv-x="1097" 
d="M549 -20q-120 0 -225.5 63t-168.5 169.5t-63 227.5t63 227.5t168.5 170t225.5 63.5q143 0 268 -94q60 88 60 207h141q0 -162 -127 -277q115 -131 115 -297q0 -121 -63 -227.5t-168.5 -169.5t-225.5 -63zM549 123q120 0 202.5 89.5t82.5 227.5t-82.5 228t-202.5 90
q-121 0 -203 -90t-82 -228t82 -227.5t203 -89.5zM297 995h-92q23 129 80.5 197t142.5 68q54 0 121 -33q79 -37 123 -37q54 0 84.5 35t44.5 106h92q-23 -129 -80.5 -196.5t-142.5 -67.5q-54 0 -121 33q-79 37 -123 37q-54 0 -84.5 -35.5t-44.5 -106.5z" />
    <glyph glyph-name="uni1EE2" unicode="&#x1ee2;" horiz-adv-x="1458" 
d="M729 -20q-129 0 -245 56t-197.5 150t-129.5 222t-48 268q0 139 48 266.5t129.5 222t197.5 151t245 56.5q225 0 393 -158q103 114 103 263h141q0 -205 -170 -344q73 -94 113.5 -212t40.5 -245q0 -188 -81 -347.5t-224.5 -254t-315.5 -94.5zM729 137q189 0 308.5 150.5
t119.5 388.5t-119.5 388t-308.5 150t-308.5 -150t-119.5 -388t119.5 -388.5t308.5 -150.5zM729 -338q-41 0 -68.5 26.5t-27.5 67.5t27.5 67.5t68.5 26.5t68.5 -26.5t27.5 -67.5t-27.5 -67.5t-68.5 -26.5z" />
    <glyph glyph-name="uni1EE3" unicode="&#x1ee3;" horiz-adv-x="1097" 
d="M549 -20q-120 0 -225.5 63t-168.5 169.5t-63 227.5t63 227.5t168.5 170t225.5 63.5q143 0 268 -94q60 88 60 207h141q0 -162 -127 -277q115 -131 115 -297q0 -121 -63 -227.5t-168.5 -169.5t-225.5 -63zM549 123q120 0 202.5 89.5t82.5 227.5t-82.5 228t-202.5 90
q-121 0 -203 -90t-82 -228t82 -227.5t203 -89.5zM549 -338q-41 0 -68.5 26.5t-27.5 67.5t27.5 67.5t68.5 26.5t68.5 -26.5t27.5 -67.5t-27.5 -67.5t-68.5 -26.5z" />
    <glyph glyph-name="uni1EE4" unicode="&#x1ee4;" horiz-adv-x="1380" 
d="M690 -20q-243 0 -379.5 138t-136.5 390v844h184v-850q0 -176 86.5 -270.5t245.5 -94.5q157 0 244.5 94t87.5 271v850h184v-844q0 -252 -136.5 -390t-379.5 -138zM690 -338q-41 0 -68.5 26.5t-27.5 67.5t27.5 67.5t68.5 26.5t68.5 -26.5t27.5 -67.5t-27.5 -67.5
t-68.5 -26.5z" />
    <glyph glyph-name="uni1EE5" unicode="&#x1ee5;" horiz-adv-x="1107" 
d="M459 -20q-143 0 -222 83.5t-79 237.5v580h55q83 0 113 12v-567q0 -107 43 -153t137 -46q125 0 199.5 75.5t74.5 209.5v469h56q82 0 112 12v-893h-168v180q-41 -97 -125 -148.5t-196 -51.5zM551 -338q-41 0 -68.5 26.5t-27.5 67.5t27.5 67.5t68.5 26.5t68.5 -26.5
t27.5 -67.5t-27.5 -67.5t-68.5 -26.5z" />
    <glyph glyph-name="uni1EE6" unicode="&#x1ee6;" horiz-adv-x="1380" 
d="M690 -20q-243 0 -379.5 138t-136.5 390v844h184v-850q0 -176 86.5 -270.5t245.5 -94.5q157 0 244.5 94t87.5 271v850h184v-844q0 -252 -136.5 -390t-379.5 -138zM635 1446l49 100q21 44 21 70q0 25 -14.5 38.5t-49.5 24.5l-141 39l43 119l157 -43q138 -39 138 -137
q0 -57 -54 -139l-45 -72h-104z" />
    <glyph glyph-name="uni1EE7" unicode="&#x1ee7;" horiz-adv-x="1107" 
d="M459 -20q-143 0 -222 83.5t-79 237.5v580h55q83 0 113 12v-567q0 -107 43 -153t137 -46q125 0 199.5 75.5t74.5 209.5v469h56q82 0 112 12v-893h-168v180q-41 -97 -125 -148.5t-196 -51.5zM496 995l49 101q20 41 20 69q0 25 -14 39.5t-49 24.5l-142 39l43 118l158 -43
q137 -38 137 -137q0 -59 -53 -139l-45 -72h-104z" />
    <glyph glyph-name="uni1EE8" unicode="&#x1ee8;" horiz-adv-x="1380" 
d="M690 -20q-243 0 -379.5 138t-136.5 390v844h184v-850q0 -176 86.5 -270.5t245.5 -94.5q157 0 244.5 94t87.5 271v850h145q37 78 37 174h137q0 -157 -135 -283v-735q0 -252 -136.5 -390t-379.5 -138zM641 1446l285 350l121 -104l-306 -246h-100z" />
    <glyph glyph-name="uni1EE9" unicode="&#x1ee9;" horiz-adv-x="1107" 
d="M459 -20q-143 0 -222 83.5t-79 237.5v580h55q83 0 113 12v-567q0 -107 43 -153t137 -46q125 0 199.5 75.5t74.5 209.5v469h105q51 77 51 194h141q0 -165 -129 -276v-799h-168v180q-41 -97 -125 -148.5t-196 -51.5zM502 995l284 351l121 -105l-305 -246h-100z" />
    <glyph glyph-name="uni1EEA" unicode="&#x1eea;" horiz-adv-x="1380" 
d="M690 -20q-243 0 -379.5 138t-136.5 390v844h184v-850q0 -176 86.5 -270.5t245.5 -94.5q157 0 244.5 94t87.5 271v850h145q37 78 37 174h137q0 -157 -135 -283v-735q0 -252 -136.5 -390t-379.5 -138zM639 1446l-305 246l121 104l284 -350h-100z" />
    <glyph glyph-name="uni1EEB" unicode="&#x1eeb;" horiz-adv-x="1107" 
d="M459 -20q-143 0 -222 83.5t-79 237.5v580h55q83 0 113 12v-567q0 -107 43 -153t137 -46q125 0 199.5 75.5t74.5 209.5v469h105q51 77 51 194h141q0 -165 -129 -276v-799h-168v180q-41 -97 -125 -148.5t-196 -51.5zM502 995l-305 246l120 105l285 -351h-100z" />
    <glyph glyph-name="uni1EEC" unicode="&#x1eec;" horiz-adv-x="1380" 
d="M690 -20q-243 0 -379.5 138t-136.5 390v844h184v-850q0 -176 86.5 -270.5t245.5 -94.5q157 0 244.5 94t87.5 271v850h145q37 78 37 174h137q0 -157 -135 -283v-735q0 -252 -136.5 -390t-379.5 -138zM635 1446l49 100q21 44 21 70q0 25 -14.5 38.5t-49.5 24.5l-141 39
l43 119l157 -43q138 -39 138 -137q0 -57 -54 -139l-45 -72h-104z" />
    <glyph glyph-name="uni1EED" unicode="&#x1eed;" horiz-adv-x="1107" 
d="M459 -20q-143 0 -222 83.5t-79 237.5v580h55q83 0 113 12v-567q0 -107 43 -153t137 -46q125 0 199.5 75.5t74.5 209.5v469h105q51 77 51 194h141q0 -165 -129 -276v-799h-168v180q-41 -97 -125 -148.5t-196 -51.5zM496 995l49 101q20 41 20 69q0 25 -14 39.5t-49 24.5
l-142 39l43 118l158 -43q137 -38 137 -137q0 -59 -53 -139l-45 -72h-104z" />
    <glyph glyph-name="uni1EEE" unicode="&#x1eee;" horiz-adv-x="1380" 
d="M690 -20q-243 0 -379.5 138t-136.5 390v844h184v-850q0 -176 86.5 -270.5t245.5 -94.5q157 0 244.5 94t87.5 271v850h145q37 78 37 174h137q0 -157 -135 -283v-735q0 -252 -136.5 -390t-379.5 -138zM438 1446h-92q23 129 80.5 196.5t142.5 67.5q54 0 121 -33
q79 -37 123 -37q54 0 84.5 35.5t44.5 106.5h92q-23 -129 -80.5 -196.5t-142.5 -67.5q-56 0 -121 32q-79 37 -123 37q-54 0 -84.5 -35t-44.5 -106z" />
    <glyph glyph-name="uni1EEF" unicode="&#x1eef;" horiz-adv-x="1107" 
d="M459 -20q-143 0 -222 83.5t-79 237.5v580h55q83 0 113 12v-567q0 -107 43 -153t137 -46q125 0 199.5 75.5t74.5 209.5v469h105q51 77 51 194h141q0 -165 -129 -276v-799h-168v180q-41 -97 -125 -148.5t-196 -51.5zM299 995h-92q23 129 80.5 197t142.5 68q54 0 121 -33
q79 -37 123 -37q54 0 84.5 35t44.5 106h92q-23 -129 -80.5 -196.5t-142.5 -67.5q-54 0 -121 33q-79 37 -123 37q-54 0 -84.5 -35.5t-44.5 -106.5z" />
    <glyph glyph-name="uni1EF0" unicode="&#x1ef0;" horiz-adv-x="1380" 
d="M690 -20q-243 0 -379.5 138t-136.5 390v844h184v-850q0 -176 86.5 -270.5t245.5 -94.5q157 0 244.5 94t87.5 271v850h145q37 78 37 174h137q0 -157 -135 -283v-735q0 -252 -136.5 -390t-379.5 -138zM690 -338q-41 0 -68.5 26.5t-27.5 67.5t27.5 67.5t68.5 26.5
t68.5 -26.5t27.5 -67.5t-27.5 -67.5t-68.5 -26.5z" />
    <glyph glyph-name="uni1EF1" unicode="&#x1ef1;" horiz-adv-x="1107" 
d="M459 -20q-143 0 -222 83.5t-79 237.5v580h55q83 0 113 12v-567q0 -107 43 -153t137 -46q125 0 199.5 75.5t74.5 209.5v469h105q51 77 51 194h141q0 -165 -129 -276v-799h-168v180q-41 -97 -125 -148.5t-196 -51.5zM551 -338q-41 0 -68.5 26.5t-27.5 67.5t27.5 67.5
t68.5 26.5t68.5 -26.5t27.5 -67.5t-27.5 -67.5t-68.5 -26.5z" />
    <glyph glyph-name="Ygrave" unicode="&#x1ef2;" horiz-adv-x="1105" 
d="M461 0v520l-455 832h199l350 -676l352 676h193l-455 -832v-520h-184zM506 1446l-305 246l121 104l284 -350h-100z" />
    <glyph glyph-name="ygrave" unicode="&#x1ef3;" horiz-adv-x="958" 
d="M209 -430l188 444l-362 867h172l278 -695l285 695h154l-547 -1311h-168zM440 995l-305 246l121 105l285 -351h-101z" />
    <glyph glyph-name="uni1EF4" unicode="&#x1ef4;" horiz-adv-x="1105" 
d="M461 0v520l-455 832h199l350 -676l352 676h193l-455 -832v-520h-184zM557 -338q-41 0 -68.5 26.5t-27.5 67.5t27.5 67.5t68.5 26.5t68.5 -26.5t27.5 -67.5t-27.5 -67.5t-68.5 -26.5z" />
    <glyph glyph-name="uni1EF5" unicode="&#x1ef5;" horiz-adv-x="958" 
d="M209 -430l188 444l-362 867h172l278 -695l285 695h154l-547 -1311h-168zM778 -338q-41 0 -68.5 26.5t-27.5 67.5t27.5 67.5t68.5 26.5t68.5 -26.5t27.5 -67.5t-27.5 -67.5t-68.5 -26.5z" />
    <glyph glyph-name="uni1EF6" unicode="&#x1ef6;" horiz-adv-x="1105" 
d="M461 0v520l-455 832h199l350 -676l352 676h193l-455 -832v-520h-184zM502 1446l49 100q20 41 20 70q0 25 -14 38.5t-49 24.5l-141 39l43 119l157 -43q138 -39 138 -137q0 -57 -54 -139l-45 -72h-104z" />
    <glyph glyph-name="uni1EF7" unicode="&#x1ef7;" horiz-adv-x="958" 
d="M209 -430l188 444l-362 867h172l278 -695l285 695h154l-547 -1311h-168zM434 995l49 101q21 44 21 69t-14.5 39t-49.5 25l-141 39l43 118l158 -43q137 -38 137 -137q0 -59 -53 -139l-45 -72h-105z" />
    <glyph glyph-name="uni1EF8" unicode="&#x1ef8;" horiz-adv-x="1105" 
d="M461 0v520l-455 832h199l350 -676l352 676h193l-455 -832v-520h-184zM305 1446h-92q23 129 80.5 196.5t142.5 67.5q54 0 121 -33q79 -37 123 -37q54 0 84.5 35.5t44.5 106.5h92q-23 -129 -80.5 -196.5t-142.5 -67.5q-56 0 -121 32q-79 37 -123 37q-54 0 -84.5 -35
t-44.5 -106z" />
    <glyph glyph-name="uni1EF9" unicode="&#x1ef9;" horiz-adv-x="958" 
d="M209 -430l188 444l-362 867h172l278 -695l285 695h154l-547 -1311h-168zM240 995h-93q23 129 81 197t143 68q54 0 121 -33q79 -37 122 -37q54 0 84.5 35t44.5 106h93q-23 -128 -81 -196t-143 -68q-53 0 -120 33q-79 37 -123 37q-54 0 -84.5 -35.5t-44.5 -106.5z" />
    <glyph glyph-name="endash" unicode="&#x2013;" horiz-adv-x="1024" 
d="M164 436v131h696v-131h-696z" />
    <glyph glyph-name="emdash" unicode="&#x2014;" horiz-adv-x="2048" 
d="M164 436v131h1720v-131h-1720z" />
    <glyph glyph-name="quoteleft" unicode="&#x2018;" horiz-adv-x="516" 
d="M262 848q-68 0 -112 61.5t-44 159.5q0 128 80.5 205.5t223.5 91.5l16 -88q-103 -10 -159 -62t-56 -129q0 -18 4 -38q22 16 53 16q45 0 76 -31t31 -78t-32 -77.5t-81 -30.5z" />
    <glyph glyph-name="quoteright" unicode="&#x2019;" horiz-adv-x="516" 
d="M106 848l-16 88q103 10 159 61.5t56 128.5q0 19 -4 39q-22 -16 -53 -16q-45 0 -76 30.5t-31 77.5t32 78t81 31q68 0 112 -61.5t44 -159.5q0 -128 -80.5 -205.5t-223.5 -91.5z" />
    <glyph glyph-name="quotesinglbase" unicode="&#x201a;" horiz-adv-x="516" 
d="M106 -313l-16 88q103 10 159 61.5t56 128.5q0 19 -4 39q-22 -16 -53 -16q-45 0 -76 30.5t-31 77.5t32 78t81 31q68 0 112 -61.5t44 -159.5q0 -128 -80.5 -205.5t-223.5 -91.5z" />
    <glyph glyph-name="quotedblleft" unicode="&#x201c;" horiz-adv-x="876" 
d="M262 848q-68 0 -112 61.5t-44 159.5q0 128 80.5 205.5t223.5 91.5l16 -88q-103 -10 -159 -62t-56 -129q0 -18 4 -38q22 16 53 16q45 0 76 -31t31 -78t-32 -77.5t-81 -30.5zM623 848q-68 0 -112 61.5t-44 159.5q0 128 80 205.5t223 91.5l16 -88q-103 -10 -159 -62
t-56 -129q0 -18 4 -38q22 16 54 16q45 0 75.5 -31t30.5 -78t-31.5 -77.5t-80.5 -30.5z" />
    <glyph glyph-name="quotedblright" unicode="&#x201d;" horiz-adv-x="876" 
d="M106 848l-16 88q103 10 159 61.5t56 128.5q0 19 -4 39q-22 -16 -53 -16q-45 0 -76 30.5t-31 77.5t32 78t81 31q68 0 112 -61.5t44 -159.5q0 -128 -80.5 -205.5t-223.5 -91.5zM467 848l-16 88q103 10 159 61.5t56 128.5q0 19 -4 39q-22 -16 -54 -16q-45 0 -75.5 30.5
t-30.5 77.5t31.5 78t80.5 31q68 0 112 -61.5t44 -159.5q0 -128 -80 -205.5t-223 -91.5z" />
    <glyph glyph-name="quotedblbase" unicode="&#x201e;" horiz-adv-x="876" 
d="M106 -313l-16 88q103 10 159 61.5t56 128.5q0 19 -4 39q-22 -16 -53 -16q-45 0 -76 30.5t-31 77.5t32 78t81 31q68 0 112 -61.5t44 -159.5q0 -128 -80.5 -205.5t-223.5 -91.5zM467 -313l-16 88q103 10 159 61.5t56 128.5q0 19 -4 39q-22 -16 -54 -16q-45 0 -75.5 30.5
t-30.5 77.5t31.5 78t80.5 31q68 0 112 -61.5t44 -159.5q0 -128 -80 -205.5t-223 -91.5z" />
    <glyph glyph-name="dagger" unicode="&#x2020;" horiz-adv-x="1097" 
d="M516 -430l-33 856l33 420h-455v86h455l-33 420h131l-32 -420h454v-86h-454l32 -420l-32 -856h-66z" />
    <glyph glyph-name="daggerdbl" unicode="&#x2021;" horiz-adv-x="1097" 
d="M483 -430l33 420h-455v86h455l-33 385l33 385h-455v86h455l-33 420h131l-32 -420h454v-86h-454l32 -385l-32 -385h454v-86h-454l32 -420h-131z" />
    <glyph glyph-name="bullet" unicode="&#x2022;" horiz-adv-x="788" 
d="M393 270q-92 0 -162.5 70.5t-70.5 161.5t70.5 161t162.5 70q94 0 165 -70t71 -161t-71.5 -161.5t-164.5 -70.5z" />
    <glyph glyph-name="ellipsis" unicode="&#x2026;" horiz-adv-x="1372" 
d="M258 -16q-49 0 -82 32.5t-33 79.5q0 48 33 80.5t82 32.5t82 -32.5t33 -80.5q0 -47 -33 -79.5t-82 -32.5zM686 -16q-49 0 -82 32.5t-33 79.5q0 48 33 80.5t82 32.5t82 -32.5t33 -80.5q0 -47 -33 -79.5t-82 -32.5zM1114 -16q-49 0 -82 32.5t-33 79.5q0 48 33 80.5t82 32.5
t82 -32.5t33 -80.5q0 -47 -33 -79.5t-82 -32.5z" />
    <glyph glyph-name="perthousand" unicode="&#x2030;" horiz-adv-x="2359" 
d="M424 696q-132 0 -231 99.5t-99 238.5t99 238.5t231 99.5t231 -99.5t99 -238.5t-99 -238.5t-231 -99.5zM424 821q78 0 127 60t49 153t-49 153t-127 60t-127 -60t-49 -153t49 -153t127 -60zM313 0h-176l1149 1352h176zM1176 -20q-132 0 -231 99t-99 238t99 238.5t231 99.5
t230.5 -99.5t98.5 -238.5t-98.5 -238t-230.5 -99zM1176 104q78 0 127 60t49 153t-49 153t-127 60t-127.5 -60t-49.5 -153t49.5 -153t127.5 -60zM1935 -20q-132 0 -230.5 99t-98.5 238t98.5 238.5t230.5 99.5t231 -99.5t99 -238.5t-99 -238t-231 -99zM1935 104q78 0 127 60
t49 153t-49 153t-127 60t-127 -60t-49 -153t49 -153t127 -60z" />
    <glyph glyph-name="guilsinglleft" unicode="&#x2039;" horiz-adv-x="526" 
d="M336 78l-254 377l254 376l108 -49l-202 -327l202 -328z" />
    <glyph glyph-name="guilsinglright" unicode="&#x203a;" horiz-adv-x="526" 
d="M190 78l-108 49l203 328l-203 327l108 49l254 -376z" />
    <glyph glyph-name="fraction" unicode="&#x2044;" horiz-adv-x="352" 
d="M-487 0l1149 1352h178l-1149 -1352h-178z" />
    <glyph glyph-name="uni2070" unicode="&#x2070;" horiz-adv-x="798" 
d="M399 596q-135 0 -231 111t-96 274q0 164 96 273.5t231 109.5t231.5 -110t96.5 -273t-96.5 -274t-231.5 -111zM399 721q77 0 126.5 69.5t49.5 190.5t-49.5 189.5t-126.5 68.5t-126.5 -68.5t-49.5 -189.5t49.5 -190.5t126.5 -69.5z" />
    <glyph glyph-name="uni2074" unicode="&#x2074;" horiz-adv-x="798" 
d="M471 608v166h-436v94l444 484h139v-461h136v-117h-136v-166h-147zM195 891h276v301z" />
    <glyph glyph-name="uni2075" unicode="&#x2075;" horiz-adv-x="798" 
d="M399 596q-115 0 -201.5 45.5t-117.5 118.5l117 63q68 -108 204 -108q78 0 123 34t45 89q0 56 -45 88t-129 32q-88 0 -164 -40l-100 61l41 373h512v-119h-395l-23 -195q71 39 166 39q124 0 207.5 -66.5t83.5 -168.5q0 -106 -92.5 -176t-231.5 -70z" />
    <glyph glyph-name="uni2076" unicode="&#x2076;" horiz-adv-x="798" 
d="M428 596q-146 0 -240 88q-106 97 -106 283q0 182 108 289.5t293 107.5q144 0 215 -47l-43 -121q-57 45 -172 45q-123 0 -191.5 -69t-68.5 -193v-12q29 51 90 80.5t136 29.5q118 0 203 -68.5t85 -166.5q0 -100 -88 -173t-221 -73zM422 713q75 0 122.5 34t47.5 89t-47 88.5
t-123 33.5t-123 -33.5t-47 -88.5t47.5 -89t122.5 -34z" />
    <glyph glyph-name="uni2077" unicode="&#x2077;" horiz-adv-x="798" 
d="M205 608l315 623h-434v121h592v-109l-316 -635h-157z" />
    <glyph glyph-name="uni2078" unicode="&#x2078;" horiz-adv-x="798" 
d="M401 596q-140 0 -234.5 60.5t-94.5 148.5q0 58 47.5 103.5t132.5 68.5l-21 8q-141 55 -141 166q0 91 89 152t220 61q129 0 219.5 -60t90.5 -145q0 -114 -166 -166l41 -14q143 -52 143 -162q0 -96 -93 -158.5t-233 -62.5zM485 893l-129 45q-133 -47 -133 -125
q0 -47 48 -74.5t128 -27.5q79 0 127.5 26.5t48.5 69.5q0 51 -90 86zM240 1157q0 -30 23.5 -49t72.5 -39l100 -37q123 48 123 119q0 45 -43.5 71.5t-118.5 26.5q-74 0 -115.5 -25t-41.5 -67z" />
    <glyph glyph-name="uni2079" unicode="&#x2079;" horiz-adv-x="798" 
d="M315 596q-144 0 -215 47l43 121q57 -45 172 -45q123 0 191.5 69t68.5 193v12q-29 -51 -90 -80.5t-135 -29.5q-118 0 -203.5 68.5t-85.5 166.5q0 99 88.5 172.5t221.5 73.5q145 0 239 -88q107 -98 107 -283q0 -181 -109.5 -289t-292.5 -108zM377 1001q75 0 122.5 34
t47.5 89t-47.5 89t-122.5 34t-122.5 -34t-47.5 -89t47.5 -89t122.5 -34z" />
    <glyph glyph-name="uni2080" unicode="&#x2080;" horiz-adv-x="798" 
d="M399 -12q-135 0 -231 111t-96 274q0 164 96 273.5t231 109.5t231.5 -110t96.5 -273t-96.5 -274t-231.5 -111zM399 113q77 0 126.5 69.5t49.5 190.5t-49.5 189.5t-126.5 68.5t-126.5 -68.5t-49.5 -189.5t49.5 -190.5t126.5 -69.5z" />
    <glyph glyph-name="uni2081" unicode="&#x2081;" horiz-adv-x="798" 
d="M117 0v121h264v434q-49 -52 -104 -83.5t-150 -65.5l-41 120q110 40 187.5 91t148.5 126h106v-622h224v-121h-635z" />
    <glyph glyph-name="uni2082" unicode="&#x2082;" horiz-adv-x="798" 
d="M88 0v109q447 206 447 401q0 59 -39 90t-109 31q-76 0 -129.5 -36t-77.5 -99l-119 55q30 95 120.5 150t209.5 55q132 0 214.5 -68.5t82.5 -173.5q0 -219 -393 -395h399v-119h-606z" />
    <glyph glyph-name="uni2083" unicode="&#x2083;" horiz-adv-x="798" 
d="M391 -12q-121 0 -208 50.5t-117 133.5l114 68q55 -129 213 -129q75 0 120.5 30.5t45.5 81.5q0 60 -61.5 93.5t-171.5 35.5l-39 60l221 213h-406v118h578v-108l-207 -201q113 -18 176.5 -72t63.5 -139q0 -103 -90.5 -169t-231.5 -66z" />
    <glyph glyph-name="uni2084" unicode="&#x2084;" horiz-adv-x="798" 
d="M471 0v166h-436v94l444 483h139v-460h136v-117h-136v-166h-147zM195 283h276v301z" />
    <glyph glyph-name="uni2085" unicode="&#x2085;" horiz-adv-x="798" 
d="M399 -12q-115 0 -201.5 45.5t-117.5 118.5l117 63q69 -109 204 -109q78 0 123 34t45 89q0 56 -45 88.5t-129 32.5q-87 0 -164 -41l-100 62l41 372h512v-118h-395l-23 -195q71 39 166 39q124 0 207.5 -67t83.5 -169q0 -106 -92 -175.5t-232 -69.5z" />
    <glyph glyph-name="uni2086" unicode="&#x2086;" horiz-adv-x="798" 
d="M428 -12q-146 0 -240 88q-106 97 -106 282q0 182 108 290t293 108q144 0 215 -47l-43 -121q-57 45 -172 45q-123 0 -191.5 -69t-68.5 -193v-13q29 51 90 81t136 30q118 0 203 -69t85 -167q0 -99 -88 -172t-221 -73zM422 104q75 0 122.5 34t47.5 89t-47.5 89t-122.5 34
t-122.5 -34t-47.5 -89t47.5 -89t122.5 -34z" />
    <glyph glyph-name="uni2087" unicode="&#x2087;" horiz-adv-x="798" 
d="M205 0l315 623h-434v120h592v-108l-316 -635h-157z" />
    <glyph glyph-name="uni2088" unicode="&#x2088;" horiz-adv-x="798" 
d="M401 -12q-140 0 -234.5 60.5t-94.5 148.5q0 58 47.5 103.5t132.5 68.5l-21 8q-141 55 -141 166q0 91 89 152t220 61q129 0 219.5 -60t90.5 -145q0 -114 -166 -166l41 -14q143 -52 143 -162q0 -96 -93 -158.5t-233 -62.5zM485 285l-129 45q-133 -47 -133 -125
q0 -47 48 -75t128 -28q79 0 127.5 27t48.5 70q0 51 -90 86zM240 549q0 -30 23.5 -49t72.5 -39l100 -37q123 48 123 119q0 45 -43.5 71.5t-118.5 26.5q-74 0 -115.5 -25t-41.5 -67z" />
    <glyph glyph-name="uni2089" unicode="&#x2089;" horiz-adv-x="798" 
d="M315 -12q-144 0 -215 47l43 121q57 -45 172 -45q123 0 191.5 69t68.5 193v12q-29 -51 -90 -81t-135 -30q-118 0 -203.5 69t-85.5 167q0 99 88.5 172.5t221.5 73.5q145 0 239 -88q107 -98 107 -283q0 -181 -109.5 -289t-292.5 -108zM377 393q75 0 122.5 34t47.5 89
t-47.5 89t-122.5 34t-122.5 -34t-47.5 -89t47.5 -89t122.5 -34z" />
    <glyph glyph-name="Euro" unicode="&#x20ac;" horiz-adv-x="1388" 
d="M90 760v129h178q54 214 203.5 348.5t355.5 134.5q162 0 281.5 -85.5t179.5 -244.5l-135 -79q-97 262 -330 262q-140 0 -236.5 -88.5t-135.5 -247.5h487v-129h-510q-2 -31 -2 -84q0 -57 2 -84h510v-129h-487q39 -159 135.5 -247.5t236.5 -88.5q233 0 330 262l135 -80
q-60 -159 -179.5 -244t-281.5 -85q-208 0 -355.5 133t-203.5 350h-178v129h158q-4 12 -4 84q0 68 4 84h-158z" />
    <glyph glyph-name="trademark" unicode="&#x2122;" horiz-adv-x="1681" 
d="M768 631v721h111l262 -434l262 434h104v-721h-118v508l-215 -353h-72l-215 353v-508h-119zM266 631v626h-227v95h588v-95h-228v-626h-133z" />
    <glyph glyph-name="Omega" unicode="&#x2126;" horiz-adv-x="1228" 
d="M94 0v135h295q-122 82 -189 233t-67 343q0 183 63 334.5t173.5 239t244.5 87.5t244.5 -87.5t174 -239t63.5 -334.5q0 -192 -67 -343t-189 -233h295v-135h-465v98q103 40 174 209t71 383q0 153 -38.5 276t-107.5 192t-155 69t-155 -69t-107.5 -192t-38.5 -276
q0 -214 71.5 -383t174.5 -209v-98h-465z" />
    <glyph glyph-name="uni2153" unicode="&#x2153;" horiz-adv-x="1949" 
d="M117 608v121h264v434q-49 -52 -104 -83.5t-150 -65.5l-41 121q110 40 187.5 91t148.5 126h106v-623h224v-121h-635zM311 0l1149 1352h178l-1149 -1352h-178zM1542 -12q-121 0 -208 50.5t-117 133.5l114 68q55 -129 213 -129q75 0 120.5 30.5t45.5 81.5q0 60 -61.5 93.5
t-171.5 35.5l-39 60l221 213h-406v118h578v-108l-207 -201q113 -18 176.5 -72t63.5 -139q0 -103 -90.5 -169t-231.5 -66z" />
    <glyph glyph-name="uni2154" unicode="&#x2154;" horiz-adv-x="1949" 
d="M88 608v109q447 206 447 401q0 59 -39 90t-109 31q-76 0 -129.5 -36t-77.5 -99l-119 55q30 95 120.5 150t209.5 55q132 0 214.5 -68.5t82.5 -173.5q0 -220 -393 -395h399v-119h-606zM311 0l1149 1352h178l-1149 -1352h-178zM1542 -12q-121 0 -208 50.5t-117 133.5l114 68
q55 -129 213 -129q75 0 120.5 30.5t45.5 81.5q0 60 -61.5 93.5t-171.5 35.5l-39 60l221 213h-406v118h578v-108l-207 -201q113 -18 176.5 -72t63.5 -139q0 -103 -90.5 -169t-231.5 -66z" />
    <glyph glyph-name="uni2155" unicode="&#x2155;" horiz-adv-x="1949" 
d="M117 608v121h264v434q-49 -52 -104 -83.5t-150 -65.5l-41 121q110 40 187.5 91t148.5 126h106v-623h224v-121h-635zM311 0l1149 1352h178l-1149 -1352h-178zM1550 -12q-115 0 -201.5 45.5t-117.5 118.5l117 63q69 -109 204 -109q78 0 123 34t45 89q0 56 -45 88.5
t-129 32.5q-87 0 -164 -41l-100 62l41 372h512v-118h-395l-23 -195q71 39 166 39q124 0 207.5 -67t83.5 -169q0 -106 -92 -175.5t-232 -69.5z" />
    <glyph glyph-name="uni2156" unicode="&#x2156;" horiz-adv-x="1949" 
d="M88 608v109q447 206 447 401q0 59 -39 90t-109 31q-76 0 -129.5 -36t-77.5 -99l-119 55q30 95 120.5 150t209.5 55q132 0 214.5 -68.5t82.5 -173.5q0 -220 -393 -395h399v-119h-606zM311 0l1149 1352h178l-1149 -1352h-178zM1550 -12q-115 0 -201.5 45.5t-117.5 118.5
l117 63q69 -109 204 -109q78 0 123 34t45 89q0 56 -45 88.5t-129 32.5q-87 0 -164 -41l-100 62l41 372h512v-118h-395l-23 -195q71 39 166 39q124 0 207.5 -67t83.5 -169q0 -106 -92 -175.5t-232 -69.5z" />
    <glyph glyph-name="uni2157" unicode="&#x2157;" horiz-adv-x="1949" 
d="M391 596q-121 0 -208 50.5t-117 133.5l114 68q55 -129 213 -129q75 0 120.5 30.5t45.5 81.5q0 60 -61.5 94.5t-171.5 35.5l-39 59l221 213h-406v119h578v-109l-207 -201q113 -18 176.5 -72t63.5 -139q0 -103 -90.5 -169t-231.5 -66zM311 0l1149 1352h178l-1149 -1352
h-178zM1550 -12q-115 0 -201.5 45.5t-117.5 118.5l117 63q69 -109 204 -109q78 0 123 34t45 89q0 56 -45 88.5t-129 32.5q-87 0 -164 -41l-100 62l41 372h512v-118h-395l-23 -195q71 39 166 39q124 0 207.5 -67t83.5 -169q0 -106 -92 -175.5t-232 -69.5z" />
    <glyph glyph-name="uni2158" unicode="&#x2158;" horiz-adv-x="1949" 
d="M471 608v166h-436v94l444 484h139v-461h136v-117h-136v-166h-147zM195 891h276v301zM311 0l1149 1352h178l-1149 -1352h-178zM1550 -12q-115 0 -201.5 45.5t-117.5 118.5l117 63q69 -109 204 -109q78 0 123 34t45 89q0 56 -45 88.5t-129 32.5q-87 0 -164 -41l-100 62
l41 372h512v-118h-395l-23 -195q71 39 166 39q124 0 207.5 -67t83.5 -169q0 -106 -92 -175.5t-232 -69.5z" />
    <glyph glyph-name="uni2159" unicode="&#x2159;" horiz-adv-x="1949" 
d="M117 608v121h264v434q-49 -52 -104 -83.5t-150 -65.5l-41 121q110 40 187.5 91t148.5 126h106v-623h224v-121h-635zM311 0l1149 1352h178l-1149 -1352h-178zM1579 -12q-146 0 -240 88q-106 97 -106 282q0 182 108 290t293 108q144 0 215 -47l-43 -121q-57 45 -172 45
q-123 0 -191.5 -69t-68.5 -193v-13q29 51 89.5 81t135.5 30q118 0 203.5 -69t85.5 -167q0 -99 -88 -172t-221 -73zM1573 104q75 0 122.5 34t47.5 89t-47.5 89t-122.5 34t-122.5 -34t-47.5 -89t47.5 -89t122.5 -34z" />
    <glyph glyph-name="uni215A" unicode="&#x215a;" horiz-adv-x="1949" 
d="M399 596q-115 0 -201.5 45.5t-117.5 118.5l117 63q68 -108 204 -108q78 0 123 34t45 89q0 56 -45 88t-129 32q-88 0 -164 -40l-100 61l41 373h512v-119h-395l-23 -195q71 39 166 39q124 0 207.5 -66.5t83.5 -168.5q0 -106 -92.5 -176t-231.5 -70zM311 0l1149 1352h178
l-1149 -1352h-178zM1579 -12q-146 0 -240 88q-106 97 -106 282q0 182 108 290t293 108q144 0 215 -47l-43 -121q-57 45 -172 45q-123 0 -191.5 -69t-68.5 -193v-13q29 51 89.5 81t135.5 30q118 0 203.5 -69t85.5 -167q0 -99 -88 -172t-221 -73zM1573 104q75 0 122.5 34
t47.5 89t-47.5 89t-122.5 34t-122.5 -34t-47.5 -89t47.5 -89t122.5 -34z" />
    <glyph glyph-name="uni215B" unicode="&#x215b;" horiz-adv-x="1949" 
d="M117 608v121h264v434q-49 -52 -104 -83.5t-150 -65.5l-41 121q110 40 187.5 91t148.5 126h106v-623h224v-121h-635zM311 0l1149 1352h178l-1149 -1352h-178zM1552 -12q-140 0 -234.5 60.5t-94.5 148.5q0 58 47.5 103.5t132.5 68.5l-21 8q-141 55 -141 166q0 91 89 152
t220 61q129 0 219.5 -60t90.5 -145q0 -114 -166 -166l41 -14q143 -52 143 -162q0 -96 -93 -158.5t-233 -62.5zM1636 285l-129 45q-133 -47 -133 -125q0 -47 48 -75t128 -28q79 0 127.5 27t48.5 70q0 51 -90 86zM1391 549q0 -30 23.5 -49t72.5 -39l100 -37q123 48 123 119
q0 45 -43.5 71.5t-118.5 26.5q-74 0 -115.5 -25t-41.5 -67z" />
    </font>
</defs>
</svg>
