<svg xmlns="http://www.w3.org/2000/svg" viewBox="0 0 100 85.12"><g id="Capa_2" data-name="Capa 2"><g id="Layer_1_copy" data-name="Layer 1 copy"><path d="M51.93,31.79c-1.33.19-4.25-.63-7.6-.69s-9.44,1.76-9.44,1.76a39.45,39.45,0,0,0,6.21.57c2.59-.06,6.08-.32,8.29-.57S53.26,31.6,51.93,31.79Z"/><path d="M70,33.11a16.67,16.67,0,0,1-3.42-.56c-1.33-.44-5.45-.07-6.46.12a10.9,10.9,0,0,1-2.41.07,34.81,34.81,0,0,0,4.75,1.51,11.24,11.24,0,0,0,5.32-.57Z"/><path d="M51.79,29.94l-.56,0Z"/><path d="M47,28.77a36.71,36.71,0,0,1,7.72-.44c1.08,0,3.17-.45.51-.45s-4.12-.31-9.69-.12A22.8,22.8,0,0,0,36,30.15C38.56,30.59,44.14,29.4,47,28.77Z"/><path d="M99.57.26l0,0h0A1,1,0,0,0,98.78,0a2.19,2.19,0,0,0-.71.1l0,0A40.39,40.39,0,0,0,92.8,3c-1.87,1-3.53,2-5.29,3-.45.26-.86.56-1.29.82s-1.15.62-1.69,1q-4.12,2.64-8.21,5.31A32.62,32.62,0,0,0,72,16.56a23.91,23.91,0,0,1-3.52,2.9c-1,.63-2,1.26-2.92,1.93a4.09,4.09,0,0,1-1.66.68,2.73,2.73,0,0,0-.41.1c-.21.08-.32.18-.35.32-1.34,0-4.07.43-5.43.6-1.67.21-4.2-.72-5.87-.82s-4.46.87-5.45.7a20.68,20.68,0,0,0-5.53-.31s0,0,0-.05c-.16-.18-.31-.43-.52-.5A4.35,4.35,0,0,0,39.25,22c-.24,0-.48.07-.72.05a9.93,9.93,0,0,1-1.44-.17,18.28,18.28,0,0,1-4.68-1.45,21.36,21.36,0,0,1-3-1.75c-2-1.39-6.21-4.19-6.21-4.19-1-.52-2.17-1.17-3.43-1.93-2-1.31-3.88-2.72-5.79-4.12C3.47.18,2.05.7,1.35,1a2.75,2.75,0,0,0-.49.31,2.24,2.24,0,0,0-.33.43A4.17,4.17,0,0,0,0,4.09,12.36,12.36,0,0,0,1,8.45c.36.91.79,1.79,1.09,2.72C3.19,14.58,4.26,18,5.34,21.44c.64,2,1.13,4.09,1.94,6a10.33,10.33,0,0,0,3.12,4.32c.09.08,2,1.11,1.86,2.09a3.57,3.57,0,0,0,0,.46,24.71,24.71,0,0,0,.4,3.75A8.75,8.75,0,0,0,13.79,41a1.15,1.15,0,0,1,.06.17l.42.86h0a1.45,1.45,0,0,0,.11.26c.94,1.56,1.87,3.12,2.81,4.67.14.24.32.45.44.62a7.21,7.21,0,0,0,.83.83,25,25,0,0,0-.18,3c.08,1.08.58,2.8.58,3.28a28.46,28.46,0,0,0,.59,7c.16.67,1.61,5.75,3.08,7.45S23.7,72,24,73.16c.69,2.76,3.52,2.81,3.92,3.89S34.32,82.26,39,82.42a19,19,0,0,1,7.35,1.35,19.15,19.15,0,0,0,7.52,1.34A27.31,27.31,0,0,0,59.91,84c2.5-.92,3-1.81,4.47-2,12.08-1.68,14.46-6.14,14.79-8.06s1.21-1.9,1.57-2.66A6.56,6.56,0,0,1,81.57,70c2.35-2.14,4.63-7.56,4.63-10.4A24.69,24.69,0,0,0,84.87,53a60.67,60.67,0,0,0,0-7.39,4.64,4.64,0,0,0,1-.75c.08-.06.12-.07.13-.1a5.56,5.56,0,0,0,1.29-2.53A10.5,10.5,0,0,1,87.6,41c.31-1,.66-2,1-3a10.5,10.5,0,0,0,.28-4.39A13.66,13.66,0,0,0,88,30.66c-.23-.63-.21-.93.17-1.21A18,18,0,0,0,84.84,31c-.73.49-1.42,1-2.12,1.55-.11.08-.22.18-.34.25a11.88,11.88,0,0,1-1.45,1c-.09,0-.33.34-.53-.17,0-.05-.18-.24.18-.52a7.08,7.08,0,0,1,1.14-.64,23.08,23.08,0,0,0,2.73-1.68c1.25-1.16,4.85-1.91,5.8-3a9.39,9.39,0,0,0,1.44-3.05q.66-2.52,1.29-5.06c.54-2.14,1.08-4.28,1.8-6.37a28.11,28.11,0,0,1,1.85-4.51,75.43,75.43,0,0,0,3.24-7.16S100.32.61,99.57.26ZM68.63,20c.53-.35,1.07-.68,1.59-1,.32-.21.63-.45,1-.67a1.63,1.63,0,0,1,.23-.11l0,.09c-.33.51-1.64,1.15-1.61,1.37s-.54.55-.55.7c.4.22.8.45,1.21.65a1.28,1.28,0,0,0,.48.09,14,14,0,0,0,3.1-.16,4.46,4.46,0,0,0,.78-.26l.26-.09,0,.09a6.1,6.1,0,0,1-2.31,1.42,10.31,10.31,0,0,1-2.27.35,2.53,2.53,0,0,1-.48-.08c-.43-.09-.86-.19-1.29-.31a.42.42,0,0,1-.34-.37c.25,0,0-.3-.34-.44-.1,0-.17-.15-.26-.24C67.53,20.62,68.63,20,68.63,20Zm-2.09,2.56c.55.13,1.13.18,1.67.34a4.48,4.48,0,0,0,2.18.12,12.36,12.36,0,0,0,3.37-.95,9.62,9.62,0,0,0,1.35-.6,5.33,5.33,0,0,0,.63-.71c.19-.24.17-.25.47-.25a4.1,4.1,0,0,1-2.14,2s-1.47.56-2,.71a10.42,10.42,0,0,1-5.93-.1,11.11,11.11,0,0,1-1.44-.58c-.17-.07-.4,0-.43-.28A4.63,4.63,0,0,1,66.54,22.58ZM27,23.16c.34-.24,3.87.43,4,.43.26,0,.5-.52.3-.6.09-.45.14-.49.61-.49.09,0,.18-.09.28-.1a3.3,3.3,0,0,1,1.13,0,10.92,10.92,0,0,0,1.4.17,5.54,5.54,0,0,0,.57-.07.61.61,0,0,1,.34.12c-.15.09.81-.2,1,.25a7.73,7.73,0,0,0,1,.29,2.34,2.34,0,0,1,.87.14l-.38.35a.63.63,0,0,1-.23.19.47.47,0,0,1-.37,0c-.24-.1-.43.05-.62.15l-.69.39a6.33,6.33,0,0,1-1.23.42c-.56,0-1.12,0-1.68,0s-1.25,0-1.87-.06a5.49,5.49,0,0,1-.78-.18c-.24-.06-.49-.11-.73-.18C29.7,24.34,26.55,23.83,27,23.16Zm5.42,22.27c-.94.58-1.92,3-2.21,2.8s.21-3.48.59-4a9.64,9.64,0,0,0-1.08-.46c-.56-.2-1.32-.28-.4-.6s3.06,1.12,4.39,2.28a5.93,5.93,0,0,1,1.52,3.45c-1.56.52-2.21-.36-2.09-1A4.44,4.44,0,0,0,32.39,45.43ZM34.72,44c-1-1-3.34-3.08-3.94-3.88s-3.14-1-3.86-1.24-.24-.52,1.57-.48a4.37,4.37,0,0,1,2.93.76c.45.36,1.37.88,2.26,1.6a46.28,46.28,0,0,1,4.06,4.48,10.45,10.45,0,0,1,1.81,3.49,2.51,2.51,0,0,1-.24,1c-.24.48-.16.44-1.45-1.73A17.22,17.22,0,0,0,34.72,44Zm-5.35,7.49a19,19,0,0,0,3.34.24c1.57,0,2.21.2,3.22.16s.24.48.68.4,1.13.44.32.44-1.73-.08-2.89,0-2.46-.24-3.86-.28A18.73,18.73,0,0,1,24.63,51a3.33,3.33,0,0,1-1.73-2.81c0-.36.64-.6,1.44-.64s.37.81.37.81c-.08.48.12,1.68.6,2A14.6,14.6,0,0,0,29.37,51.52Zm5.07,17.32c-.36.2-.6.08-.92-.16a4.57,4.57,0,0,0-1.77-1c-1-.28-.81-1.16-.21-1s1,0,2.18,0,1,.68.8,1.12A1.5,1.5,0,0,0,34.44,68.84ZM32.55,56.12c-.44-.48-.36-.8-1.57-1s-2.25-.48-4.71-1.16-1.52-1.32-1.52-1.32.68.76,5.47,1.48,6,.76,6,.76a4.35,4.35,0,0,1-.16.84C35.66,57.21,33,56.6,32.55,56.12Zm-3.88,6.46a4.8,4.8,0,0,1-3.19-1.13c-1.55-1.27-3.19-4.62-3.19-4.62.41.27,1,1.09,2,2.08s2.73,2.72,4.42,2.77S29.81,62.45,28.67,62.58Zm-5-30.3,0,0c.38.1.74,1,.76,1.44a4.58,4.58,0,0,1-.21,2.4A7.89,7.89,0,0,1,23,37.73C22.45,37.36,24,34.88,23.65,32.28ZM2.94,5.72a.66.66,0,0,1-1-.17c-.18-.38-.57-.53-.83-.87a.87.87,0,0,1,0-1.19c.05,0,.18,0,.28,0a.37.37,0,0,1,.14.07L3.8,5.26c.14.11,3.64,2.92,3.75,3.07C7.21,9,3.41,5.39,2.94,5.72ZM6.5,4.39a7,7,0,0,0-.91-.72l-2-1.31c-.23-.15-.4-.42-.33-.3a4.92,4.92,0,0,1-.76-.32l-.29-.15C3.31,1.86,5.54,3,10.51,6.67l.28.27c0-.09.61.44.69.5.83.63,1.65,1.28,2.49,1.89h0l.77.6a52.22,52.22,0,0,0,8,5.11v0c.53.35,1.19.76,1.72,1.07a7.23,7.23,0,0,1,.64.44l0,.06-.12,0-2.13-1c-.42-.2-.85-.37-1.25-.6-.9-.51-1.78-1-2.67-1.56L16.49,12c-.26-.15-.55-.26-.79-.43a5,5,0,0,0-1-.71,1.64,1.64,0,0,1-.46-.27L12.53,9.33c-.55-.41-1.11-.79-1.64-1.21-.78-.63-1.53-1.29-2.29-1.94-.23-.19-.44-.39-.66-.58C7.46,5.2,7,4.82,6.5,4.39ZM19,22.91c-.73-1.14-1.47-2.29-2.23-3.42-.54-.81-1.09-1.63-1.69-2.41s-1.27-1.61-2-2.37c-.93-1-1.91-2-2.85-2.93a11.08,11.08,0,0,1-.8-1A5.74,5.74,0,0,1,8.31,9.05c-.07-.44.95.69,1,.68l2.5,2.64c.84.89,1.71,1.76,2.49,2.7s1.54,2.08,2.29,3.13c.42.59.83,1.19,1.22,1.8s.76,1.25,1.15,1.87.85,1.25,1.18,1.92c.23.46.65.7.94,1.07.11.16.19.34.29.51s.25.28.29.44c.17.63.32,1.27.47,1.9a.31.31,0,0,1-.24.38,1.32,1.32,0,0,1-.67-.62A24.5,24.5,0,0,0,19,22.91ZM20.6,54a9.9,9.9,0,0,1-.48-4.32,11,11,0,0,1,.2-2.57,12.35,12.35,0,0,1,1.57-4,3.54,3.54,0,0,1,1-1s-.09.24-.29.92-1.12,2.64-1.12,2.64c-.53,1.8-.4,7-.32,8.33S20.92,54.92,20.6,54Zm5.27,14.32a23,23,0,0,1-4.54-5.68S24.5,67,28.29,69s4.82,1.88,5.55,2.52.68,2.24-.32,1.56-1.49.32-4.07-1.6A35.21,35.21,0,0,1,25.87,68.36ZM41.48,81.44a9.31,9.31,0,0,1-6-.6,13.75,13.75,0,0,0-2.42-1.2s-3.78-1-3.94-2.36,0-.32,2.21.48,3.34.84,7.36.92,4,.6,4,.6C43.29,79.72,43.57,80.88,41.48,81.44Zm12.73-.63a3.87,3.87,0,0,1-3.23,0,6.47,6.47,0,0,0-2.41-.63c-.51-.07-2.6-.89-1.77-1s2.15.38,3.1-.19,1.27-1.82,2.6-2c.88-.08,1.9,1.51,2.72,1.76s1.9-.19,1.78.32S55,80.43,54.21,80.81ZM80.56,36.14a45.71,45.71,0,0,1,2.27,6,32.05,32.05,0,0,1,1.28,10.94c-.19,2.39.57,4.28.06,7.18a10.27,10.27,0,0,1-3.29,5.86c-1.14,1-1.65,1.57-2.41,2.27s-1.29.5-1.29.5a20.51,20.51,0,0,0,2-2c.7-.88,2.35-2,3.55-4a9.13,9.13,0,0,0,1.1-4.47,10.54,10.54,0,0,1-1.71,4A13.55,13.55,0,0,1,79,65.58c-1.27,1-2.6,2.77-3.49,3.34s-2.13.67-1.75.48a14.85,14.85,0,0,0,2.91-2.64c1.08-1.26,1.29-2.59,0-1.14a14.53,14.53,0,0,1-4,3.28c-1.45.76-1,2.39-.53,2.46s2-.26,3.87-.44a6.63,6.63,0,0,0,4.47-2.29c.64-1,2-2.52,3.11-4.16s1.26-4.79,1.33-6.43a13.83,13.83,0,0,0-.27-3.12s.21-.48.52,1.9a11.53,11.53,0,0,1-.84,7.12,17.67,17.67,0,0,1-3.71,5.22s-.73.86-1,1.14a4.61,4.61,0,0,1-3.08,1.2,3.41,3.41,0,0,0-2.73,1.31c-.38.56-2.09,1.7-2.09.88a12.5,12.5,0,0,0-.25-2c-.07,2.4-2.35,3.34-3.55,4.41s-2.91.51-6.46,1.32a8.23,8.23,0,0,1-6.4-.81c-1.27-.57-1.9-1.52-3-.76s-1.71.5-3.17,1.13-3.73-.69-5.82-.88-4.56-.94-5.83-3c-.6-1-.69-3.73-.06-6.11.7-2.67,1.9-3.28,3-6.68s1.83-4,2.21-3.65.76,2,1,4.6A7.11,7.11,0,0,0,45,65.5a16.08,16.08,0,0,0,2.35,2.71c.76.56,3.23,1.57,3.92,2.2s2.22.82,2.47.32,1.08-.82,1.9-1.33,4.19-2.08,4.5-3.9.83-1.33.83-1.33.69.63,1.64-3,.19-4.73.19-4.73a12.16,12.16,0,0,1-1.32,5.36c-.31.76-1.08-.13-2-.38s-3.23.82-4.43,1.07-1.46.63-1.15.88,2.35-.31,4.5-.75,1.78.12,1.65,1.13-.82,1.89-3.29,3.66-6.09.63-8.05-.32-2.53-4.47-2-4.72,1.08-.19,2.85.37,2.64.05,1.55-.37a11.74,11.74,0,0,0-3.21-.76c-1-.08-1.27-.59-2-1.43s-.68-3.78-1.61-5.46a8.47,8.47,0,0,1-.76-4.87,8.9,8.9,0,0,0-.33-3.78c-.51-2.18-4.65-2.86-5.41-3.28S36,40.59,34.32,39.16s-3.72-3.11-4.06-3.44-3.54,0-1.85.42A3,3,0,0,1,30.53,38a3.07,3.07,0,0,0-2-.57c-1.86.17-3.37.29-1-2.08s5.85-3,7.76-3.45S34,30.81,33,30.57c-.8-.2,1.16-2.31,1.82-3l.69-.57A29.52,29.52,0,0,0,38,25.18a.8.8,0,0,0,.21-.12,7.23,7.23,0,0,1,2.92-1.4c1.51-.31,3.49.73,5,.78s2.65-1,4.84-1.2a19.16,19.16,0,0,1,5.79.78c1.25.26,3.7-.42,5.37-.78a3.22,3.22,0,0,1,2.78.32,11.14,11.14,0,0,0,1.8,1,8.33,8.33,0,0,1,1,.71c.51.44,4.88,2,6.14,3.21S78.28,31,80.56,36.14Zm2.86-15.81c-.81,1.46-1.4,2.11-2.73,4.09-.43.64-1.87,3.18-1.7,1.76,0-.14,1.53-3.39,1.53-3.39.52-.72,1-1.45,1.53-2.17a1.47,1.47,0,0,1,1.52-.7A2,2,0,0,1,83.42,20.33Zm7.58-10c-2,2.09-3.8,4.34-5.79,6.63,0-.21,0-.38.06-.49,1.4-2.44,3.45-4.31,5.31-6.35a31.28,31.28,0,0,1,2.14-2.31c1.34-1.17,2.75-2.25,4.13-3.37a3,3,0,0,1,.3-.18l0,.07C95.12,6.32,93,8.25,91,10.33ZM98.36,1.7h0v0a3.42,3.42,0,0,1-.56.46,7.77,7.77,0,0,1-.8.31c-.12,0-.22.18-.34.21a.93.93,0,0,0-.69.52,1.56,1.56,0,0,0-.27,0c-.2.1-.39.24-.59.34-.38.2-.77.38-1.16.56h0l-.84.34c-.57.23-1.06.59-1.61.86a11.22,11.22,0,0,0-2,1.22A3.67,3.67,0,0,1,88,7.41l-.1,0c-.54.29-1.08.59-1.64.87a20.37,20.37,0,0,0-1.88.91c-.93.58-1.71,1.2-2.62,1.8-.73.48-1.51.9-2.27,1.35-.06,0-.22-.08-.33-.06s0-.07.06-.08l4-2.6c.54-.35,1-.73,1.59-1.07s1.17-.44,1.73-.79c1-.58,1.88-1.23,2.85-1.79,1.9-1.08,3.82-2.11,5.74-3.16a14.37,14.37,0,0,1,2.12-1.38,7.27,7.27,0,0,1,1.5-.59.94.94,0,0,1,.48.18h0C98.9,1.08,98.71,1.63,98.36,1.7Z"/><path d="M46,27.13a14.82,14.82,0,0,0,4.85-.63c2.35-.63,3.24.31,6.79.69s4.57-.06,4.57-.06a85,85,0,0,1-9.63-1.58c-3-.75-7.79,1.07-9.69,1.52A23.17,23.17,0,0,0,46,27.13Z"/><path d="M54.33,34.69c-1.58.06-4.11.19-4.11.19s1.71.38,2.47.57a18.47,18.47,0,0,0,4.31.18,10.59,10.59,0,0,1,3,.19A13.58,13.58,0,0,0,54.33,34.69Z"/><path d="M75.62,53.34a15.62,15.62,0,0,1-1.84.12c-1,0,.19.63,1,.57a10.65,10.65,0,0,0,3.17-.82c.57-.19.95-1,.19-.57A8.9,8.9,0,0,1,75.62,53.34Z"/><path d="M79.67,57.12a11.23,11.23,0,0,0-2.47,2.52c-1.33,1.64-3.93,1.13-5.13,2.77s-.19,1.39.7.82,3.67-.38,7.28-2.58a8.37,8.37,0,0,0,3.87-6.12c-1.27,2.34-2.28,3.28-2.6,3.34S80.43,56.55,79.67,57.12Z"/><path d="M74.29,41.18c-.7.19-2,.25-2.66,1.26S70.42,44.33,69.92,45a19.54,19.54,0,0,0-3.17,5.16c-.76,2.21-.38,2.65-.06,2.15,0,0,1.14-4.29,2.91-6.11s1.9-3.6,3.55-3.85,3.73,1,4.37,1.58,1.58.88,2,2.39.26,2.4.7,1.07a7,7,0,0,0,0-3.27c-.06-.63-.7-1.26-1.77-1.58a4.75,4.75,0,0,1-2-1.07A3,3,0,0,0,74.29,41.18Z"/><path d="M70.49,40c2.15-1.95,2.72-2.27,4.24-2.46a3.55,3.55,0,0,0,2.22-1,14.06,14.06,0,0,0-4.31.69,17.45,17.45,0,0,0-4.75,4.85c-1,1.7-2.28,4.1-2.22,5C65.67,47,68.33,41.93,70.49,40Z"/><path d="M69.53,52.52a6.08,6.08,0,0,1-2.13.36c-.71-.05-1.09-.05-1.09-.05s-.11.21.5.32a11.74,11.74,0,0,0,3.4-.2C71.51,52.56,70.69,52.22,69.53,52.52Z"/><path d="M74.69,51.93a35.61,35.61,0,0,0,3.55-1.68c2.15-1.26,1.14-2.9.5-4.66s-3.29-2.4-3.29-2.4a1.93,1.93,0,0,1-1.27,2.32c.59,1.46.83,2.85.59,3-.45.24-1.6-1.26-2.3-1.44a9.32,9.32,0,0,1-.74,1.52c-.59.84-2.36-.08-2.78.59a19.09,19.09,0,0,0-1.1,3,5.41,5.41,0,0,0,1.94-.25,2.87,2.87,0,0,1,2.2.25A4.85,4.85,0,0,0,74.69,51.93Z"/><path d="M56.7,29.65c-2.05.18-5.23.05-4.91.29,2.3.19,5,.81,7,1.16,2.22.38,5.51.57,8.11.75a11.08,11.08,0,0,0,4-.31s-1.14.25-4.94-1.2S59.49,29.39,56.7,29.65Z"/></g></g></svg>