<svg xmlns="http://www.w3.org/2000/svg" viewBox="0 0 831.07 170.67"><defs><style>.cls-1{fill:#d97b49;}.cls-1,.cls-2{fill-rule:evenodd;}.cls-2{fill:#f1eabc;}</style></defs><title>Recurso 3</title><g id="Capa_2" data-name="Capa 2"><g id="Capa_1-2" data-name="Capa 1"><path class="cls-1" d="M779.92,0a6.27,6.27,0,0,1,1.15.26c13.66,6.77,25.27,16,34,28.51a89.53,89.53,0,0,1,16,50.32c.61,30.27-8,57.82-25.47,82.68-1.83,2.58-3.77,5.08-5.66,7.6-.37.45-.77.85-1.17,1.3l-.4-.28c.85-1.76,1.74-3.51,2.6-5.3a153.17,153.17,0,0,0,13.81-50.91c.11-1.19.26-2.49.37-3.74a176.65,176.65,0,0,0-3.57-54c-3.23-14.6-8.32-28.52-17.19-40.85A69.46,69.46,0,0,0,781.13,1.56c-.49-.37-.92-.77-1.38-1.13Z"/><path class="cls-1" d="M762.71,21.77c.55.26,1.09.45,1.6.74,20.93,11.05,33.26,28.43,37,51.5,3.2,19.5-.29,38.3-7.83,56.44a113.84,113.84,0,0,1-14.44,24.63,11.25,11.25,0,0,1-1,1.14,4.47,4.47,0,0,1-.77.42c.12-.51.26-1,.43-1.5,6.83-13.75,10.49-28.43,11.92-43.65.06-.66.15-1.36.2-2a139.31,139.31,0,0,0-3.17-44.22c-3.32-13.64-8.41-26.54-18.16-37.11-1.88-2.07-4.06-3.94-6.09-5.9Z"/><path class="cls-1" d="M745.47,39.63c1.72,1,3.52,1.9,5.15,3,16.15,10.63,24.64,25.74,25.87,44.65,1.49,21.8-5.17,41.27-18.27,58.71a2.47,2.47,0,0,1-1.34,1,11.84,11.84,0,0,1,.43-1.22c6.32-13,9.15-26.79,9.72-41.16A105.36,105.36,0,0,0,760.63,63c-3.23-8.62-7.92-16.27-15-22.34a4.14,4.14,0,0,0-.66-.34Z"/><path class="cls-1" d="M231.47,139.66c-1.74,1.39-3.35,2.7-5.12,3.89-52.38,35.34-143.07,33.39-194.13-4C-15.07,104.8-9.58,49.15,43.91,24.66c10.27-4.73,21.59-7.34,32.43-10.91l1.2,2.66-7.15,2.81C55.67,25.29,42.77,34,33.45,46.94,15.24,72.26,17,99.38,38.88,122.2,62.78,147,93.46,157.86,127.06,161c34.33,3.17,66.78-3.23,96.18-22a27.44,27.44,0,0,1,7.17-2.13Z"/><path class="cls-2" d="M75.07,124.78V43.94h5.32l52.92,60.43V43.94h10.15v80.84h-5.18L85.22,64.37v60.41Zm92.72,0h0V43.94h10.29V75.88H226.2V43.94h10.12v80.84H226.2V85.18H178.08v39.6ZM346.37,53.23H321.52v62.25h24.85c10,0,17.95-2.8,23.7-8.36S378.7,94,378.7,84.44q0-14.07-8.78-22.62t-23.55-8.59Zm0-9.29h0q19.25,0,31,11.28c7.83,7.51,11.78,17.29,11.78,29.37s-3.86,21.91-11.58,29.22-18.13,11-31.22,11h-35V43.94Zm59.26,80.84h0V62.08h10v62.7Zm74.57-24.29h0v-9h26v18.88A35,35,0,0,1,492,122.57a46.93,46.93,0,0,1-20.39,4.17q-17.44,0-28.53-9.33a29.68,29.68,0,0,1-11.09-23.67A29.7,29.7,0,0,1,443.09,70q11.15-9.4,28.47-9.41A47.47,47.47,0,0,1,491,64.32a35.58,35.58,0,0,1,14.07,11l-7.58,5.38a27.29,27.29,0,0,0-10.84-8.13,37.11,37.11,0,0,0-15-3q-12.94,0-21.21,6.8a22.05,22.05,0,0,0,0,34.39c5.49,4.53,12.55,6.8,21.24,6.8a38,38,0,0,0,15-2.92c4.61-2,7.84-4.42,9.64-7.45v-6.72Zm44.2,24.29h0V62.08h10v62.7Zm46.75,0h0V70.92H544.53V62.25h63.1v8.67H581v53.86Zm51.66-24.15h24.64l-12.23-24Zm-22.87,24.15h10.43l8.15-15.9h33.31l8.18,15.9h10.57L638.22,62.25H632Zm80,0h0V62.25h9.84V115.8h46.88v9Z"/></g></g></svg>