<svg xmlns="http://www.w3.org/2000/svg" viewBox="0 0 164.69 25.19"><g id="Capa_2" data-name="Capa 2"><g id="Layer_1_copy" data-name="Layer 1 copy"><path d="M87.9.78l2.42.28c.81.1,1.62.16,2.45.3-.08.15-.13.25-.19.35C91.48,3.53,90.28,5.28,89,7a56,56,0,0,1-3.54,4.47c-.09.11-.19.2-.28.3-1.37-1.33-6.44-9.26-6.68-10.44l5-.56V.3H69.84V.77L73,1.29a.84.84,0,0,1,.58.33c.16.23.35.43.51.64a107.47,107.47,0,0,1,7.65,11.32,1.1,1.1,0,0,1,.17.64c0,.24,0,.49,0,.74,0,.85.07,1.69.06,2.54a34.26,34.26,0,0,1-.24,4.05c-.07.58-.18,1.15-.26,1.72,0,.16-.09.25-.27.27l-2.47.33-1.5.21v.45H90.56v-.45l-2.13-.28-1.9-.26a.26.26,0,0,1-.27-.24,5,5,0,0,0-.11-.53,22.64,22.64,0,0,1-.33-4.11c0-1.52.08-3.05.12-4.57a1,1,0,0,1,.19-.54q2.91-4.29,6-8.44C93.05,3.9,94,2.75,95,1.58a.68.68,0,0,1,.47-.28c.29,0,.58-.1.86-.15L98.17.81V.27c-3.44,0-6.85,0-10.27,0ZM83.65,23.11v.3a1.72,1.72,0,0,1-.78,0c0-.15,0-.3,0-.44,0-3.05,0-6.1,0-9.15a1.25,1.25,0,0,0-.22-.72Q78.81,7.34,75,1.54l-.26-.41a5.33,5.33,0,0,1,.71,0,.54.54,0,0,1,.27.21c.41.62.81,1.24,1.21,1.86l6.54,10a.87.87,0,0,1,.16.52Z"/><path d="M161.85,17.27h0a2.68,2.68,0,1,0,2.86,2.67A2.76,2.76,0,0,0,161.83,17.27Zm0,4.79a2.13,2.13,0,1,1,0-4.25h0A2.12,2.12,0,0,1,164,20,2.08,2.08,0,0,1,161.85,22.06Z"/><path d="M35.88,2.6A6.87,6.87,0,0,0,32,.53,18.83,18.83,0,0,0,28.18.22c-3.89,0-7.78,0-11.66,0l-.29,0,.1.51,4.21.57a3,3,0,0,1,.07.37c.05.41.1.83.13,1.25.1,1.83.22,3.66.27,5.5s0,3.41,0,5.12c0,.67,0,1.33,0,2,0,1.51-.1,3-.18,4.54,0,.87-.13,1.73-.21,2.6,0,.24-.08.48-.12.74L16.37,24l-.16.55h.45c4.08,0,8.16,0,12.23,0a.84.84,0,0,0,.81-.39l.05-.11-1.42-.2-2.8-.39a.24.24,0,0,1-.24-.23c0-.07,0-.14,0-.22-.05-.59-.11-1.17-.15-1.76-.09-1.58-.22-3.15-.23-4.73,0-3.15,0-6.3,0-9.44,0-1.22.1-2.43.15-3.64,0-.31,0-.62.07-.93s.06-.51.09-.76l.25-.08a10.05,10.05,0,0,1,3.46-.07,4.62,4.62,0,0,1,3,1.83,7.13,7.13,0,0,1,1.51,4.87,5,5,0,0,1-3.14,4.46,9,9,0,0,1-3.4.76c-.56,0-1.12,0-1.7,0V14l.25.06a18.76,18.76,0,0,0,3.43.28A9.49,9.49,0,0,0,33.85,13a6.91,6.91,0,0,0,3.43-7.56A6.1,6.1,0,0,0,35.88,2.6ZM22.68,23.4h-.76V1.13h.73C22.72,1.38,22.75,22.71,22.68,23.4ZM35,9.66a5.76,5.76,0,0,1-4,3.56l-.08,0,.27-.13a5.45,5.45,0,0,0,3.19-4.31,7.46,7.46,0,0,0-.71-4.52,6.31,6.31,0,0,0-3.57-3.15l-.13,0L29.89,1a1.2,1.2,0,0,1,.43,0,5.73,5.73,0,0,1,4.54,3.88A7.42,7.42,0,0,1,35,9.66Z"/><path d="M10.54,11.4,6.79,9a9.29,9.29,0,0,1-2.2-1.89,3,3,0,0,1-.75-1.93A3.44,3.44,0,0,1,5.77,2a6,6,0,0,1,3.44-.73,11.43,11.43,0,0,1,3.31.84.48.48,0,0,1,.33.36c.31,1.09.62,2.18.94,3.26,0,.09.06.18.09.28h.52c0-2-.07-3.92-.11-5.88l-.23,0c-.47,0-.94.08-1.41.1-.3,0-.61,0-.91,0C10.5.09,9.27,0,8,0A9.66,9.66,0,0,0,6,.21,6.61,6.61,0,0,0,1.13,4a5.26,5.26,0,0,0,.12,4.7,7.82,7.82,0,0,0,1.94,2.38A33.83,33.83,0,0,0,6.5,13.46c1.07.72,2.12,1.47,3.16,2.22a9.06,9.06,0,0,1,1,.87,3.65,3.65,0,0,1,.47,4.36,4.91,4.91,0,0,1-3.07,2.31,6.64,6.64,0,0,1-2.47.21,13,13,0,0,1-3.44-.76.48.48,0,0,1-.35-.35c-.35-1.13-.72-2.26-1.09-3.38,0-.14-.1-.28-.15-.42H.29l-.29,0c.1,2,.2,4,.29,6l.12,0h.2a13.71,13.71,0,0,1,1.92-.08q1,.09,2,.15a22,22,0,0,0,4,0A8.44,8.44,0,0,0,12.63,23a6.24,6.24,0,0,0,2.53-4.89,5.83,5.83,0,0,0-1.76-4.46A14.56,14.56,0,0,0,10.54,11.4Zm1.09,10.8a7.06,7.06,0,0,1-1.64,1,.4.4,0,0,1-.27,0L10,23a5,5,0,0,0,2.54-3.9,4.09,4.09,0,0,0-.84-2.88,7.9,7.9,0,0,0-2-1.92c-1.31-.88-2.62-1.77-3.95-2.64a17.66,17.66,0,0,1-2.13-1.63A6,6,0,0,1,1.8,7.48,5,5,0,0,1,3.53,2.11L4.1,1.7c.1-.07.21-.12.31-.18l0,0c-.32.31-.66.6-1,.93A4.56,4.56,0,0,0,2.24,4.73a4.42,4.42,0,0,0,.42,2.94,5.66,5.66,0,0,0,1.66,2c1,.73,2,1.42,3.06,2.11L10.68,14a8.32,8.32,0,0,1,1.7,1.6A4.73,4.73,0,0,1,11.63,22.2Z"/><path d="M66.13,23.28c0-.2-.08-.4-.11-.6a31.34,31.34,0,0,1-.33-4.43c0-4.13-.11-8.25.1-12.37,0-1,.1-2,.17-3,0-.51.12-1,.19-1.55L69.69.78V.31H56.92V.78l4.52.54a47.75,47.75,0,0,1,.35,10.13,5.49,5.49,0,0,1-.6.09c-1.42.11-2.83.26-4.24.31-2.63.1-5.25.1-7.87,0-.74,0-1.48-.12-2.22-.2-.29,0-.57-.09-.87-.14,0-.25,0-.48,0-.7,0-.57,0-1.14,0-1.71s0-.86,0-1.29q0-1.57.12-3.15.06-1.13.15-2.25c0-.33.09-.66.14-1,1.53-.23,3.05-.37,4.57-.6l0-.48c-1-.06-12.51,0-12.77.06V.78l3.2.49c.32.05.33.06.36.36.07.62.16,1.24.2,1.86C41.92,5,42,6.47,42,8c0,3.29.07,6.57-.1,9.86-.08,1.62-.18,3.24-.32,4.85a1.81,1.81,0,0,1-.16.85L38,24.08v.46h12.8v-.46l-4.5-.57a45.24,45.24,0,0,1-.43-5.17c-.09-1.73,0-3.45,0-5.2h15.8c.39,1.71.1,8.92-.41,10.37l-4.4.57v.46H69.71v-.46l-3.28-.53C66.24,23.53,66.15,23.47,66.13,23.28Zm-22.42.16h-.77V1.18h.76C43.77,1.43,43.78,23.07,43.71,23.44Zm19.79,0a1.13,1.13,0,0,1-.18,0h-.56c0-.09,0-.16,0-.23a2.26,2.26,0,0,1,0-.26V1.19a1.61,1.61,0,0,1,.78,0C63.56,1.41,63.57,23.11,63.5,23.43Z"/><path d="M162.48,20v0a.71.71,0,0,0,.58-.64.67.67,0,0,0-.29-.57,1.55,1.55,0,0,0-1-.21,8.25,8.25,0,0,0-1.07.08v2.67h.64V20.26h.31c.36,0,.53.13.58.41a1.88,1.88,0,0,0,.22.65h.68a2.58,2.58,0,0,1-.21-.65C162.89,20.31,162.75,20.1,162.48,20Zm-.76-.2h-.31v-.76a1.48,1.48,0,0,1,.36,0c.4,0,.59.16.59.4S162.07,19.82,161.72,19.82Z"/><path d="M158.86,23.6a1.07,1.07,0,0,1-.62-.3c-.67-.68-1.39-1.34-2.05-2-2.74-2.91-5.28-6-7.78-9.09,0-.06-.09-.14-.16-.24.36-.48.7-1,1.09-1.43,1.51-1.78,3-3.56,4.55-5.32q1.7-1.92,3.58-3.68a.78.78,0,0,1,.46-.23l3.12-.39.76-.11V.28H150.45l-.43,0c0,.11,0,.17,0,.23a1.29,1.29,0,0,0,0,.25c.84.08,1.68.16,2.52.26s1.66.14,2.5.28A66.48,66.48,0,0,1,147,10.54a1.21,1.21,0,0,0-.14-.2c-.87-1-1.75-1.94-2.61-2.92a51.83,51.83,0,0,1-4.52-5.74l-.23-.37L142.17,1c.88-.09,1.76-.14,2.65-.28l0-.48H130.17V.81h.15l3.44.46a.86.86,0,0,1,.5.25c.89.93,1.81,1.83,2.67,2.77,2.36,2.58,4.52,5.3,6.72,8l.15.23-.27.37c-1.81,2.31-3.69,4.56-5.68,6.72-1.15,1.25-2.37,2.45-3.56,3.67a.72.72,0,0,1-.45.25l-2.87.4-.91.15v.45h11.68v-.46l-5-.55c.46-1.14,7.11-8.82,8.3-9.57l.22.26c1.73,1.86,3.45,3.72,5,5.72.81,1,1.57,2.15,2.34,3.23a2.72,2.72,0,0,1,.2.35l-5.26.56v.46h14.23v-.45l-.12,0Zm-3.73-.14c-.7,0-.69,0-1.13-.48q-8.61-10.07-17.21-20.15l-1.21-1.42-.19-.23a2.13,2.13,0,0,1,.89-.06,1.25,1.25,0,0,1,.23.23c1.26,1.48,2.52,3,3.79,4.45L155,23.05l.31.38Z"/><path d="M120,.29l-.43,0a1.94,1.94,0,0,0,0,.22,1.55,1.55,0,0,0,0,.21,2.5,2.5,0,0,0,.26.07l3.6.52c.32,0,.34,0,.37.35.07.66.16,1.33.19,2,.07,1.32.12,2.64.13,4,0,2.24,0,4.47,0,6.71,0,1.15-.08,2.31-.12,3.47a1.11,1.11,0,0,1-.06.27c-.09-.07-.16-.11-.21-.16-.92-.9-1.85-1.79-2.74-2.71-1.58-1.64-3.14-3.3-4.7-5s-3-3.18-4.51-4.79-2.94-3.21-4.25-4.93a.61.61,0,0,0-.56-.26H98.37V.81s2.1.36,3,.54a1.18,1.18,0,0,1,.4.17L103.6,2.8a.46.46,0,0,1,.23.36c.12,1.2.19,2.4.19,3.61,0,3.18,0,6.36,0,9.54,0,2,0,4-.21,6.05,0,.38-.1.76-.15,1.15l-4.21.57v.45h10.72v-.45l-4.31-.6a.79.79,0,0,1,0-.13,41.43,41.43,0,0,1-.33-4.72c0-3.42,0-6.84,0-10.25,0-1.21.12-2.41.18-3.61,0,0,0-.11.07-.2.21.19.4.34.57.5,1.52,1.37,2.93,2.84,4.32,4.32,2.64,2.8,5.27,5.61,7.92,8.41,2.2,2.33,4.34,4.71,6.38,7.18a.51.51,0,0,0,.62.18V7.56c0-1.75.05-3.48.2-5.22,0-.31.07-.61.11-.91l.34-.07,3.47-.52a1.27,1.27,0,0,1,.28,0V.29H120Zm4.15,22.05c-.26-.1-19.8-20.88-20-21.17a1.8,1.8,0,0,1,.83,0c.11,0,.21.16.3.26L107.63,4q2.36,2.51,4.72,5l5.79,6.15,5.76,6.1a.63.63,0,0,1,.2.51C124.09,21.92,124.1,22.12,124.1,22.34Z"/></g></g></svg>