<svg xmlns="http://www.w3.org/2000/svg" xmlns:xlink="http://www.w3.org/1999/xlink" viewBox="0 0 906 912"><defs><style>.cls-1{fill:none;}.cls-2{opacity:0.2;}.cls-3{clip-path:url(#clip-path);}.cls-4{fill:#a1a1a1;}</style><clipPath id="clip-path"><rect class="cls-1" width="906" height="912"/></clipPath></defs><g id="Capa_2" data-name="Capa 2"><g id="Layer_4" data-name="Layer 4"><g class="cls-2"><g class="cls-3"><path class="cls-4" d="M163.1,333.86c-13.23,1.88-42.2-6.26-75.56-6.89S-6.28,344.51-6.28,344.51s35.89,6.26,61.7,5.63,60.45-3.13,82.49-5.63S176.31,332,163.1,333.86Z"/><path class="cls-4" d="M342.55,347s-20.78-1.25-34-5.64-54.16-.62-64.23,1.26-23.93.62-23.93.62,26.45,10.65,47.23,15,40.93-2.51,52.89-5.64S342.55,347,342.55,347Z"/><path class="cls-4" d="M161.7,315.46c-1.87-.15-3.72-.29-5.53-.39C156.17,315.07,158.21,315.25,161.7,315.46Z"/><path class="cls-4" d="M114,303.8c28.33-6.26,66.12-4.38,76.82-4.38s31.48-4.39,5-4.39-40.92-3.13-96.33-1.25-94.45,23.8-94.45,23.8C30.24,322,85.65,310.06,114,303.8Z"/><path class="cls-4" d="M636.71,20.45a2.83,2.83,0,0,1-.44-.3l.32,0c-1.87-1.8-4.52-2.44-7.77-2.21a22.9,22.9,0,0,0-7.06.93l.17.51c-14.07,4.43-34.32,17.88-52.6,27.88-18.5,10.12-35.09,20-52.58,30.09-4.38,2.54-8.46,5.58-12.8,8.17-5.54,3.3-11.39,6.11-16.8,9.59q-40.89,26.28-81.61,52.85c-15.37,10.06-29.22,22-42.61,34.56-11,10.34-22.07,20.67-35,28.83-9.8,6.21-19.53,12.56-29.09,19.15a40.55,40.55,0,0,1-16.52,6.79,24.87,24.87,0,0,0-4,1c-2.13.74-3.26,1.8-3.47,3.16-13.41-.12-40.45,4.32-54,6-16.59,2.06-41.75-7.17-58.34-8.2s-44.34,8.71-54.19,7c-25.79-4.53-44-4.19-55-3.05a1.73,1.73,0,0,0-.3-.51c-1.56-1.84-3.09-4.29-5.15-5-3.4-1.16-7.19-1.33-10.84-1.55-2.38-.15-4.81.66-7.18.49a121,121,0,0,1-14.35-1.69c-16-3.14-31.71-7.24-46.53-14.43A210.65,210.65,0,0,1-60.72,203c-19.5-13.81-61.8-41.65-61.8-41.65-9.71-5.08-21.48-11.57-34-19.18-19.64-13-38.59-27-57.63-40.89-104.42-81.6-118.58-76.44-125.51-73.9a23.88,23.88,0,0,0-4.88,3.13,25.31,25.31,0,0,0-3.32,4.25c-4.63,7.27-5.33,15.53-5.22,23.75.22,15.1,4.42,29.41,9.87,43.38,3.52,9,7.79,17.77,10.77,27,11,34,21.69,68,32.44,102.11,6.35,20.08,11.21,40.64,19.27,60.17,6.91,16.73,16.56,31.57,31,43,.95.74,19.7,11,18.57,20.75-.19,1.53.32,3.06.41,4.6.74,12.48,1.24,25,3.9,37.27,2.18,10.11,5.35,19.8,10.89,28.62a15.14,15.14,0,0,1,.59,1.68c1.37,2.86,2.77,5.71,4.17,8.56l-.05,0a20.17,20.17,0,0,0,1.14,2.56q13.94,23.27,28,46.5c1.4,2.31,3.15,4.43,4.39,6.16a72.74,72.74,0,0,0,8.21,8.19c-.89,10.21-2.29,22.94-1.77,30.08.81,10.74,5.76,27.82,5.76,32.59s-1.67,36.74,5.88,69.31c1.54,6.63,15.93,57.16,30.61,74,15.6,17.9,11.6,29,14.4,40.17,6.89,27.42,34.94,27.89,38.94,38.63s63.81,51.77,110,53.44,57.93,8.35,73,13.36,37,14.19,74.72,13.36c13.51-.3,46.63-5.8,60.45-10.86,24.83-9.09,29.54-18,44.49-20,120.06-16.7,143.72-61.07,146.92-80.16s12.09-18.86,15.69-26.42a66.12,66.12,0,0,1,8.24-13c23.3-21.3,46-75.16,46-103.34s-13.22-65.75-13.22-65.75c.52-21.8,2.62-57.83.17-73.48a47.31,47.31,0,0,0,10.33-7.4,9,9,0,0,0,1.31-1c5.89-7.57,11.15-15.44,12.76-25.18A96.14,96.14,0,0,1,517.73,425c3-9.91,6.53-19.67,9.42-29.61,4.16-14.27,4.75-28.84,2.81-43.55-1.33-10.09-4.44-19.68-7.92-29.2-2.29-6.25-2.06-9.19,1.68-12-10.47,4.32-22.83,8.66-33.49,15.84-7.21,4.85-14.05,10.27-21.06,15.41-1.12.83-2.17,1.77-3.35,2.5-3.06,1.91-11.39,9.57-14.48,10.31-.89.22-3.2,3.42-5.26-1.68-.2-.5-1.72-2.35,1.85-5.21s7.48-4.21,11.33-6.36,22-11.94,27.08-16.67c12.49-11.53,48.25-19,57.68-30.12a92.48,92.48,0,0,0,14.32-30.29c4.39-16.74,8.63-33.51,12.83-50.3,5.33-21.27,10.75-42.52,17.91-63.28,5.27-15.31,10.57-30.66,18.33-44.93,12.49-23,22.32-47.08,32.24-71.17C639.65,34.6,644.15,23.86,636.71,20.45ZM329.15,216.86c5.2-3.49,10.56-6.76,15.78-10.23,3.21-2.14,6.27-4.5,9.44-6.71a14,14,0,0,1,2.26-1l.31.87c-3.29,5-16.25,11.44-16,13.65.29,2.42-5.35,5.37-5.49,6.91,4,2.18,8,4.49,12.07,6.5a13.06,13.06,0,0,0,4.75.87,141.91,141.91,0,0,0,30.82-1.59c2.67-.41,5.18-1.73,7.77-2.63l2.57-.84c.1.28.22.57.33.86-7.75,9.05-23,14.18-23,14.18-7.46,1.5-14.85,3.54-22.56,3.39a23,23,0,0,1-4.8-.73c-4.27-1-8.55-1.94-12.77-3.11-1.63-.46-3.18-1.4-3.36-3.63,2.49-.14,0-3-3.39-4.39-1-.41-1.76-1.57-2.63-2.39C318.2,222.8,329.15,216.86,329.15,216.86Zm-20.83,25.42c5.49,1.35,11.23,1.76,16.62,3.41a44.48,44.48,0,0,0,21.65,1.19c11.42-2.18,23-4.06,33.49-9.48,1.16-.59,11-3.9,13.42-6a50.58,50.58,0,0,0,6.3-7c1.85-2.38,1.72-2.48,4.64-2.5-5.3,9.59-12.17,16.55-21.28,19.87-.16-.17-14.54,5.61-19.82,7-32.73,8.92-59-1-59-1-5-1.32-9.54-3.83-14.31-5.75-1.66-.67-3.92-.52-4.22-2.78C293.69,237.42,300.9,240.44,308.32,242.28ZM-85,248.06c3.39-2.38,38.51,4.26,39.35,4.24,2.63-.06,5-5.09,3-5.91.83-4.54,1.35-4.88,6-4.92.94,0,1.84-.87,2.8-1a35.2,35.2,0,0,1,11.25.43,109.51,109.51,0,0,0,13.91,1.63c1.85.13,3.75-.55,5.64-.69a6.29,6.29,0,0,1,3.44,1.25c-1.52.92,8-2,9.66,2.5,0,0,8.68,3.07,9.49,2.87,2.16-.52,8.37,1.11,8.61,1.41-1.26,1.13-2.57,2.22-3.78,3.4-.71.69-1.05,1.42-2.27,1.89a4.32,4.32,0,0,1-3.71-.09c-2.37-1-4.21.49-6.12,1.56-2.29,1.28-4.57,2.61-6.89,3.85,0,0-9.47,4.13-12.21,4.13-5.57,0-11.15-.26-16.71-.43-6.18-.18-12.36-.22-18.52-.65-2.62-.18-5.19-1.19-7.78-1.8-2.42-.58-4.84-1.1-7.25-1.71C-57.85,259.83-89.19,254.74-85,248.06Zm53.86,221.42c-9.36,5.71-19.06,29.9-22,27.84s2.1-34.66,5.84-40.05a109.41,109.41,0,0,0-10.67-4.5c-5.6-2-13.19-2.78-4-6s30.39,11.13,43.59,22.67,15.19,34.2,15.19,34.2c-15.59,5.17-22-3.58-20.79-9.94S-26.73,477.43-31.13,469.48Zm23.2-13.92C-17.53,446-41.12,424.93-47.12,417S-78.31,407-85.51,404.65s-2.4-5.17,15.59-4.77,24.8,4,29.19,7.55,13.6,8.75,22.4,15.91,27.59,29,40.39,44.55,18,34.6,18,34.6a24.85,24.85,0,0,1-2.4,9.94c-2.4,4.78-1.59,4.38-14.39-17.1S1.66,465.1-7.93,455.56Zm-53.19,74.37c16,2,17.6,2.39,33.19,2.39s22,2,32,1.59,2.41,4.77,6.8,4,11.2,4.37,3.2,4.37-17.2-.79-28.79,0-24.4-2.38-38.39-2.78-40-8-55.18-14.72-16.8-24.26-17.2-27.84,6.4-6,14.4-6.36,3.6,7.95,3.6,7.95c-.8,4.78,1.2,16.71,6,19.49S-77.11,527.94-61.12,529.93Zm50.39,172.22c-3.6,2-6,.79-9.2-1.59s-7.6-6.76-17.59-9.55-8-11.53-2-10.34,9.59-.4,21.59.4,10.39,6.76,8,11.13S-10.73,702.15-10.73,702.15Zm-18.8-126.48c-4.4-4.77-3.6-7.95-15.59-10.34s-22.39-4.77-46.79-11.53-15.19-13.13-15.19-13.13,6.8,7.56,54.38,14.72,59.58,7.55,59.58,7.55,0,2-1.6,8.36C1.43,586.56-25.13,580.44-29.53,575.67ZM-68.14,640s-16.31,1.35-31.71-11.27-31.71-46-31.71-46c4.08,2.7,10,10.81,19.93,20.72s27.18,27,43.95,27.49S-56.81,638.61-68.14,640ZM-118,338.69l.29-.2c3.77,1,7.36,10,7.55,14.37.28,6.3,2.41,10.77-2.1,23.8-1.42,4.1-8.62,12.78-11.75,16.28C-129.9,389.18-114.8,364.55-118,338.69ZM-323.89,74.75c-2.91,2.06-8,1.61-9.55-1.7-1.75-3.8-5.61-5.28-8.21-8.65-4.86-6.3-.41-11.32.19-11.84s1.84-.15,2.79,0a3.21,3.21,0,0,1,1.35.71c7.36,5.62,14.77,11.18,22,16.94,1.36,1.09,36.17,29,37.21,30.5C-281.44,106.94-319.22,71.46-323.89,74.75Zm35.43-13.29a68.19,68.19,0,0,0-9-7.1c-6.55-4.4-13.21-8.65-19.77-13-2.23-1.49-3.94-4.13-3.26-3-.17.17-5.14-2-7.48-3.13-1-.49-1.95-1-2.93-1.58,10.76,2.75,32.89,13.79,82.26,50.58l2.82,2.63c0-.91,6.09,4.41,6.83,5,8.26,6.28,16.42,12.71,24.81,18.82l0,0c2.5,2,5,4,7.65,6,27.41,21.73,58.57,39.6,79.88,50.75l.08-.14c5.3,3.41,11.83,7.52,17.14,10.62,2.2,1.28,4.2,2.9,6.29,4.37l-.39.6a5.73,5.73,0,0,1-1.19-.27q-10.59-4.83-21.16-9.71c-4.18-1.93-8.47-3.7-12.47-6-8.9-5-17.64-10.29-26.45-15.47-8.14-4.79-16.25-9.62-24.41-14.38-2.59-1.5-5.48-2.54-7.89-4.27-3.39-2.43-6.32-5.47-10.38-7a19.42,19.42,0,0,1-4.63-2.74c-5.52-4.15-11-8.42-16.49-12.56s-11.05-7.77-16.29-12c-7.73-6.23-15.2-12.78-22.77-19.22-2.22-1.89-4.32-3.92-6.55-5.8C-278.93,69.49-283.94,65.73-288.46,61.46ZM-164,245.62q-10.91-17.1-22.13-34c-5.42-8.12-10.91-16.21-16.84-24-6.19-8.09-12.64-16-19.54-23.55-9.16-10-18.94-19.37-28.28-29.18-3.78-4-4.55-5.75-8-10-.52-.66-10.91-11.69-11.75-17.12-.66-4.31,9.5,6.91,9.86,6.83,8.29,8.72,16.64,17.41,24.88,26.19s17,17.47,24.73,26.88c8.13,9.93,15.34,20.63,22.81,31.08q6.28,8.78,12.1,17.85c3.94,6.12,7.59,12.42,11.41,18.61,3.94,6.36,8.44,12.44,11.75,19.11,2.26,4.57,6.49,6.91,9.33,10.67,1.16,1.54,1.89,3.38,2.91,5s2.44,2.77,2.88,4.36c1.73,6.27,3.16,12.62,4.62,19a3,3,0,0,1-2.37,3.7c-.79.17-5.47-3.06-6.6-6.1C-148.1,275.17-154.93,259.85-164,245.62ZM-148.29,555a97.92,97.92,0,0,1-4.8-43,107.74,107.74,0,0,1,2-25.46c2.8-14.72,10.4-31.82,15.6-39.37s10-10.34,10-10.34-.8,2.38-2.8,9.14-11.19,26.25-11.19,26.25c-5.2,17.9-4,70-3.2,82.73S-145.09,563.74-148.29,555Zm52.38,142.39c-19.59-16.71-44.78-52.11-45.18-56.48,0,0,31.59,42.55,69.17,62.44s48,18.69,55.19,25.06,6.8,22.27-3.2,15.51-14.8,3.18-40.39-15.91S-76.31,714.08-95.91,697.38Zm155.15,130c-20.79,5.57-50.38.4-59.58-6s-24-11.94-24-11.94-37.59-10.34-39.19-23.46-.4-3.18,22,4.77,33.19,8.35,73.17,9.15,39.59,6,39.59,6C77.24,810.33,80,821.86,59.24,827.43Zm126.52-6.34c-7.55,3.76-19.52,5.64-32.11,0s-18.89-5.63-23.92-6.26-25.82-8.77-17.64-9.39,21.41,3.75,30.85-1.88,12.6-18.16,25.82-19.42c8.8-.83,18.89,15,27.07,17.54s18.89-1.88,17.64,3.13S193.32,817.34,185.76,821.09Zm261.94-444c19.2,43.5,17.17,45.67,22.6,59.77,13,42.83,14.45,86.16,12.66,108.7-1.89,23.8,5.66,42.58.63,71.39a101.9,101.9,0,0,1-32.74,58.24c-11.33,10-16.37,15.66-23.93,22.55s-12.8,5-12.8,5,12.59-11.27,19.52-20,23.29-20,35.26-40.08,10.91-44.47,10.91-44.47c-3.15,17.54-10.07,28.19-17,39.46S445,659.73,432.37,669.75s-25.81,27.55-34.62,33.19-21.2,6.68-17.43,4.8,18.26-13.78,29-26.3,12.8-25.68-.42-11.28-25.19,25.05-39.67,32.57-9.65,23.8-5.24,24.42,19.51-2.5,38.4-4.38S440.56,710,446.86,700,467,675,477.71,658.68s12.59-47.59,13.22-63.88a137.44,137.44,0,0,0-2.63-31.08s2-4.68,5.16,19c3.9,29.66,2.43,45.52-8.4,70.77-12.52,29.2-36.89,51.91-36.89,51.91s-7.24,8.46-10.07,11.27c-5.67,5.64-17.42,11.9-30.64,11.9s-23.36,7.38-27.14,13-20.77,16.91-20.77,8.76-2.52-20-2.52-20c-.63,23.8-23.3,33.2-35.26,43.84s-29,5-64.23,13.16-51-2.51-63.59-8.15-18.89-15-30.23-7.51-17,5-31.48,11.27S95.09,776,74.32,774.12,29,764.73,16.38,744.69c-5.94-9.46-6.84-37.08-.63-60.75,7-26.49,18.89-32.56,30.23-66.38s18.26-40.08,22-36.33,7.56,20,10.08,45.72,11.33,35.07,16.37,42,15.74,21.29,23.3,26.93,32.11,15.66,39,21.92,22,8.14,24.55,3.13,10.71-8.14,18.89-13.15S241.8,687.07,245,668.91s8.19-13.15,8.19-13.15,6.92,6.26,16.37-30.06,1.88-47,1.88-47c-.34,28.48-10,45.72-13.12,53.24s-10.8-1.26-19.62-3.77-32.11,8.15-44.07,10.65-14.48,6.26-11.33,8.77,23.29-3.13,44.7-7.52,17.63,1.26,16.37,11.28-8.18,18.78-32.74,36.32-60.45,6.26-80-3.13-25.19-44.47-20.15-47,10.71-1.88,28.34,3.76,26.23.41,15.32-3.76a117.48,117.48,0,0,0-31.91-7.52c-10.07-.83-12.59-5.84-20.14-14.19s-6.72-37.58-15.95-54.28-8.4-32.56-7.56-48.43,1.68-15.86-3.36-37.58S30,447.21,22.47,443,4.84,421.33-11.95,407.13s-36.94-30.89-40.3-34.23-35.26,0-18.47,4.17,21.13,18.17,21.13,18.17a31,31,0,0,0-20.29-5.64c-18.47,1.67-33.46,2.95-9.72-20.67s58.17-29.51,77.16-34.24-13.06-10.62-22.55-13c-7.95-2,11.53-23,18.1-29.76L0,286.26s15.12-10.06,24.32-18.08A12.39,12.39,0,0,0,26.41,267c6.23-4.13,14-10.84,29-13.93s34.75,7.22,49.79,7.74,26.37-9.88,48.15-11.95,45.05,5.16,57.49,7.74,36.82-4.13,53.42-7.74,24,.6,27.62,3.18c2.86,2,17.58,10.43,17.93,9.66a80.34,80.34,0,0,1,10,7c5,4.38,48.48,20,61.07,31.94S425,325.72,447.7,377.07Zm28.49-157.13c-8.12,14.48-14,20.92-27.23,40.65-4.25,6.34-18.58,31.62-16.81,17.53.18-1.45,15.17-33.7,15.17-33.7,5.12-7.18,10.06-14.46,15.15-21.65,3.9-5.5,9.88-8.3,15.14-6.92A25,25,0,0,1,476.19,219.94Zm75.33-99.4c-19.71,20.79-37.85,43.17-57.58,65.88.21-2.11-.08-3.78.56-4.88,13.95-24.25,34.36-42.78,52.79-63.06,7-7.74,13.57-16.09,21.34-23,13.25-11.69,27.28-22.44,41-33.56a25.23,25.23,0,0,1,3-1.78l.38.67C592.43,80.68,571.18,99.81,551.52,120.54Zm73.1-85.84.08-.09-.19-.13c0,.07.06.13.1.21-1.82,1.56-3.48,3.42-5.54,4.55-2.45,1.35-5.32,2-7.93,3.06-1.21.51-2.16,1.75-3.39,2.08-3.32.89-5.91,2.49-6.84,5.2a9.21,9.21,0,0,0-2.67.36c-2,1.06-3.9,2.37-5.93,3.41-3.78,1.93-7.63,3.73-11.46,5.58,0,0,0,0,.06,0-2.77,1.13-5.54,2.28-8.32,3.39-5.65,2.26-10.58,5.86-16,8.57A108.65,108.65,0,0,0,536.87,83c-4.68,3.73-9.51,7.34-15.63,8.56a3.56,3.56,0,0,0-.92.45c-5.44,2.91-10.8,6-16.31,8.71-6.21,3.1-12.92,5.35-18.75,9-9.22,5.8-16.93,11.91-26,17.91-7.29,4.81-15,9-22.55,13.37-.63.36-2.2-.72-3.3-.52.39-.56.46-.74.59-.82,13.39-8.64,26.8-17.23,40.17-25.9,5.33-3.46,10.43-7.26,15.86-10.57,5.63-3.43,11.56-4.44,17.19-7.88,9.5-5.8,18.61-12.26,28.27-17.75,18.87-10.74,38-21,57-31.49a151.1,151.1,0,0,1,21.11-13.72,72.22,72.22,0,0,1,14.89-5.78,9.25,9.25,0,0,1,4.74,1.75l0,0C630,28.55,628.14,34.06,624.62,34.7Z"/><path class="cls-4" d="M104.54,287.52c21.4-.63,25,0,48.28-6.25s32.2,3.07,67.46,6.83,45.45-.58,45.45-.58c-5.67,0-66.12-8.14-95.71-15.66s-77.45,10.65-96.34,15C73.68,286.89,83.13,288.14,104.54,287.52Z"/><path class="cls-4" d="M187,362.67c-15.74.63-40.93,1.88-40.93,1.88s17,3.76,24.56,5.63,20.15,2.51,42.82,1.88,30.22,1.88,30.22,1.88C226.69,365.8,202.77,362,187,362.67Z"/><path class="cls-4" d="M398.58,548a146.21,146.21,0,0,1-18.26,1.26c-9.44,0,1.89,6.26,9.45,5.63,16.36-1.37,25.82-6.26,31.48-8.14s9.45-10,1.89-5.64S410.55,544.91,398.58,548Z"/><path class="cls-4" d="M438.88,585.62c-7.55,5.63-11.33,8.77-24.55,25s-39,11.27-51,27.55-1.88,13.78,6.93,8.15,36.52-3.76,72.41-25.68,38.41-60.75,38.41-60.75c-12.59,23.17-22.67,32.57-25.82,33.19S446.44,580,438.88,585.62Z"/><path class="cls-4" d="M385.36,427.17c-6.92,1.88-19.52,2.51-26.44,12.53s-12,18.79-17,25.05S318,494.18,310.43,516.1s-3.78,26.31-.63,21.3c0,0,11.34-42.59,29-60.75S357.65,441,374,438.45s37.15,10,43.45,15.65,15.73,8.77,19.52,23.8,2.52,23.8,6.92,10.65.63-26.31,0-32.57-6.92-12.52-17.63-15.65a48.44,48.44,0,0,1-19.52-10.65C403,426.55,392.29,425.3,385.36,427.17Z"/><path class="cls-4" d="M347.58,415.28c21.41-19.42,27.08-22.55,42.19-24.43s22-10,22-10-30.86.63-42.82,6.89S331.84,419,321.77,435.94s-22.67,40.71-22,49.48C299.73,485.42,326.17,434.69,347.58,415.28Z"/><path class="cls-4" d="M338.1,539.88c-11.51,2.92-14.22,4-21.21,3.59s-10.84-.45-10.84-.45-1.13,2,5,3.14c0,0,21,1.8,33.87-2S349.61,537,338.1,539.88Z"/><path class="cls-4" d="M389.35,534.06c5-3.34,13.85-4.18,35.26-16.7s11.33-28.81,5-46.35-32.74-23.8-32.74-23.8c2.52,13.78-4.88,19.11-12.64,23,5.92,14.56,8.23,28.34,5.92,29.59-4.46,2.42-15.95-12.52-22.85-14.28-2.42,5.15-4.34,10.8-7.37,15.12-5.88,8.34-23.51-.84-27.71,5.84s-10.91,30.06-10.91,30.06,7.55.84,19.3-2.5,16,.83,21.83,2.5S384.31,537.4,389.35,534.06Z"/><path class="cls-4" d="M210.56,312.55c-20.38,1.84-52,.56-48.86,2.91,22.84,1.9,49.66,8,70,11.51,22,3.76,54.78,5.64,80.59,7.52s40.3-3.13,40.3-3.13-11.33,2.5-49.11-11.9S238.27,310,210.56,312.55Z"/></g></g></g></g></svg>