<svg xmlns="http://www.w3.org/2000/svg" viewBox="0 0 97 60.63"><g id="Capa_2" data-name="Capa 2"><g id="Layer_1_copy" data-name="Layer 1 copy"><polygon points="35.74 23.94 33.2 4.71 42.19 21.9 41.29 30.26 35.74 23.94"/><path d="M34.53,41.28C29,31.49,19.2,13.66,18.5,9.49c3.52,2,16,16.43,23.38,25.15-.33,3.39-.58,6.16-.72,7.76C39,41.94,36.79,41.55,34.53,41.28Z"/><path d="M19.93,11.56c1,3.31,9.79,18.1,15,26.65l3.83.7.47-4.71C32.9,26.31,22.6,13.6,19.93,11.56Z"/><polygon points="31.02 40.4 26.83 33.38 9.72 25.67 22.98 38.95 31.02 40.4"/><path d="M48.54,0C46,5.34,42.9,42.69,42.9,42.69l5.64,8,5.63-8S51.05,5.34,48.54,0ZM45.15,40.14S47,7.22,48.54,2.51c1.5,4.71,3.38,37.63,3.38,37.63L48.54,45Z"/><polygon points="61.13 23.94 63.68 4.71 54.68 21.9 55.58 30.26 61.13 23.94"/><polygon points="65.85 40.4 73.89 38.95 87.15 25.67 70.05 33.38 65.85 40.4"/><polygon points="41.04 56.67 48.5 60.63 55.96 56.67 48.5 54.2 41.04 56.67"/><path d="M55.79,44.19c-2,2.68-3.93,5.35-5.78,8.22A55.31,55.31,0,0,1,58.61,55C71.35,49.56,85.43,49,97,49.2,85.75,40.63,68.27,41.27,55.79,44.19Zm4.48,8a53.13,53.13,0,0,0-5.14-1.88c1.37-1.91,2.09-2.85,3.62-4.69,11.43-3,25.33-3.05,35.91,2.92C83,47.86,71.4,48.61,60.27,52.2Z"/><path d="M55.12,34.64C62.51,25.92,75,11.53,78.5,9.49c-.7,4.17-10.52,22-16,31.79-2.27.27-4.49.66-6.63,1.12C55.7,40.8,55.45,38,55.12,34.64Z"/><path d="M57.81,34.2l.48,4.71,3.83-.7c5.16-8.55,13.94-23.34,14.95-26.65C74.4,13.6,64.1,26.31,57.81,34.2Z"/><path d="M41.21,44.19c-12.48-2.92-30-3.56-41.21,5C11.57,49,25.65,49.56,38.38,55A55.09,55.09,0,0,1,47,52.41C45.14,49.54,43.26,46.87,41.21,44.19Zm-4.48,8C25.6,48.61,14,47.86,2.33,48.55c10.59-6,24.49-5.87,35.92-2.92,1.52,1.84,2.25,2.78,3.62,4.69A53.13,53.13,0,0,0,36.73,52.2Z"/></g></g></svg>